<svg width="128" height="45" viewBox="0 0 128 45" fill="none" xmlns="http://www.w3.org/2000/svg">
  <path d="M127.131 21.322C126.744 9.75224 117.379 0.38706 105.809 0H104.415H104.339C99.3664 0.165482 94.8311 1.97177 91.2298 4.88033C87.62 1.96896 83.0818 0.165482 78.1398 0H76.7458H76.6701C71.7 0.165482 67.1619 1.97177 63.5605 4.88033C59.9508 1.96896 55.4126 0.165482 50.4706 0H49.0766H49.0009C44.0308 0.165482 39.4927 1.97177 35.8941 4.88033C32.2844 1.96896 27.7462 0.165482 22.8042 0H21.4102H21.3345C9.17293 0.406694 -0.394193 10.6301 0.0125008 22.7917C0.419195 34.9532 10.637 44.5232 22.807 44.1137C27.7743 43.9482 32.3096 42.1447 35.9082 39.239C39.8853 42.4448 44.9816 44.2988 50.479 44.1137C55.4463 43.9482 59.9816 42.1447 63.5802 39.239C67.5574 42.4448 72.6508 44.2988 78.151 44.1137C83.1183 43.9482 87.6508 42.1447 91.2494 39.239C95.0471 42.299 99.8657 44.1249 105.074 44.1249C105.321 44.1249 105.571 44.1221 105.82 44.1137C117.982 43.707 127.546 33.4835 127.142 21.3192L127.131 21.322ZM22.6471 39.5054C13.0351 39.8195 4.93771 32.2607 4.61796 22.6374C4.29821 13.0282 11.8431 4.94764 21.4467 4.60826H22.6836C26.3999 4.74009 29.8246 6.04151 32.6041 8.15632C29.3646 12.1419 27.4938 17.2663 27.6761 22.7917C27.8416 27.7926 29.6703 32.3532 32.6069 35.963C29.8274 38.0778 26.3915 39.3792 22.6443 39.5054H22.6471ZM35.8997 32.6926C33.7429 29.8962 32.4134 26.4267 32.2872 22.6374C32.1469 18.4331 33.5129 14.5232 35.8969 11.4267C38.0594 14.2315 39.3889 17.7038 39.5151 21.4762C39.6553 25.6834 38.2894 29.5961 35.8997 32.6954V32.6926ZM50.3163 39.5054C46.1568 39.64 42.275 38.305 39.1898 35.963C42.4321 31.9774 44.3057 26.8502 44.1206 21.322C43.9551 16.3463 42.1292 11.7801 39.1785 8.15632C41.9497 6.04712 45.3771 4.74289 49.1131 4.60826H50.35C54.0663 4.74009 57.491 6.04151 60.2705 8.15632C57.031 12.1419 55.1602 17.2663 55.3425 22.7917C55.508 27.7926 57.3339 32.3532 60.2733 35.963C57.4938 38.0778 54.0579 39.3792 50.3107 39.5054H50.3163ZM63.569 32.6926C61.4149 29.8962 60.0826 26.4267 59.9564 22.6374C59.8162 18.4331 61.1821 14.5232 63.5662 11.4267C65.7286 14.2315 67.0581 17.7038 67.1843 21.4762C67.3246 25.6834 65.9586 29.5961 63.569 32.6954V32.6926ZM77.9884 39.5054C73.8261 39.6372 69.947 38.305 66.8618 35.963C70.1041 31.9774 71.9777 26.8502 71.7926 21.322C71.6271 16.3463 69.8012 11.7801 66.8506 8.15632C69.6217 6.04712 73.0491 4.74289 76.7851 4.60826H78.022C81.7356 4.74009 85.163 6.04151 87.9425 8.15632C84.703 12.1419 82.8322 17.2663 83.0145 22.7917C83.18 27.7926 85.0087 32.3532 87.9454 35.963C85.1658 38.0778 81.7299 39.3792 77.9827 39.5054H77.9884ZM91.241 32.6926C89.0869 29.8962 87.7546 26.4267 87.6284 22.6374C87.4882 18.4359 88.8541 14.5232 91.2382 11.4267C93.4007 14.2315 94.7301 17.7038 94.8563 21.4734C94.9966 25.6806 93.6307 29.5933 91.241 32.6926ZM105.658 39.5054C101.501 39.6485 97.6162 38.305 94.531 35.963C97.7733 31.9774 99.6469 26.8502 99.4618 21.322C99.2963 16.3463 97.4704 11.7801 94.5226 8.15632C97.2937 6.04712 100.718 4.74289 104.457 4.60826H105.694C114.829 4.93081 122.22 12.3326 122.523 21.4734C122.843 31.0939 115.278 39.1829 105.658 39.5026V39.5054Z" fill="#696665"/>
</svg>