<svg width="56" height="56" viewBox="0 0 56 56" fill="none" xmlns="http://www.w3.org/2000/svg">
  <path d="M27.5823 0C12.3495 0 0 12.3495 0 27.5795C0 42.8094 12.3495 55.1617 27.5823 55.1617C42.8151 55.1617 55.1617 42.8123 55.1617 27.5795C55.1617 12.3467 42.8122 0 27.5823 0ZM27.5823 53.3695C13.3396 53.3695 1.79506 41.8222 1.79506 27.5823C1.79506 13.3424 13.3424 1.79506 27.5823 1.79506C41.8222 1.79506 53.3695 13.3424 53.3695 27.5823C53.3695 41.8222 41.825 53.3695 27.5823 53.3695Z" fill="#696665"/>
  <path d="M27.5902 11.2388C27.5902 11.2388 27.5846 11.2388 27.5818 11.2388V12.1335C36.0999 12.1335 43.0305 19.0613 43.0305 27.5823H27.5818V43.031C19.0636 43.031 12.133 36.1032 12.133 27.5823H27.5818V11.2388C18.5504 11.2388 11.2383 18.5508 11.2383 27.5823C11.2383 36.6081 18.556 43.9257 27.5818 43.9257C36.6132 43.9257 43.9253 36.6137 43.9253 27.5823C43.9253 27.442 43.9253 27.3018 43.9196 27.1615C43.6953 18.3321 36.4701 11.2444 27.5902 11.2388Z" fill="#696665"/>
  <path d="M25.1452 5.54789L25.1171 5.23376L25.2153 5.53386L26.7411 8.92486H28.1295L29.6553 5.53386L29.7534 5.23376L29.7254 5.54789L29.8853 10.0804C30.421 10.1309 30.9735 10.2038 31.5177 10.2936L31.2708 3.58173C30.5079 3.49759 29.7506 3.43869 28.9933 3.40503L27.4928 7.10735L27.4395 7.38222L27.3862 7.10735L25.8856 3.40503C25.1283 3.43588 24.3682 3.49759 23.6082 3.58173L23.3613 10.2936C23.9055 10.2038 24.458 10.1309 24.9937 10.0804L25.1536 5.54789H25.1452Z" fill="#696665"/>
  <path d="M46.532 12.5598L42.998 14.8793L42.7567 15.0841L42.9363 14.8232L44.4957 11.7296L43.3934 10.6329L40.2773 12.1811L40.0137 12.3606L40.224 12.1222L42.5632 8.61344C42.1509 8.26565 41.7554 7.94871 41.2534 7.56165L37.7109 13.0983C38.1597 13.4405 38.7515 13.9453 39.1274 14.2875L42.4622 12.5682L42.6754 12.4111L42.5183 12.6243L40.7906 15.9395C41.1636 16.3378 41.705 16.9829 42.0079 17.3728L47.5866 13.8556C47.3089 13.4938 46.8629 12.944 46.532 12.5542V12.5598Z" fill="#696665"/>
  <path d="M15.7967 14.2764C16.6775 13.3536 17.1767 12.2906 16.296 11.2724C15.8164 10.7199 15.0114 10.5993 14.3439 10.8713L14.2766 10.8966L14.299 10.8377C14.3972 10.574 14.4617 9.73822 13.7436 9.16043C13.3931 8.87996 12.9555 8.77337 12.5095 8.81825C11.6821 8.90239 11.0454 9.46335 9.31208 11.3818C8.78759 11.9624 8.02749 12.874 7.57031 13.4658L12.3328 17.9506C13.9119 16.2173 14.5542 15.5722 15.7996 14.2708L15.7967 14.2764ZM9.58415 13.1797C10.5434 12.0157 11.5615 10.9583 12.0243 10.5404C12.1702 10.4086 12.33 10.2767 12.5208 10.2263C12.8349 10.1421 13.1546 10.3609 13.2276 10.6806C13.3005 11.0004 13.0985 11.3061 12.8714 11.5557C12.3637 12.1223 10.5041 14.0548 10.5041 14.0548L9.58135 13.1825L9.58415 13.1797ZM13.8502 12.428C14.0858 12.1868 14.2345 12.0409 14.3972 11.9624C14.6075 11.8614 14.8347 11.839 15.0395 11.9764C15.2414 12.1111 15.334 12.3411 15.2835 12.5682C15.2246 12.8403 15.0002 13.0984 14.8151 13.2975C14.5654 13.5639 12.417 15.847 12.4142 15.8498L11.4493 14.9411C11.4493 14.9411 13.2612 13.0395 13.853 12.4308L13.8502 12.428Z" fill="#696665"/>
</svg>