<svg width="63" height="51" viewBox="0 0 63 51" fill="none" xmlns="http://www.w3.org/2000/svg">
  <path d="M45.5446 4.2998C44.1254 10.6863 43.542 13.6482 42.3724 18.2396C41.2449 22.6627 40.3698 26.7942 38.8665 28.7996C37.3631 30.8443 35.3184 31.2622 33.9412 31.4277C33.2316 31.5118 32.6903 31.5539 31.1449 31.5539C29.5994 31.5539 29.0581 31.5118 28.3485 31.4277C26.9714 31.2594 24.9267 30.8443 23.4233 28.7996C21.9199 26.797 21.0448 22.6655 19.9594 18.2396C18.7898 13.6061 18.2064 10.6863 16.7872 4.2998C16.7872 4.2998 15.368 4.34188 14.7425 4.38395C13.8674 4.42602 13.197 4.51016 12.4902 4.5915C12.4902 4.5915 13.3261 17.7375 13.6991 23.3303C14.075 29.1726 14.7846 39.0651 15.41 46.5343C15.41 46.5343 16.6217 46.7418 18.6243 46.826C20.7111 46.9522 21.6703 46.9522 21.6703 46.9522C22.5454 43.6566 23.5888 39.1072 24.8004 37.1438C25.8018 35.5591 27.3051 35.3909 28.1802 35.2646C29.5153 35.0964 30.6849 35.0571 31.1841 35.0571C31.7255 35.0571 32.853 35.0571 34.1881 35.2646C35.0632 35.3909 36.5665 35.5563 37.5678 37.1438C38.7767 39.1044 39.8621 43.6538 40.698 46.9522C40.698 46.9522 41.6151 46.9522 43.7019 46.826C45.7045 46.6998 46.9162 46.5343 46.9162 46.5343C47.5416 39.0651 48.2513 29.2147 48.6271 23.3303C49.0029 17.7796 49.8388 4.5915 49.8388 4.5915C49.1292 4.50736 48.4195 4.42322 47.5865 4.38395C46.9611 4.34188 45.5418 4.2998 45.5418 4.2998H45.5446Z" fill="#696665"/>
  <path d="M62.1122 12.0606C61.2764 3.71354 55.6864 1.96055 50.8033 1.12752C48.3407 0.709611 43.9596 0.375841 41.1632 0.252431C38.7006 0.0841436 32.9396 0 31.1866 0C29.4336 0 23.6754 0.0841436 21.2128 0.249626C18.4164 0.375841 14.0354 0.709611 11.5728 1.12472C6.68962 1.96055 1.09689 3.71354 0.263871 12.0578C0.014245 14.3521 -0.0278309 17.3168 0.0142409 20.489C0.0983845 25.79 0.555552 29.3353 0.807983 31.8399C0.97627 33.5509 1.68308 38.6415 2.60305 41.2724C3.85399 44.9046 4.98151 45.948 6.31659 47.0307C8.73712 48.9912 12.7424 49.6195 13.5782 49.785C18.0855 50.5787 27.1842 50.7442 31.2315 50.7442C35.2788 50.7442 44.3775 50.618 48.8848 49.785C49.7207 49.6167 53.7259 49.0333 56.1464 47.0307C57.4815 45.9452 58.609 44.9018 59.86 41.2724C60.7771 38.6443 61.4867 33.5088 61.655 31.8399C61.9047 29.3773 62.3646 25.7872 62.4488 20.489C62.4067 17.2747 62.3226 14.3128 62.115 12.0578L62.1122 12.0606ZM59.0241 26.0845C58.5221 32.7627 57.9387 36.7679 57.1056 39.6485C56.354 42.1952 55.4368 43.8641 54.1017 45.0729C51.8495 47.1176 48.7586 47.5355 46.9243 47.8272C43.0004 48.4106 36.3643 48.621 31.1894 48.621C26.0146 48.621 19.3785 48.4134 15.4546 47.8272C13.6174 47.5355 10.5294 47.1176 8.27713 45.0729C6.94205 43.8612 6.02209 42.1503 5.27322 39.6485C4.43739 36.7679 3.81193 32.7627 3.35475 26.0845C3.06305 22.0793 3.10512 15.5666 3.5623 12.0606C4.18777 6.80161 6.77659 4.17352 12.3273 3.21429C14.9161 2.7543 18.4193 2.42053 21.7177 2.25505C24.3878 2.08676 28.7297 2.00542 31.1923 2.00542C33.6128 1.96335 37.9939 2.08957 40.6248 2.25505C43.9232 2.42053 47.4264 2.7571 50.0152 3.21429C55.5658 4.21559 58.1547 6.84648 58.8222 12.0606C59.2822 15.5245 59.3243 22.0344 59.0298 26.0845H59.0241Z" fill="#696665"/>
</svg>