<svg width="100" height="51" viewBox="0 0 100 51" fill="none" xmlns="http://www.w3.org/2000/svg">
  <path d="M49.5466 50.7498C76.9129 50.7498 99.1015 39.3876 99.1015 25.3805C99.1015 11.3734 76.9129 0 49.5466 0C22.1803 0 0 11.3622 0 25.3805C0 39.3988 22.1887 50.7498 49.5466 50.7498ZM58.8781 38.2994C58.0507 40.215 56.6286 44.3044 53.3639 45.9368C52.371 46.4276 51.1453 46.6576 50.057 46.6997H49.555C40.4114 46.6997 31.896 45.4235 24.7719 43.2582C24.7186 43.2358 24.5531 43.1741 24.4998 43.1544C23.8407 42.9357 23.5069 42.6299 23.5069 42.2541C23.5069 41.9287 23.6836 41.6791 23.9136 41.4491C24.0174 41.3538 24.1661 41.2304 24.3624 41.0509C26.0144 39.6793 30.9649 36.092 40.2964 32.5131C43.5696 31.2678 47.673 29.7083 51.9615 28.7995C54.4718 28.2779 63.8033 26.8446 58.8753 38.2994M83.9108 12.7197C84.0875 12.4168 84.3203 12.1559 84.7466 12.1335C84.9766 12.1111 85.2908 12.1644 85.7732 12.4673C91.5903 16.0462 95.043 20.5226 95.043 25.3665C95.043 34.1118 83.7958 41.6342 67.7076 44.9187C66.681 45.129 65.991 45.1178 65.761 44.8569C65.5928 44.6999 65.5535 44.4166 65.761 44.0716C65.8564 43.8949 65.9714 43.7378 66.1902 43.4742C74.9467 33.1498 81.6221 17.917 83.5153 13.5219C83.6612 13.219 83.7986 12.916 83.9136 12.7169M40.3721 12.3915C41.1995 10.4759 42.6216 6.3865 45.8863 4.76533C46.8792 4.27449 48.1049 4.03328 49.1931 4.00243C49.4456 3.99402 49.6223 4.00243 49.684 4.00243C58.8388 4.00243 67.3429 5.26739 74.4783 7.4439C74.5316 7.46634 74.6971 7.52805 74.7504 7.54768C75.4095 7.76645 75.7433 8.06937 75.7433 8.44802C75.7433 8.77337 75.5666 9.01178 75.3366 9.24177C75.2328 9.34555 75.0841 9.47176 74.8878 9.64005C73.2442 11.02 68.2853 14.5989 58.9538 18.1778C55.6694 19.4344 51.5772 20.9826 47.2999 21.8914C44.7784 22.4243 35.4469 23.8463 40.3749 12.3915M31.3884 5.81152C32.4233 5.61238 33.1049 5.61238 33.3545 5.87322C33.5004 6.04151 33.5424 6.31357 33.3461 6.65856C33.2423 6.83526 33.1274 7.00355 32.917 7.24476C24.1605 17.5804 17.4851 32.802 15.5834 37.2055C15.4488 37.5084 15.3001 37.8113 15.1851 38.0105C15.0168 38.3134 14.7784 38.5742 14.3577 38.5967C14.1277 38.6191 13.8024 38.5518 13.3227 38.2629C7.50561 34.684 4.05294 30.2075 4.05294 25.3637C4.05294 16.6184 15.3001 9.09592 31.3884 5.81152Z" fill="#696665"/>
</svg>