<svg width="102" height="40" viewBox="0 0 102 40" fill="none" xmlns="http://www.w3.org/2000/svg">
  <path d="M17.399 21.5214C17.399 24.33 15.553 25.9948 12.5481 25.9948C9.54322 25.9948 7.95581 23.8053 7.95581 21.4459V17.5897H0V21.5233C0 25.5607 1.23442 32.7294 12.6349 32.7294C24.0355 32.7294 25.6266 25.0359 25.6266 21.3591V0.00195312H17.399V21.5233V21.5214Z" fill="#696665"/>
  <path d="M91.3724 9.19214C89.0073 9.20724 85.7721 9.95279 84.5736 13.2389V9.80747H76.9707V40H84.6623V30.6304C86.0609 32.4424 88.3807 33.5334 91.4611 33.5239C97.5653 33.507 101.091 28.2748 101.091 21.1004C101.091 11.8158 95.17 9.19214 91.3724 9.19214ZM89.0771 28.171C85.3644 28.171 84.3905 25.8229 84.4773 21.359C84.5755 16.8894 86.3459 15.0604 88.7204 15.0604C92.6087 15.0604 93.3259 18.0294 93.3259 21.0966C93.3259 24.1638 92.7804 28.171 89.0752 28.171H89.0771Z" fill="#696665"/>
  <path d="M38.3501 8.92608L38.3463 8.92041C30.8435 8.92041 27.4648 15.757 27.4648 21.6214C27.4648 27.4859 31.2757 33.1748 39.0503 33.1748C45.8642 33.2428 50.3716 28.8789 50.3716 25.6418H42.8518C42.8518 25.6418 41.9628 27.7313 39.3222 27.7313C36.6815 27.7313 35.164 26.2458 35.164 22.6482H50.4678C50.4678 11.3798 44.794 8.92419 38.3482 8.92419L38.3501 8.92608ZM35.1659 18.1088C35.1659 15.757 36.1323 13.8185 38.8805 13.8185C41.6287 13.8185 42.9499 15.9231 42.9499 18.1088H35.1659Z" fill="#696665"/>
  <path d="M62.8677 8.92608L62.8639 8.92041C55.3611 8.92041 51.9824 15.757 51.9824 21.6214C51.9824 27.4859 55.7933 33.1748 63.5679 33.1748C70.3818 33.2428 74.8892 28.8789 74.8892 25.6418H67.3694C67.3694 25.6418 66.4804 27.7313 63.8397 27.7313C61.1991 27.7313 59.6816 26.2458 59.6816 22.6482H74.9855C74.9855 11.3798 69.3116 8.92419 62.8658 8.92419L62.8677 8.92608ZM59.6834 18.1088C59.6834 15.757 60.6498 13.8185 63.398 13.8185C66.1463 13.8185 67.4675 15.9231 67.4675 18.1088H59.6834Z" fill="#696665"/>
</svg>