<svg width="102" height="24" viewBox="0 0 102 24" fill="none" xmlns="http://www.w3.org/2000/svg">
  <path d="M99.7102 0.263651H92.7571C92.1064 0.246822 91.4641 0.437551 90.9312 0.810587L59.2988 21.3416C59.2287 21.3921 59.1473 21.4342 59.0548 21.4426C58.9426 21.4426 58.8809 21.3304 58.8809 21.1369H58.8697L58.8809 2.02785C58.8809 0.962036 58.1601 0.252438 57.0942 0.252438H41.6679C40.9976 0.221585 40.3272 0.403897 39.7803 0.779739L11.121 18.0236C11.0396 18.074 10.9583 18.1161 10.8685 18.1245C10.7367 18.1245 10.6975 18.0432 10.6975 17.8609V0.426333C10.6975 0.13183 10.6273 0 10.4955 0C10.417 0.00280479 10.3384 0.0280479 10.2711 0.0701197L1.78665 5.16362C0.356207 6.01628 0 6.93904 0 8.5546V21.5744C0 22.6402 0.709618 23.3611 1.79507 23.3498H11.954C12.6131 23.3498 13.0703 23.2377 13.7406 22.831L24.7831 16.1948C24.8448 16.1584 24.9149 16.1359 24.9851 16.1331C25.0636 16.1359 25.1365 16.1752 25.187 16.2341L31.7951 22.831C32.2102 23.2461 32.8104 23.3583 33.5817 23.3583H43.4265C43.6201 23.3583 43.7827 23.2769 43.7827 23.176C43.7827 23.0553 43.6817 22.9431 43.5387 22.8001L32.6393 11.9091C32.5383 11.7969 32.5075 11.7352 32.5075 11.6763C32.5075 11.6062 32.5467 11.5333 32.701 11.4323L47.9534 2.27749C48.0235 2.22139 48.1077 2.18774 48.1974 2.17652C48.318 2.17652 48.3798 2.30834 48.3798 2.45138V21.5828C48.3798 22.6599 49.0894 23.3695 50.1664 23.3695H65.4918C66.12 23.3807 66.7399 23.1872 67.2672 22.831L90.387 7.81132C90.4572 7.75523 90.5413 7.71877 90.6311 7.71035C90.7517 7.71035 90.8021 7.83097 90.8021 8.01608V23.5041C90.8021 23.7986 90.9031 23.88 91.0041 23.88C91.1051 23.8715 91.2032 23.8379 91.2874 23.779L99.7214 18.7051C101.143 17.8525 101.497 16.9185 101.497 15.3141V2.03909C101.497 0.973266 100.776 0.263651 99.7102 0.263651Z" fill="#696665"/>
</svg>