<svg width="92" height="47" viewBox="0 0 92 47" fill="none" xmlns="http://www.w3.org/2000/svg">
  <path d="M45.9097 0C20.5558 0 0 10.3225 0 23.0529C0 35.7834 20.5532 46.1059 45.9097 46.1059C71.2661 46.1059 91.8168 35.786 91.8168 23.0529C91.8168 10.3199 71.261 0 45.9097 0ZM45.9097 44.2891C21.5495 44.2891 1.80148 34.7794 1.80148 23.0504C1.80148 11.3213 21.5495 1.81427 45.9097 1.81427C70.2698 1.81427 90.0178 11.3239 90.0178 23.0504C90.0178 34.7794 70.2698 44.2891 45.9097 44.2891Z" fill="#696665"/>
  <path d="M58.7657 15.5131C60.3736 11.5966 58.1287 11.7266 58.1287 11.7266H57.2623L55.0098 18.074C55.0098 18.074 55.0251 18.0689 55.5449 18.0689C56.3323 18.0689 57.7872 17.8956 58.7683 15.5105L58.7657 15.5131Z" fill="#696665"/>
  <path d="M72.4353 25.8967H71.3906L70.6211 28.1696H71.3524C71.3524 28.1696 72.7666 28.2767 73.1998 27.1682C73.7119 25.861 72.4353 25.8967 72.4353 25.8967Z" fill="#696665"/>
  <path d="M45.91 2.95837C22.1792 2.95837 2.94336 11.9558 2.94336 23.0529C2.94336 34.1501 22.1792 43.1475 45.91 43.1475C69.6407 43.1475 88.8766 34.1501 88.8766 23.0529C88.8766 11.9558 69.6407 2.95837 45.91 2.95837ZM64.5088 18.0943L69.949 16.2112H65.1789L66.0759 13.6453H73.4451L72.5201 16.3896L64.1495 19.1339L64.5088 18.0943ZM54.5176 9.27265H58.3601C64.7177 9.21405 62.5213 15.0238 62.5213 15.0238C60.786 20.9151 55.1801 20.7087 55.1801 20.7087L50.5552 20.7138C50.8712 20.5685 51.1056 19.8219 51.1056 19.8219C51.1056 19.8219 54.0538 11.8743 54.4284 10.8066C54.803 9.74151 54.5176 9.27775 54.5176 9.2752V9.27265ZM39.4913 20.0462C39.4913 20.0462 43.1045 10.1314 43.1987 9.87401C43.3134 9.55549 43.1325 9.26755 43.1325 9.26755H46.6286L47.3522 15.1639C47.3522 15.1639 49.2021 10.2231 49.3168 9.93261C49.4315 9.64212 49.3398 9.26755 49.3398 9.26755L52.5937 9.27775C52.3695 9.27775 52.2064 9.78993 52.2064 9.78993L48.1906 20.6806H45.1277L44.348 14.5575C44.348 14.5575 42.5541 19.4397 42.3528 19.9621C42.2076 20.3366 42.4394 20.6806 42.4394 20.6806H39.058C39.2619 20.6806 39.4913 20.0487 39.4913 20.0487V20.0462ZM27.4997 20.3137C27.4997 20.3137 33.7682 11.0181 34.2599 10.297C34.7517 9.57589 34.4944 9.25735 34.4944 9.25735H38.1636C37.8579 9.3924 37.8783 10.0345 37.8783 10.0345L38.3421 20.0895C38.393 20.5456 38.6682 20.6985 38.6682 20.6985H34.9683C35.2435 20.4309 35.2231 20.0844 35.2231 20.0844L35.2155 19.0804H31.485C31.485 19.0804 31.0263 19.8856 30.848 20.2194C30.7511 20.4054 30.7639 20.6883 30.7639 20.6883H27.0564C27.3723 20.5507 27.4972 20.3137 27.4972 20.3137H27.4997ZM19.4604 20.1685C19.6922 19.7073 23.0125 10.4601 23.0125 10.4601C23.0125 10.4601 23.466 9.4918 22.9538 9.24718H27.0844C27.0258 9.24973 26.8041 9.32362 26.4677 10.1722C26.2435 10.7327 23.4635 18.1478 23.4635 18.1478H26.4652C26.4652 18.1478 27.1557 18.2141 27.2424 17.9516L26.2384 20.6908H19.0577C19.0577 20.6908 19.231 20.6322 19.4629 20.171L19.4604 20.1685ZM22.1538 27.3389L21.2568 29.9049H13.8876L14.8126 27.1605L23.1858 24.4137L22.8239 25.4533L17.3837 27.3364H22.1538V27.3389ZM34.8613 27.5071C34.8613 27.5071 33.9618 30.2947 31.1487 30.2947L33.1591 33.9029C33.1591 33.9029 33.5567 34.6342 33.9414 34.6342H29.9026C29.9026 34.6342 29.9612 34.4406 29.8466 34.2087C29.7293 33.9768 28.0425 30.6642 28.0425 30.6642L26.6869 34.2622C26.6869 34.2622 26.6869 34.6342 26.8041 34.6342C26.6589 34.6342 23.0278 34.6342 23.0278 34.6342C23.0278 34.6342 23.4508 34.1756 23.6826 33.5232C23.9145 32.8684 26.8806 24.3856 26.8806 24.3856C26.8806 24.3856 27.1507 23.5753 26.8041 23.1905H31.5819C31.5819 23.1905 36.25 23.0759 34.8638 27.5046L34.8613 27.5071ZM39.8556 34.9222C36.8769 34.9222 35.0702 32.3715 35.641 29.1736C36.2628 25.6979 38.6657 22.9001 42.3528 22.9001C45.2424 22.9001 46.5062 24.8213 46.5062 27.8969C46.5062 30.9725 44.0244 34.9222 39.8556 34.9222ZM50.6368 34.6801H47.5382C47.7421 34.568 47.7828 34.0252 47.7828 34.0252V24.1206C47.7828 23.3893 47.4975 23.2364 47.4975 23.2364L51.3987 23.2313C51.0165 23.3103 51.0241 24.2659 51.0241 24.2659L50.9731 30.2107C50.9731 30.2107 54.9151 24.3143 55.1852 23.8913C55.4553 23.4683 55.1062 23.2364 55.1062 23.2364H59.54C59.1552 23.2364 57.6875 25.0481 57.6875 25.0481C57.6875 25.0481 51.2534 33.6787 50.9451 34.0634C50.6393 34.4482 50.6393 34.6801 50.6393 34.6801H50.6368ZM63.2984 34.6826H55.5546C55.7075 34.6826 56.2478 33.6048 56.2478 33.6048C56.2478 33.6048 59.2928 25.3998 59.6393 24.4366C59.9858 23.4734 59.7158 23.2364 59.7158 23.2364H67.2276L66.2262 25.9374C66.0734 25.6113 65.6478 25.6699 65.6478 25.6699H62.5264L61.7925 27.7109H64.2591C64.9089 27.7109 65.0184 27.4816 65.0286 27.451L63.989 30.3712C63.8718 30.2183 63.3341 30.254 63.3341 30.254H60.7911L60.098 32.1039H63.3749C64.1062 32.1039 64.2234 31.9485 64.2234 31.9485L63.2984 34.6852V34.6826ZM76.5436 27.6498C76.5436 27.6498 75.6976 30.3381 72.8819 30.3381L74.8924 33.9462C74.8924 33.9462 75.3154 34.6775 75.7027 34.6775H71.5187C71.5187 34.6775 71.5773 34.4864 71.4601 34.2546C71.3455 34.0227 69.7146 30.7101 69.7146 30.7101L68.5043 33.9793C68.5043 33.9793 68.303 34.6877 68.5909 34.6801L64.6515 34.6724C64.6515 34.6724 65.0949 34.2545 65.3268 33.5997C65.5586 32.9448 68.6495 24.4289 68.6495 24.4289C68.6495 24.4289 68.9196 23.6212 68.5705 23.2339H73.3101C73.3101 23.2339 78.0164 23.0096 76.5385 27.6498H76.5436Z" fill="#696665"/>
  <path d="M41.8305 25.5833C40.9081 25.4712 39.6748 26.5338 39.1754 28.7507C38.9461 29.7623 38.704 31.9562 40.1182 32.2187C41.1578 32.4124 42.3019 31.6632 42.8982 29.2705C43.8028 25.6521 42.1337 25.6216 41.8305 25.5833Z" fill="#696665"/>
  <path d="M30.4607 25.8202C30.0836 25.8202 29.6632 25.8278 29.6632 25.8278L28.8809 28.1288H29.6122C29.6122 28.1288 31.0391 28.2537 31.5641 27.1198C31.5641 27.1198 32.1807 25.8202 30.4581 25.8202H30.4607Z" fill="#696665"/>
  <path d="M35.1429 13.1484L33.084 16.4992H35.1734L35.1429 13.1484Z" fill="#696665"/>
</svg>