<svg width="70" height="51" viewBox="0 0 70 51" fill="none" xmlns="http://www.w3.org/2000/svg">
  <path fill-rule="evenodd" clip-rule="evenodd" d="M36.1789 4.11182C32.5355 8.60228 22.1466 23.1058 20.963 24.9822C18.6827 28.5808 18.4807 30.3225 18.4162 31.4837C18.3489 32.6253 18.3489 34.6784 20.2057 36.3556C23.3134 39.1268 27.6692 38.678 31.5342 38.678H63.3769C64.7401 38.678 65.1439 38.2741 65.8816 37.2924C68.4283 33.405 69.5699 29.181 69.5699 25.4029C69.5699 17.3139 64.3193 7.12416 51.0218 2.5215L49.5241 4.66716C60.0701 9.6709 64.4287 16.2201 64.4287 25.3805C64.496 27.8403 63.8481 30.4992 62.2382 32.9562H31.2649C29.411 32.9562 29.1417 30.8555 29.8121 29.6718C32.4682 24.9458 35.43 20.3992 38.6836 16.063C41.8137 11.8839 44.8962 7.97401 48.1358 3.88463C49.0081 2.74589 48.4246 1.64921 46.6828 1.29301C43.0591 0.535714 39.2838 0 34.7036 0C9.29786 0 0 14.5905 0 25.4086C0 37.141 9.36237 50.7498 34.7709 50.7498C48.8706 50.7498 58.1011 46.2117 63.4414 40.3805H58.0563C53.3863 44.6943 45.3618 47.7571 34.7709 47.7571C13.2498 47.7571 5.31786 35.6657 5.31786 25.2515C5.47213 15.9564 13.9875 3.12734 35.3067 2.70381C36.1117 2.68138 36.7371 3.41903 36.1761 4.11182H36.1789Z" fill="#696665"/>
</svg>