<svg width="56" height="56" viewBox="0 0 56 56" fill="none" xmlns="http://www.w3.org/2000/svg">
  <path fill-rule="evenodd" clip-rule="evenodd" d="M40.3805 3.12734C36.5351 1.11911 32.2017 0 27.6103 0C23.0189 0 18.8201 1.07704 15.0617 3.00392V2.99551L14.8654 3.09929C14.8457 3.1105 14.8261 3.11612 14.8093 3.12734C14.7925 3.13294 14.7784 3.14416 14.7616 3.15258L14.4503 3.31526V3.32647C5.83957 8.00486 0 17.0952 0 27.5626C0 38.0301 5.99945 47.4121 14.8093 52.0316C18.6266 54.0118 22.988 55.1589 27.6103 55.1589C32.2326 55.1589 36.5351 54.0118 40.3805 52.0035C49.1623 47.4121 55.1617 38.1759 55.1617 27.5626C55.1617 16.9493 49.1623 7.74121 40.3805 3.12173V3.12734ZM2.75429 27.5682C2.75429 18.5761 7.53364 10.7227 14.7083 6.35003L14.9299 6.21541C18.4331 4.13706 22.4916 2.89735 26.8643 2.7543L23.7369 25.33L14.8121 32.3027L5.7442 39.3876C3.85097 35.8872 2.7599 31.8427 2.7599 27.5682H2.75429ZM40.3805 48.8538C36.6221 51.12 32.2578 52.4102 27.6103 52.4102C22.9628 52.4102 18.5425 51.12 14.8093 48.8538C11.452 46.8455 8.63876 44.0632 6.57163 40.7648L13.7014 37.8366L15.5581 37.0737L27.5514 32.1597L40.3805 37.3513L48.6462 40.7059C46.5791 44.0323 43.7378 46.8455 40.3805 48.8538ZM40.3805 32.2438L31.5118 25.33L28.3564 2.7543C32.7178 2.89735 36.8521 4.1595 40.3805 6.28272C47.5832 10.6414 52.4046 18.5593 52.4046 27.5654C52.4046 31.8399 51.3416 35.8283 49.4484 39.3287L40.3805 32.2438Z" fill="#696665"/>
</svg>