<svg width="60" height="51" viewBox="0 0 60 51" fill="none" xmlns="http://www.w3.org/2000/svg">
  <path d="M34.9008 27.0612C34.8524 27.0739 34.6638 27.0739 34.5797 27.0739H28.4489V28.5009H34.6867C34.7352 28.5009 35.1021 28.5009 35.1734 28.4881C36.445 28.3684 37.0285 27.3109 37.0285 26.3859C37.0285 25.4609 36.422 24.4137 35.2703 24.3066C35.0435 24.2837 34.8549 24.2837 34.7708 24.2837H30.6938C30.5154 24.2837 30.3142 24.271 30.2428 24.248C29.9218 24.1639 29.802 23.8786 29.802 23.6416C29.802 23.4275 29.9217 23.1421 30.253 23.0479C30.3473 23.0249 30.4543 23.0122 30.6811 23.0122H36.5647V21.6107H30.5868C30.3371 21.6107 30.146 21.6235 29.9931 21.6464C28.9713 21.7891 28.2578 22.6096 28.2578 23.6543C28.2578 24.5105 28.7929 25.5094 29.9701 25.675C30.1842 25.6979 30.4823 25.6979 30.6123 25.6979H34.5823C34.6536 25.6979 34.832 25.6979 34.8677 25.7107C35.3187 25.7693 35.4741 26.1031 35.4741 26.3987C35.4741 26.6942 35.2957 26.9924 34.9033 27.0637L34.9008 27.0612Z" fill="#696665"/>
  <path d="M23.2797 27.0612C23.2313 27.0739 23.0427 27.0739 22.9714 27.0739H16.8278V28.5009H23.0657C23.1141 28.5009 23.481 28.5009 23.5524 28.4881C24.8239 28.3684 25.4074 27.3109 25.4074 26.3859C25.4074 25.4609 24.8009 24.4137 23.6492 24.3066C23.4224 24.2837 23.2338 24.2837 23.1497 24.2837H19.0727C18.8943 24.2837 18.693 24.271 18.6217 24.248C18.3006 24.1639 18.1809 23.8786 18.1809 23.6416C18.1809 23.4275 18.3006 23.1421 18.6319 23.0479C18.7262 23.0249 18.8332 23.0122 19.06 23.0122H24.9436V21.6107H18.9657C18.716 21.6107 18.5249 21.6235 18.372 21.6464C17.3502 21.7891 16.6367 22.6096 16.6367 23.6543C16.6367 24.5105 17.1718 25.5094 18.3491 25.675C18.5631 25.6979 18.8612 25.6979 18.9912 25.6979H22.9612C23.0325 25.6979 23.2109 25.6979 23.2466 25.7107C23.6976 25.7693 23.853 26.1031 23.853 26.3987C23.853 26.6942 23.6874 26.9924 23.2822 27.0637L23.2797 27.0612Z" fill="#696665"/>
  <path d="M13.6301 21.5573H12.0859V28.534H13.6301V21.5573Z" fill="#696665"/>
  <path d="M8.67385 28.534V21.5573H7.12967V26.7631L1.98501 21.5573H0V28.534H1.54418V23.3053L6.72452 28.534H8.67385Z" fill="#696665"/>
  <path d="M58.3601 21.5573V26.7631L53.2154 21.5573H51.2305V28.534H52.7746V23.3053L57.9448 28.534H59.8941V21.5573H58.3601Z" fill="#696665"/>
  <path d="M43.1856 21.5573L38.8359 28.534H40.7139L41.486 27.2855H46.5593L47.3314 28.534H49.1967L44.847 21.5573H43.183H43.1856ZM42.2836 25.9655L44.0316 23.16L45.7668 25.9655H42.2861H42.2836Z" fill="#696665"/>
  <path d="M8.59173 17.6C11.7055 8.50821 20.2851 2.40034 29.9578 2.40034C39.6306 2.40034 48.2228 8.50821 51.3239 17.6L51.3469 17.6713H58.1555V16.8508L55.327 16.517C53.579 16.3157 53.2121 15.5436 52.7356 14.5677L52.6158 14.3307C48.5286 5.63137 39.628 0 29.9527 0C20.2775 0 11.3794 5.63392 7.28964 14.3562L7.16988 14.5932C6.69338 15.5665 6.32644 16.3412 4.57842 16.5425L1.75 16.8763V17.6968H8.54843L8.58411 17.6025L8.59173 17.6Z" fill="#696665"/>
  <path d="M51.325 32.504C48.2112 41.5958 39.6317 47.6909 29.959 47.6909C20.2862 47.6909 11.6939 41.583 8.59284 32.4913L8.56991 32.4199H1.77148V33.2404L4.59994 33.5742C6.34795 33.7755 6.71487 34.5476 7.19137 35.5235L7.31115 35.7605C11.3984 44.4828 20.299 50.1167 29.9742 50.1167C39.6495 50.1167 48.5476 44.4828 52.6373 35.7733L52.7571 35.5363C53.2336 34.5629 53.6005 33.7883 55.3485 33.587L58.177 33.2532V32.4327H51.3556L51.3327 32.504H51.325Z" fill="#696665"/>
</svg>