<svg width="78" height="51" viewBox="0 0 78 51" fill="none" xmlns="http://www.w3.org/2000/svg">
  <path d="M36.5099 48.1666C32.4261 45.6086 29.4166 36.7792 29.4166 26.2893C29.4166 25.905 29.4166 25.5236 29.4278 25.1449L29.4334 25.1505C18.074 23.3667 9.86443 18.4723 9.65407 12.6889L9.62041 12.7562C6.84087 16.2117 5.25336 20.2057 5.25336 24.4605C5.25336 36.9839 18.9996 47.2438 36.437 48.1526L36.5127 48.1666H36.5099ZM0 25.3749C0.00280479 11.3622 17.4402 0 38.9529 0C60.4656 0 77.9029 11.3622 77.9029 25.3749C77.9029 39.3876 60.4656 50.7498 38.9529 50.7498C17.4402 50.7498 0.00280753 39.3876 0.00280753 25.3749H0ZM38.9529 3.66025C43.1068 3.66025 46.638 9.9598 47.945 18.75L47.9506 18.736C56.0284 17.4794 61.6857 14.5765 61.6857 11.2023C61.6857 6.66978 51.5071 3.00393 38.9501 3.00393C26.393 3.00393 16.2145 6.67259 16.2145 11.2023C16.2145 14.5765 21.8689 17.4794 29.9495 18.736L29.9551 18.75C31.2649 9.9598 34.7962 3.66025 38.9501 3.66025H38.9529ZM41.466 48.1498C58.9033 47.241 72.6496 36.9811 72.6496 24.4577C72.6496 20.2029 71.0621 16.2089 68.2825 12.7534L68.2489 12.686C68.0385 18.4695 59.8317 23.3611 48.4695 25.1477L48.4751 25.1421C48.4835 25.5208 48.4863 25.8994 48.4863 26.2865C48.4863 36.7764 45.474 45.6058 41.393 48.1638L41.466 48.1498ZM38.9529 19.4007C40.8153 19.4007 42.6215 19.3222 44.3521 19.1679C43.491 13.5359 41.3987 9.55871 38.9557 9.55871C36.5127 9.55871 34.4203 13.5359 33.5593 19.1707C35.2898 19.3222 37.0961 19.4007 38.9585 19.4007H38.9529ZM38.9529 40.2655C42.0802 40.2655 44.6298 33.7584 44.7672 25.5993L44.784 25.6049C42.8992 25.7788 40.9499 25.8713 38.9557 25.8713C36.9615 25.8713 35.0093 25.7816 33.1273 25.6049L33.1442 25.5993C33.2788 33.7612 35.8283 40.2655 38.9557 40.2655H38.9529Z" fill="#696665"/>
</svg>