<svg width="263" height="214" viewBox="0 0 263 214" fill="none" xmlns="http://www.w3.org/2000/svg">
<g clip-path="url(#clip0_2108_25827)">
<path d="M184 192.212C205.338 192.212 222.635 189.207 222.635 185.501C222.635 181.794 205.338 178.789 184 178.789C162.663 178.789 145.365 181.794 145.365 185.501C145.365 189.207 162.663 192.212 184 192.212Z" stroke="white" stroke-width="0.320841" stroke-miterlimit="10"/>
<path d="M221.793 193.538C222.563 189.913 206.268 183.375 185.396 178.936C164.525 174.496 146.981 173.837 146.211 177.462C145.441 181.088 161.736 187.626 182.607 192.065C203.479 196.505 221.022 197.164 221.793 193.538Z" stroke="white" stroke-width="0.320841" stroke-miterlimit="10"/>
<path d="M219.294 201.227C220.801 197.84 206.22 188.055 186.728 179.371C167.235 170.686 150.211 166.391 148.705 169.777C147.198 173.164 161.779 182.949 181.271 191.633C200.764 200.318 217.788 204.613 219.294 201.227Z" stroke="white" stroke-width="0.320841" stroke-miterlimit="10"/>
<path d="M215.256 208.227C217.433 205.228 205.204 192.623 187.942 180.073C170.679 167.523 154.92 159.78 152.743 162.779C150.566 165.778 162.795 178.382 180.057 190.933C197.32 203.483 213.079 211.226 215.256 208.227Z" stroke="white" stroke-width="0.320841" stroke-miterlimit="10"/>
<path d="M209.85 214.233C212.603 211.753 203.26 196.88 188.983 181.012C174.705 165.145 160.899 154.293 158.146 156.773C155.394 159.253 164.736 174.127 179.014 189.994C193.292 205.861 207.098 216.714 209.85 214.233Z" stroke="white" stroke-width="0.320841" stroke-miterlimit="10"/>
<path d="M203.317 218.982C206.525 217.129 200.476 200.636 189.808 182.145C179.139 163.654 167.89 150.167 164.682 152.02C161.474 153.874 167.522 170.366 178.191 188.857C188.859 207.348 200.109 220.835 203.317 218.982Z" stroke="white" stroke-width="0.320841" stroke-miterlimit="10"/>
<path d="M172.064 148.732C180.45 146.006 174.901 179.183 177.625 187.575C180.349 195.967 204.327 219.543 195.94 222.272C187.554 224.998 193.103 191.821 190.379 183.429C187.655 175.037 163.677 151.461 172.064 148.732Z" stroke="white" stroke-width="0.320841" stroke-miterlimit="10"/>
<path d="M179.96 147.052C188.731 146.13 176.41 177.428 177.331 186.204C178.252 194.98 196.808 223.031 188.038 223.953C179.267 224.874 191.588 193.576 190.667 184.8C189.746 176.024 171.19 147.973 179.96 147.052Z" stroke="white" stroke-width="0.320841" stroke-miterlimit="10"/>
<path d="M188.038 147.052C196.808 147.973 178.252 176.024 177.331 184.8C176.41 193.576 188.731 224.874 179.96 223.953C171.19 223.031 189.746 194.98 190.667 186.204C191.588 177.428 179.267 146.13 188.038 147.052Z" stroke="white" stroke-width="0.320841" stroke-miterlimit="10"/>
<path d="M190.377 187.575C196.972 167.266 199.461 149.875 195.938 148.729C192.415 147.584 184.214 163.119 177.62 183.427C171.025 203.735 168.536 221.127 172.059 222.272C175.581 223.418 183.783 207.883 190.377 187.575Z" stroke="white" stroke-width="0.320841" stroke-miterlimit="10"/>
<path d="M189.81 188.859C200.478 170.368 206.527 153.876 203.319 152.023C200.111 150.169 188.861 163.657 178.193 182.148C167.524 200.639 161.476 217.131 164.684 218.985C167.891 220.838 179.141 207.35 189.81 188.859Z" stroke="white" stroke-width="0.320841" stroke-miterlimit="10"/>
<path d="M188.985 189.991C203.262 174.124 212.605 159.25 209.852 156.77C207.099 154.29 193.294 165.142 179.016 181.009C164.738 196.877 155.396 211.75 158.148 214.231C160.901 216.711 174.707 205.858 188.985 189.991Z" stroke="white" stroke-width="0.320841" stroke-miterlimit="10"/>
<path d="M187.942 190.932C205.204 178.382 217.433 165.777 215.256 162.778C213.079 159.779 197.32 167.522 180.057 180.072C162.795 192.622 150.566 205.227 152.743 208.226C154.92 211.225 170.679 203.482 187.942 190.932Z" stroke="white" stroke-width="0.320841" stroke-miterlimit="10"/>
<path d="M219.299 169.775C222.885 177.835 189.33 175.783 181.276 179.372C173.221 182.961 152.293 209.289 148.707 201.226C145.12 193.166 178.676 195.218 186.73 191.629C194.784 188.041 215.713 161.712 219.299 169.775Z" stroke="white" stroke-width="0.320841" stroke-miterlimit="10"/>
<path d="M185.394 192.065C206.266 187.626 222.561 181.088 221.791 177.462C221.02 173.836 203.477 174.496 182.605 178.935C161.734 183.374 145.439 189.912 146.209 193.538C146.979 197.164 164.523 196.504 185.394 192.065Z" stroke="white" stroke-width="0.320841" stroke-miterlimit="10"/>
<path d="M184 192.212C205.338 192.212 222.635 189.207 222.635 185.501C222.635 181.794 205.338 178.789 184 178.789C162.663 178.789 145.365 181.794 145.365 185.501C145.365 189.207 162.663 192.212 184 192.212Z" stroke="white" stroke-width="0.320841" stroke-miterlimit="10"/>
<path d="M212.825 135.54C205.113 131.085 210.72 110.143 201.813 110.143C192.906 110.143 192.906 137.363 184.002 137.363C175.098 137.363 175.095 110.143 166.188 110.143C157.281 110.143 162.888 131.082 155.172 135.54C147.459 139.994 132.141 124.666 127.686 132.384C123.234 140.102 146.792 153.711 142.337 161.428C137.882 169.146 114.327 155.537 109.872 163.255C105.417 170.973 126.346 176.584 126.346 185.5C126.346 194.413 105.42 200.024 109.872 207.741C114.324 215.459 137.882 201.851 142.337 209.568C146.792 217.286 123.234 230.898 127.686 238.616C132.141 246.334 147.459 231.005 155.172 235.464C162.885 239.918 157.278 260.861 166.185 260.861C175.092 260.861 175.092 233.64 183.996 233.64C192.899 233.64 192.903 260.861 201.81 260.861C210.717 260.861 205.109 239.922 212.825 235.464C220.538 231.009 235.856 246.337 240.311 238.619C244.763 230.901 221.205 217.293 225.66 209.575C230.116 201.857 253.67 215.466 258.125 207.748C262.58 200.03 241.652 194.419 241.652 185.503C241.652 176.59 262.577 170.979 258.125 163.262C253.673 155.544 230.116 169.153 225.66 161.435C221.205 153.717 244.168 134.732 237.431 128.9C231.248 123.546 220.538 139.998 212.825 135.54Z" stroke="white" stroke-width="0.30159" stroke-miterlimit="10"/>
<path d="M211.194 138.366C203.918 134.162 209.209 114.409 200.807 114.409C192.404 114.409 192.404 140.089 184.001 140.089C175.599 140.089 175.599 114.409 167.196 114.409C158.793 114.409 164.082 134.162 156.805 138.366C149.528 142.57 135.076 128.109 130.875 135.39C126.673 142.671 148.897 155.512 144.696 162.793C140.494 170.074 118.271 157.234 114.07 164.519C109.868 171.8 129.609 177.095 129.609 185.503C129.609 193.911 109.868 199.203 114.066 206.485C118.268 213.766 140.491 200.926 144.693 208.207C148.894 215.489 126.67 228.329 130.872 235.61C135.073 242.892 149.525 228.43 156.802 232.634C164.078 236.838 158.787 256.591 167.19 256.591C175.592 256.591 175.592 230.911 183.995 230.911C192.397 230.911 192.397 256.591 200.8 256.591C209.203 256.591 203.914 236.838 211.191 232.634C218.468 228.43 232.92 242.892 237.121 235.61C241.323 228.329 219.099 215.489 223.3 208.207C227.502 200.926 249.725 213.766 253.927 206.481C258.128 199.2 238.387 193.905 238.387 185.497C238.387 177.089 258.128 171.797 253.93 164.516C249.728 157.234 227.505 170.074 223.304 162.793C219.102 155.512 240.763 137.601 234.407 132.098C228.575 127.047 218.471 142.567 211.194 138.363V138.366Z" stroke="white" stroke-width="0.30159" stroke-miterlimit="10"/>
<path d="M209.655 141.037C202.792 137.07 207.781 118.434 199.856 118.434C191.932 118.434 191.929 142.658 184.005 142.658C176.08 142.658 176.077 118.434 168.15 118.434C160.222 118.434 165.211 137.07 158.348 141.037C151.484 145.003 137.849 131.358 133.885 138.23C129.921 145.097 150.889 157.211 146.925 164.079C142.961 170.95 121.994 158.836 118.03 165.707C114.066 172.578 132.691 177.571 132.691 185.503C132.691 193.436 114.066 198.428 118.03 205.296C121.994 212.164 142.958 200.053 146.922 206.921C150.886 213.792 129.918 225.903 133.882 232.774C137.846 239.645 151.481 226 158.344 229.967C165.208 233.933 160.219 252.57 168.143 252.57C176.067 252.57 176.071 228.345 183.995 228.345C191.919 228.345 191.922 252.57 199.85 252.57C207.777 252.57 202.788 233.933 209.652 229.967C216.515 226 230.151 239.645 234.114 232.774C238.078 225.906 217.111 213.792 221.074 206.924C225.038 200.053 246.006 212.167 249.969 205.296C253.933 198.425 235.309 193.433 235.309 185.5C235.309 177.567 253.933 172.575 249.969 165.707C246.006 158.84 225.041 170.95 221.078 164.082C217.114 157.211 237.548 140.317 231.553 135.126C226.05 130.362 216.518 145.003 209.652 141.037H209.655Z" stroke="white" stroke-width="0.30159" stroke-miterlimit="10"/>
<path d="M208.203 143.55C201.727 139.809 206.436 122.227 198.958 122.227C191.479 122.227 191.479 145.081 184.001 145.081C176.523 145.081 176.523 122.227 169.044 122.227C161.566 122.227 166.275 139.809 159.795 143.55C153.319 147.292 140.458 134.419 136.719 140.899C132.98 147.38 152.76 158.807 149.02 165.287C145.281 171.767 125.502 160.34 121.762 166.821C118.023 173.301 135.593 178.013 135.593 185.496C135.593 192.98 118.023 197.689 121.762 204.169C125.502 210.649 145.281 199.222 149.02 205.703C152.76 212.183 132.98 223.61 136.719 230.09C140.458 236.571 153.323 223.701 159.799 227.443C166.275 231.184 161.566 248.766 169.044 248.766C176.523 248.766 176.523 225.912 184.001 225.912C191.479 225.912 191.479 248.766 198.958 248.766C206.436 248.766 201.727 231.184 208.206 227.443C214.683 223.701 227.544 236.574 231.283 230.093C235.022 223.613 215.242 212.186 218.981 205.706C222.721 199.226 242.5 210.652 246.239 204.172C249.979 197.692 232.409 192.98 232.409 185.496C232.409 178.013 249.979 173.304 246.239 166.824C242.5 160.344 222.721 171.771 218.981 165.29C215.242 158.81 234.521 142.87 228.865 137.972C223.674 133.478 214.679 147.289 208.203 143.547V143.55Z" stroke="white" stroke-width="0.30159" stroke-miterlimit="10"/>
<path d="M206.833 145.928C200.725 142.398 205.167 125.812 198.112 125.812C191.056 125.812 191.056 147.373 184.004 147.373C176.952 147.373 176.949 125.812 169.894 125.812C162.838 125.812 167.28 142.401 161.169 145.928C155.06 149.458 142.925 137.314 139.397 143.427C135.87 149.539 154.53 160.321 151.002 166.433C147.475 172.549 128.814 161.767 125.287 167.882C121.759 173.998 138.333 178.44 138.333 185.5C138.333 192.56 121.756 197.002 125.284 203.117C128.811 209.23 147.471 198.451 150.999 204.563C154.527 210.679 135.867 221.457 139.394 227.573C142.922 233.689 155.057 221.545 161.166 225.075C167.274 228.605 162.832 245.19 169.887 245.19C176.942 245.19 176.942 223.63 183.994 223.63C191.047 223.63 191.05 245.19 198.105 245.19C205.16 245.19 200.718 228.602 206.83 225.075C212.938 221.545 225.074 233.689 228.601 227.576C232.129 221.464 213.469 210.682 216.996 204.57C220.524 198.454 239.184 209.236 242.712 203.12C246.24 197.005 229.665 192.563 229.665 185.503C229.665 178.443 246.243 174.001 242.715 167.886C239.187 161.773 220.527 172.552 217 166.44C213.472 160.324 231.657 145.289 226.323 140.668C221.425 136.429 212.942 149.458 206.833 145.928Z" stroke="white" stroke-width="0.30159" stroke-miterlimit="10"/>
<path d="M205.539 148.168C199.776 144.837 203.967 129.189 197.309 129.189C190.651 129.189 190.654 149.529 183.999 149.529C177.344 149.529 177.344 129.189 170.686 129.189C164.027 129.189 168.219 144.837 162.455 148.168C156.692 151.496 145.243 140.043 141.918 145.81C138.588 151.577 156.194 161.747 152.865 167.515C149.536 173.282 131.933 163.112 128.604 168.879C125.275 174.646 140.915 178.84 140.912 185.5C140.912 192.159 125.275 196.354 128.601 202.121C131.93 207.888 149.533 197.718 152.858 203.485C156.188 209.252 138.582 219.422 141.911 225.193C145.24 230.96 156.686 219.507 162.452 222.835C168.216 226.166 164.024 241.814 170.679 241.814C177.334 241.814 177.334 221.474 183.989 221.474C190.644 221.474 190.644 241.814 197.303 241.814C203.961 241.814 199.769 226.166 205.533 222.835C211.296 219.507 222.745 230.96 226.071 225.193C229.4 219.425 211.794 209.256 215.123 203.488C218.452 197.721 236.055 207.891 239.384 202.124C242.713 196.357 227.073 192.163 227.076 185.503C227.076 178.844 242.713 174.649 239.387 168.882C236.058 163.115 218.455 173.285 215.13 167.518C211.8 161.751 228.96 147.562 223.926 143.205C219.305 139.206 211.303 151.499 205.539 148.168Z" stroke="white" stroke-width="0.30159" stroke-miterlimit="10"/>
<path d="M204.322 150.278C198.884 147.135 202.838 132.374 196.56 132.374C190.283 132.374 190.283 151.564 184.005 151.564C177.728 151.564 177.724 132.374 171.447 132.374C165.169 132.374 169.12 147.135 163.682 150.278C158.244 153.42 147.446 142.612 144.306 148.054C141.166 153.495 157.776 163.089 154.635 168.53C151.495 173.972 134.888 164.378 131.748 169.82C128.607 175.261 143.359 179.218 143.359 185.5C143.359 191.781 128.607 195.738 131.744 201.179C134.885 206.621 151.492 197.024 154.629 202.466C157.769 207.907 141.162 217.501 144.3 222.942C147.44 228.384 158.238 217.579 163.676 220.718C169.114 223.861 165.16 238.622 171.437 238.622C177.715 238.622 177.715 219.432 183.992 219.432C190.27 219.432 190.273 238.622 196.551 238.622C202.828 238.622 198.877 223.861 204.315 220.718C209.753 217.576 220.551 228.384 223.692 222.942C226.832 217.501 210.222 207.907 213.362 202.466C216.503 197.024 233.109 206.618 236.25 201.176C239.39 195.735 224.639 191.778 224.639 185.496C224.639 179.215 239.39 175.258 236.253 169.817C233.113 164.375 216.506 173.972 213.369 168.53C210.228 163.089 226.415 149.705 221.667 145.595C217.31 141.821 209.76 153.417 204.322 150.278Z" stroke="white" stroke-width="0.30159" stroke-miterlimit="10"/>
<path d="M203.17 152.274C198.042 149.311 201.771 135.383 195.848 135.383C189.925 135.383 189.925 153.486 184.003 153.486C178.08 153.486 178.08 135.383 172.154 135.383C166.228 135.383 169.96 149.311 164.828 152.274C159.699 155.238 149.51 145.042 146.549 150.177C143.587 155.309 159.254 164.362 156.292 169.495C153.331 174.627 137.665 165.577 134.7 170.709C131.738 175.841 145.654 179.573 145.654 185.503C145.654 191.43 131.735 195.162 134.697 200.294C137.658 205.426 153.324 196.376 156.286 201.509C159.247 206.641 143.581 215.694 146.542 220.826C149.504 225.958 159.693 215.765 164.822 218.729C169.951 221.692 166.221 235.62 172.144 235.62C178.067 235.62 178.067 217.517 183.99 217.517C189.912 217.517 189.912 235.62 195.839 235.62C201.765 235.62 198.032 221.692 203.164 218.729C208.293 215.765 218.482 225.961 221.443 220.826C224.405 215.694 208.739 206.641 211.7 201.509C214.661 196.376 230.328 205.426 233.292 200.294C236.254 195.162 222.338 191.43 222.338 185.5C222.338 179.573 236.257 175.841 233.296 170.709C230.334 165.577 214.668 174.627 211.706 169.495C208.745 164.362 224.014 151.734 219.533 147.855C215.423 144.296 208.299 155.235 203.167 152.271L203.17 152.274Z" stroke="white" stroke-width="0.30159" stroke-miterlimit="10"/>
<path d="M202.085 154.153C197.246 151.356 200.764 138.22 195.177 138.22C189.589 138.22 189.589 155.297 184.001 155.297C178.414 155.297 178.414 138.22 172.823 138.22C167.232 138.22 170.753 151.359 165.914 154.153C161.075 156.951 151.465 147.331 148.669 152.174C145.874 157.016 160.655 165.554 157.863 170.397C155.067 175.239 140.289 166.701 137.494 171.543C134.699 176.385 147.83 179.905 147.83 185.5C147.83 191.091 134.699 194.612 137.494 199.454C140.286 204.296 155.067 195.758 157.863 200.6C160.658 205.442 145.877 213.981 148.669 218.826C151.465 223.669 161.075 214.053 165.914 216.847C170.753 219.644 167.235 232.78 172.823 232.78C178.41 232.78 178.41 215.704 183.998 215.704C189.586 215.704 189.586 232.78 195.177 232.78C200.767 232.78 197.246 219.641 202.085 216.847C206.925 214.053 216.535 223.669 219.33 218.826C222.125 213.984 207.344 205.446 210.137 200.603C212.932 195.761 227.71 204.299 230.505 199.457C233.301 194.615 220.17 191.095 220.17 185.5C220.17 179.909 233.301 176.388 230.505 171.546C227.71 166.704 212.932 175.242 210.137 170.4C207.341 165.558 221.748 153.645 217.521 149.989C213.641 146.631 206.921 156.951 202.082 154.153H202.085Z" stroke="white" stroke-width="0.30159" stroke-miterlimit="10"/>
<path d="M201.061 155.928C196.495 153.29 199.814 140.896 194.542 140.896C189.27 140.896 189.27 157.009 183.998 157.009C178.727 157.009 178.727 140.896 173.455 140.896C168.183 140.896 171.502 153.29 166.936 155.928C162.37 158.566 153.304 149.493 150.668 154.059C148.032 158.628 161.977 166.684 159.341 171.25C156.705 175.819 142.76 167.762 140.124 172.331C137.488 176.9 149.874 180.221 149.874 185.497C149.874 190.772 137.488 194.094 140.124 198.663C142.76 203.231 156.705 195.175 159.341 199.744C161.977 204.312 148.032 212.369 150.668 216.938C153.304 221.506 162.37 212.434 166.936 215.072C171.502 217.709 168.183 230.103 173.455 230.103C178.727 230.103 178.727 213.991 183.998 213.991C189.27 213.991 189.27 230.103 194.542 230.103C199.814 230.103 196.495 217.709 201.061 215.072C205.627 212.434 214.693 221.506 217.329 216.941C219.965 212.372 206.02 204.316 208.656 199.75C211.292 195.181 225.237 203.238 227.873 198.669C230.509 194.1 218.123 190.779 218.123 185.503C218.123 180.228 230.509 176.906 227.873 172.337C225.237 167.769 211.292 175.825 208.656 171.256C206.02 166.688 219.61 155.45 215.624 151.998C211.966 148.829 205.623 158.566 201.058 155.928H201.061Z" stroke="white" stroke-width="0.30159" stroke-miterlimit="10"/>
<path d="M200.097 157.602C195.792 155.114 198.923 143.42 193.95 143.42C188.977 143.42 188.977 158.621 184.005 158.621C179.032 158.621 179.032 143.42 174.056 143.42C169.081 143.42 172.215 155.114 167.906 157.602C163.6 160.09 155.045 151.528 152.559 155.84C150.072 160.148 163.226 167.749 160.74 172.06C158.254 176.372 145.1 168.771 142.61 173.08C140.124 177.391 151.81 180.524 151.807 185.5C151.807 190.476 140.121 193.608 142.607 197.92C145.093 202.228 158.247 194.631 160.733 198.939C163.22 203.251 150.066 210.848 152.552 215.159C155.038 219.471 163.594 210.91 167.899 213.398C172.205 215.886 169.074 227.579 174.047 227.579C179.019 227.579 179.019 212.382 183.992 212.382C188.964 212.382 188.964 227.579 193.94 227.579C198.916 227.579 195.782 215.886 200.091 213.398C204.396 210.91 212.952 219.471 215.438 215.159C217.924 210.851 204.771 203.251 207.257 198.939C209.743 194.627 222.897 202.228 225.387 197.92C227.873 193.608 216.187 190.476 216.19 185.5C216.19 180.524 227.876 177.391 225.39 173.08C222.904 168.771 209.75 176.369 207.263 172.06C204.777 167.749 217.596 157.149 213.837 153.893C210.384 150.903 204.403 160.09 200.097 157.602Z" stroke="white" stroke-width="0.30159" stroke-miterlimit="10"/>
<path d="M199.187 159.181C195.122 156.833 198.077 145.804 193.388 145.804C188.698 145.804 188.695 160.142 184.005 160.142C179.316 160.142 179.313 145.804 174.62 145.804C169.927 145.804 172.882 156.833 168.818 159.181C164.753 161.529 156.686 153.453 154.339 157.52C151.993 161.584 164.405 168.755 162.058 172.822C159.712 176.89 147.303 169.719 144.957 173.786C142.611 177.854 153.636 180.807 153.633 185.503C153.633 190.199 142.611 193.152 144.954 197.22C147.3 201.287 159.709 194.116 162.055 198.18C164.402 202.248 151.993 209.415 154.336 213.482C156.682 217.55 164.753 209.474 168.814 211.822C172.879 214.169 169.924 225.199 174.614 225.199C179.303 225.199 179.306 210.861 183.996 210.861C188.685 210.861 188.688 225.199 193.381 225.199C198.074 225.199 195.119 214.169 199.184 211.822C203.248 209.474 211.316 217.55 213.662 213.482C216.008 209.415 203.596 202.248 205.943 198.18C208.289 194.113 220.698 201.284 223.044 197.216C225.39 193.149 214.365 190.196 214.368 185.5C214.368 180.804 225.39 177.85 223.047 173.783C220.701 169.716 208.292 176.886 205.946 172.822C203.6 168.755 215.696 158.755 212.145 155.684C208.888 152.864 203.245 161.529 199.184 159.181H199.187Z" stroke="white" stroke-width="0.30159" stroke-miterlimit="10"/>
<path d="M198.325 160.669C194.491 158.455 197.277 148.047 192.851 148.047C188.425 148.047 188.425 161.575 183.999 161.575C179.573 161.575 179.573 148.047 175.148 148.047C170.722 148.047 173.507 158.455 169.674 160.669C165.84 162.884 158.228 155.267 156.015 159.1C153.803 162.936 165.508 169.699 163.295 173.536C161.082 177.372 149.373 170.608 147.161 174.444C144.948 178.28 155.348 181.068 155.348 185.5C155.348 189.928 144.948 192.716 147.161 196.552C149.373 200.388 161.082 193.625 163.295 197.461C165.508 201.297 153.803 208.06 156.015 211.896C158.228 215.733 165.843 208.116 169.677 210.33C173.511 212.544 170.725 222.952 175.151 222.952C179.577 222.952 179.577 209.425 184.002 209.425C188.428 209.425 188.428 222.952 192.854 222.952C197.28 222.952 194.494 212.544 198.328 210.33C202.162 208.116 209.773 215.733 211.986 211.9C214.199 208.064 202.49 201.3 204.706 197.464C206.919 193.628 218.628 200.391 220.841 196.555C223.054 192.719 212.653 189.932 212.653 185.5C212.653 181.071 223.054 178.283 220.841 174.447C218.628 170.611 206.919 177.375 204.706 173.539C202.493 169.703 213.903 160.269 210.558 157.371C207.486 154.71 202.162 162.887 198.328 160.669H198.325Z" stroke="white" stroke-width="0.30159" stroke-miterlimit="10"/>
<path d="M197.513 162.076C193.898 159.986 196.527 150.171 192.352 150.171C188.177 150.171 188.177 162.933 184.002 162.933C179.826 162.933 179.826 150.171 175.651 150.171C171.476 150.171 174.105 159.989 170.487 162.076C166.871 164.167 159.689 156.977 157.599 160.598C155.51 164.216 166.555 170.599 164.469 174.216C162.38 177.834 151.338 171.455 149.249 175.073C147.16 178.691 156.971 181.322 156.971 185.5C156.971 189.678 147.16 192.309 149.249 195.927C151.338 199.545 162.38 193.166 164.469 196.784C166.559 200.402 155.513 206.784 157.599 210.402C159.689 214.02 166.871 206.833 170.487 208.924C174.102 211.014 171.473 220.829 175.648 220.829C179.823 220.829 179.823 208.067 183.998 208.067C188.174 208.067 188.174 220.829 192.349 220.829C196.524 220.829 193.895 211.011 197.513 208.924C201.129 206.833 208.311 214.023 210.401 210.402C212.49 206.784 201.445 200.402 203.531 196.784C205.62 193.166 216.665 199.545 218.751 195.927C220.84 192.309 211.029 189.678 211.029 185.5C211.029 181.322 220.84 178.691 218.751 175.073C216.662 171.455 205.62 177.834 203.531 174.216C201.441 170.599 212.207 161.695 209.05 158.963C206.15 156.453 201.129 164.167 197.513 162.076Z" stroke="white" stroke-width="0.30159" stroke-miterlimit="10"/>
<path d="M196.748 163.402C193.337 161.432 195.817 152.17 191.876 152.17C187.935 152.17 187.938 164.209 183.998 164.209C180.057 164.209 180.057 152.17 176.119 152.17C172.181 152.17 174.658 161.432 171.247 163.402C167.837 165.372 161.061 158.592 159.089 162.005C157.12 165.418 167.54 171.439 165.568 174.852C163.6 178.264 153.179 172.246 151.21 175.659C149.242 179.072 158.497 181.557 158.497 185.497C158.497 189.437 149.242 191.922 151.21 195.335C153.179 198.747 163.6 192.729 165.568 196.142C167.537 199.555 157.12 205.576 159.089 208.989C161.058 212.402 167.833 205.622 171.247 207.595C174.658 209.565 172.178 218.827 176.119 218.827C180.06 218.827 180.057 206.787 183.998 206.787C187.938 206.787 187.938 218.827 191.876 218.827C195.814 218.827 193.337 209.565 196.748 207.595C200.158 205.625 206.934 212.405 208.906 208.992C210.875 205.579 200.455 199.558 202.427 196.145C204.395 192.733 214.816 198.751 216.785 195.338C218.753 191.925 209.498 189.44 209.498 185.5C209.498 181.56 218.753 179.075 216.785 175.662C214.816 172.25 204.395 178.268 202.427 174.855C200.458 171.442 210.611 163.044 207.634 160.465C204.9 158.097 200.162 165.372 196.751 163.402H196.748Z" stroke="white" stroke-width="0.30159" stroke-miterlimit="10"/>
<path d="M196.027 164.652C192.808 162.793 195.148 154.056 191.432 154.056C187.715 154.056 187.715 165.414 183.999 165.414C180.283 165.414 180.283 154.056 176.566 154.056C172.85 154.056 175.19 162.793 171.971 164.652C168.753 166.512 162.361 160.116 160.503 163.337C158.645 166.557 168.476 172.236 166.618 175.457C164.759 178.678 154.928 172.998 153.07 176.219C151.212 179.44 159.943 181.781 159.943 185.5C159.943 189.219 151.212 191.56 153.07 194.781C154.928 198.001 164.756 192.322 166.614 195.543C168.473 198.763 158.645 204.443 160.503 207.663C162.361 210.884 168.753 204.488 171.971 206.348C175.19 208.207 172.85 216.944 176.566 216.944C180.283 216.944 180.283 205.586 183.999 205.586C187.715 205.586 187.715 216.944 191.432 216.944C195.148 216.944 192.808 208.207 196.027 206.348C199.245 204.488 205.637 210.884 207.495 207.663C209.353 204.443 199.522 198.763 201.38 195.543C203.238 192.322 213.07 198.001 214.928 194.781C216.786 191.56 208.055 189.219 208.055 185.5C208.055 181.781 216.786 179.44 214.928 176.219C213.07 172.998 203.238 178.678 201.383 175.457C199.525 172.236 209.106 164.313 206.294 161.881C203.714 159.647 199.245 166.512 196.027 164.652Z" stroke="white" stroke-width="0.30159" stroke-miterlimit="10"/>
<path d="M254.9 62.6184C235.928 51.6572 249.72 0.15332 227.815 0.15332C205.91 0.15332 205.91 67.1025 184.005 67.1025C162.101 67.1025 162.097 0.15332 140.19 0.15332C118.282 0.15332 132.073 51.6572 113.101 62.6184C94.1281 73.5763 56.453 35.8732 45.499 54.8583C34.545 73.8401 92.4879 107.316 81.5372 126.298C70.5832 145.283 12.6403 111.81 1.68632 130.795C-9.26767 149.78 42.2024 163.581 42.2024 185.504C42.2024 207.423 -9.26767 221.223 1.68306 240.205C12.6371 259.187 70.5767 225.714 81.5307 244.696C92.4847 263.681 34.5418 297.157 45.4958 316.142C56.4498 335.127 94.1281 297.424 113.101 308.385C132.07 319.347 118.278 370.85 140.183 370.85C162.088 370.85 162.088 303.901 183.992 303.901C205.897 303.901 205.9 370.85 227.808 370.85C249.716 370.85 235.925 319.347 254.897 308.385C273.87 297.427 311.545 335.131 322.499 316.146C333.453 297.164 275.51 263.687 286.461 244.706C297.415 225.721 355.358 259.194 366.312 240.209C377.266 221.223 325.796 207.423 325.796 185.5C325.796 163.581 377.266 149.78 366.315 130.799C355.361 111.817 297.421 145.29 286.467 126.308C275.513 107.323 331.985 60.6287 315.418 46.2841C300.213 33.1183 273.867 73.5796 254.894 62.6184H254.9Z" stroke="white" stroke-width="0.30159" stroke-miterlimit="10"/>
<path d="M250.883 69.5741C232.988 59.2349 245.999 10.6455 225.334 10.6455C204.669 10.6455 204.669 73.8042 184.004 73.8042C163.339 73.8042 163.336 10.6455 142.668 10.6455C122 10.6455 135.011 59.2349 117.112 69.5741C99.2133 79.9133 63.6698 44.3432 53.3374 62.2536C43.005 80.1608 97.6675 111.742 87.3351 129.649C77.0027 147.559 22.3401 115.978 12.0045 133.889C1.67205 151.799 50.2263 164.819 50.2263 185.5C50.2263 206.179 1.66879 219.198 12.0012 237.105C22.3336 255.012 76.9962 223.434 87.3286 241.342C97.661 259.252 43.0017 290.833 53.3341 308.744C63.6665 326.654 99.2133 291.084 117.112 301.426C135.007 311.765 121.997 360.355 142.662 360.355C163.326 360.355 163.326 297.196 183.991 297.196C204.656 297.196 204.659 360.355 225.327 360.355C245.995 360.355 232.985 311.765 250.883 301.426C268.782 291.087 304.326 326.657 314.658 308.747C324.99 290.84 270.328 259.259 280.66 241.351C290.993 223.441 345.655 255.022 355.991 237.112C366.323 219.201 317.769 206.182 317.769 185.5C317.769 164.822 366.327 151.803 355.994 133.895C345.662 115.988 290.999 147.566 280.667 129.659C270.334 111.748 323.607 67.6984 307.98 54.1646C293.635 41.7445 268.782 79.9166 250.883 69.5741Z" stroke="white" stroke-width="0.30159" stroke-miterlimit="10"/>
<path d="M247.1 76.136C230.216 66.3797 242.491 20.542 222.995 20.542C203.498 20.542 203.498 80.1251 184.005 80.1251C164.512 80.1251 164.509 20.542 145.009 20.542C125.509 20.542 137.784 66.3797 120.898 76.136C104.014 85.889 70.4787 52.3346 60.7321 69.2291C50.9854 86.1235 102.553 115.917 92.8032 132.811C83.0534 149.709 31.4856 119.916 21.739 136.813C11.9891 153.711 57.7999 165.994 57.7967 185.504C57.7967 205.013 11.9891 217.293 21.7358 234.187C31.4824 251.082 83.0501 221.289 92.8 238.183C102.55 255.081 50.9822 284.871 60.7288 301.768C70.4787 318.666 104.011 285.108 120.898 294.865C137.781 304.621 125.506 350.459 145.002 350.459C164.499 350.459 164.499 290.876 183.992 290.876C203.485 290.876 203.489 350.459 222.988 350.459C242.488 350.459 230.213 304.621 247.1 294.865C263.983 285.112 297.518 318.666 307.265 301.772C317.012 284.877 265.444 255.084 275.194 238.19C284.944 221.292 336.512 251.085 346.258 234.187C356.008 217.29 310.197 205.006 310.201 185.497C310.201 165.988 356.008 153.708 346.261 136.813C336.515 119.919 284.947 149.712 275.197 132.818C265.447 115.92 315.707 74.3645 300.965 61.5992C287.433 49.8825 263.986 85.8923 247.1 76.136Z" stroke="white" stroke-width="0.30159" stroke-miterlimit="10"/>
<path d="M243.528 82.3264C227.602 73.1236 239.181 29.8813 220.787 29.8813C202.394 29.8813 202.394 86.0941 184.004 86.0941C165.614 86.0941 165.611 29.8813 147.214 29.8813C128.817 29.8813 140.4 73.1269 124.47 82.3296C108.54 91.5323 76.9048 59.8732 67.7114 75.8135C58.5147 91.7505 107.163 119.857 97.9699 135.797C88.7733 151.737 40.1247 123.631 30.928 139.571C21.7313 155.512 64.9452 167.098 64.9452 185.507C64.9452 203.912 21.7281 215.499 30.9247 231.436C40.1214 247.373 88.77 219.266 97.9667 235.207C107.163 251.147 58.5147 279.253 67.7114 295.194C76.9081 311.134 108.546 279.478 124.476 288.681C140.403 297.883 128.824 341.126 147.217 341.126C165.611 341.126 165.611 284.913 184.001 284.913C202.391 284.913 202.394 341.126 220.791 341.126C239.187 341.126 227.605 297.88 243.535 288.677C259.465 279.475 291.1 311.134 300.293 295.194C309.49 279.256 260.841 251.15 270.035 235.21C279.231 219.27 327.88 247.376 337.077 231.436C346.273 215.495 303.059 203.909 303.059 185.5C303.059 167.095 346.277 155.508 337.08 139.571C327.883 123.634 279.235 151.741 270.038 135.8C260.841 119.86 308.257 80.6558 294.344 68.6102C281.578 57.5579 259.458 91.5291 243.528 82.3231V82.3264Z" stroke="white" stroke-width="0.30159" stroke-miterlimit="10"/>
<path d="M240.157 88.1654C225.132 79.4837 236.057 38.687 218.705 38.687C201.353 38.687 201.353 91.7182 184.004 91.7182C166.655 91.7182 166.652 38.687 149.297 38.687C131.942 38.687 142.866 79.4837 127.838 88.1654C112.81 96.8471 82.9676 66.9822 74.2916 82.0172C65.6156 97.0522 111.511 123.569 102.835 138.604C94.1591 153.643 48.2637 127.129 39.5877 142.167C30.9117 157.205 71.6817 168.137 71.6784 185.5C71.6784 202.864 30.9085 213.792 39.5845 228.831C48.2604 243.866 94.1559 217.352 102.832 232.387C111.508 247.425 65.6124 273.939 74.2884 288.977C82.9643 304.015 112.81 274.151 127.838 282.832C142.863 291.514 131.938 332.311 149.29 332.311C166.642 332.311 166.642 279.28 183.991 279.28C201.34 279.28 201.343 332.311 218.698 332.311C236.053 332.311 225.129 291.514 240.157 282.832C255.185 274.151 285.027 304.015 293.703 288.98C302.379 273.945 256.484 247.428 265.16 232.393C273.836 217.355 319.731 243.869 328.407 228.831C337.083 213.792 296.313 202.861 296.317 185.497C296.317 168.134 337.086 157.205 328.41 142.167C319.734 127.132 273.839 153.646 265.163 138.611C256.487 123.573 301.218 86.586 288.096 75.2243C276.052 64.7972 255.185 96.8438 240.157 88.1621V88.1654Z" stroke="white" stroke-width="0.30159" stroke-miterlimit="10"/>
<path d="M236.978 93.6749C222.802 85.485 233.109 46.9971 216.74 46.9971C200.371 46.9971 200.371 97.0258 184.001 97.0258C167.632 97.0258 167.632 46.9971 151.26 46.9971C134.887 46.9971 145.194 85.485 131.018 93.6749C116.842 101.865 88.6861 73.6901 80.5015 87.8752C72.3169 102.06 115.615 127.073 107.431 141.258C99.2463 155.446 55.9478 130.43 47.7632 144.619C39.5786 158.807 78.038 169.12 78.038 185.5C78.038 201.88 39.5754 212.193 47.7599 226.378C55.9445 240.563 99.243 215.547 107.424 229.732C115.609 243.921 72.3137 268.933 80.4982 283.122C88.6828 297.31 116.839 269.135 131.018 277.325C145.194 285.515 134.887 324.003 151.257 324.003C167.626 324.003 167.626 273.974 183.995 273.974C200.364 273.974 200.367 324.003 216.736 324.003C233.106 324.003 222.802 285.515 236.981 277.325C251.157 269.135 279.313 297.31 287.498 283.125C295.683 268.94 252.384 243.927 260.569 229.742C268.753 215.554 312.052 240.57 320.236 226.381C328.421 212.193 289.962 201.88 289.962 185.5C289.962 169.12 328.424 158.807 320.24 144.622C312.055 130.437 268.756 155.45 260.575 141.268C252.391 127.08 294.589 92.19 282.21 81.4698C270.849 71.6321 251.16 101.868 236.985 93.6749H236.978Z" stroke="white" stroke-width="0.30159" stroke-miterlimit="10"/>
<path d="M233.982 98.8725C220.61 91.1449 230.331 54.8389 214.889 54.8389C199.447 54.8389 199.447 102.034 184.006 102.034C168.564 102.034 168.561 54.8389 153.116 54.8389C137.671 54.8389 147.395 91.1482 134.019 98.8757C120.644 106.603 94.0826 80.0209 86.3634 93.4049C78.641 106.786 119.489 130.385 111.767 143.766C104.044 157.15 63.1993 133.55 55.4768 146.934C47.7544 160.318 84.0398 170.049 84.0398 185.5C84.0398 200.952 47.7544 210.682 55.4768 224.063C63.1993 237.444 104.044 213.848 111.767 227.228C119.489 240.612 78.641 264.212 86.3634 277.596C94.0859 290.98 120.648 264.401 134.023 272.128C147.395 279.856 137.674 316.162 153.116 316.162C168.557 316.162 168.557 268.966 183.999 268.966C199.441 268.966 199.444 316.162 214.889 316.162C230.334 316.162 220.61 279.853 233.985 272.125C247.36 264.397 273.922 290.98 281.641 277.596C289.364 264.215 248.516 240.616 256.238 227.235C263.961 213.851 304.805 237.45 312.528 224.066C320.25 210.682 283.965 200.952 283.965 185.5C283.965 170.049 320.25 160.318 312.528 146.938C304.805 133.557 263.961 157.153 256.238 143.772C248.516 130.388 288.326 97.4722 276.646 87.361C265.926 78.0801 247.354 106.603 233.979 98.8757L233.982 98.8725Z" stroke="white" stroke-width="0.30159" stroke-miterlimit="10"/>
<path d="M231.149 103.777C218.532 96.4889 227.706 62.2344 213.137 62.2344C198.567 62.2344 198.567 106.76 184.001 106.76C169.435 106.76 169.431 62.2344 154.862 62.2344C140.292 62.2344 149.463 96.4889 136.846 103.777C124.229 111.065 99.1709 85.9901 91.8878 98.6153C84.6046 111.241 123.139 133.502 115.856 146.127C108.569 158.752 70.0351 136.491 62.752 149.116C55.4656 161.741 89.6976 170.921 89.6976 185.501C89.6976 200.08 55.4656 209.256 62.752 221.881C70.0351 234.507 108.569 212.242 115.856 224.868C123.142 237.493 84.6046 259.757 91.891 272.382C99.1774 285.008 124.236 259.933 136.852 267.224C149.469 274.512 140.296 308.767 154.865 308.767C169.435 308.767 169.435 264.241 184.001 264.241C198.567 264.241 198.57 308.767 213.14 308.767C227.709 308.767 218.539 274.512 231.156 267.224C243.773 259.936 268.831 285.011 276.114 272.386C283.397 259.76 244.863 237.499 252.146 224.874C259.432 212.249 297.967 234.51 305.25 221.885C312.536 209.26 278.304 200.08 278.304 185.501C278.304 170.921 312.536 161.745 305.25 149.12C297.967 136.494 259.432 158.759 252.146 146.133C244.86 133.508 282.418 102.451 271.398 92.9133C261.287 84.1568 243.766 111.068 231.146 103.777H231.149Z" stroke="white" stroke-width="0.30159" stroke-miterlimit="10"/>
<path d="M228.481 108.401C216.58 101.523 225.233 69.2095 211.487 69.2095C197.741 69.2095 197.744 111.214 184.001 111.214C170.258 111.214 170.255 69.2095 156.512 69.2095C142.769 69.2095 151.419 101.523 139.515 108.401C127.611 115.278 103.972 91.6203 97.1017 103.532C90.2286 115.441 126.582 136.445 119.713 148.354C112.84 160.266 76.4857 139.262 69.6126 151.174C62.7395 163.086 95.032 171.745 95.032 185.5C95.032 199.252 62.7395 207.911 69.6094 219.82C76.4825 231.729 112.833 210.728 119.706 222.637C126.579 234.549 90.2254 255.55 97.0985 267.462C103.972 279.374 127.611 255.719 139.515 262.597C151.416 269.474 142.763 301.788 156.509 301.788C170.255 301.788 170.252 259.783 183.995 259.783C197.738 259.783 197.741 301.788 211.484 301.788C225.227 301.788 216.577 269.474 228.481 262.597C240.385 255.719 264.025 279.377 270.895 267.465C277.768 255.556 241.414 234.552 248.284 222.643C255.157 210.731 291.511 231.735 298.384 219.823C305.257 207.911 272.964 199.252 272.964 185.497C272.964 171.745 305.257 163.086 298.387 151.177C291.514 139.269 255.163 160.269 248.29 148.361C241.417 136.448 276.85 107.154 266.456 98.1527C256.914 89.8944 240.385 115.278 228.484 108.401H228.481Z" stroke="white" stroke-width="0.30159" stroke-miterlimit="10"/>
<path d="M225.966 112.768C214.739 106.281 222.901 75.7939 209.936 75.7939C196.971 75.7939 196.971 115.422 184.005 115.422C171.037 115.422 171.037 75.7939 158.072 75.7939C145.107 75.7939 153.269 106.281 142.038 112.768C130.811 119.254 108.509 96.938 102.023 108.173C95.5405 119.407 129.834 139.223 123.352 150.458C116.869 161.696 82.5721 141.88 76.0895 153.118C69.6069 164.356 100.07 172.523 100.07 185.5C100.07 198.474 69.6037 206.641 76.0895 217.879C82.5721 229.114 116.869 209.302 123.352 220.536C129.834 231.774 95.5405 251.587 102.023 262.824C108.506 274.062 130.811 251.746 142.038 258.233C153.265 264.72 145.104 295.207 158.069 295.207C171.034 295.207 171.034 255.579 183.999 255.579C196.964 255.579 196.967 295.207 209.933 295.207C222.898 295.207 214.736 264.72 225.966 258.233C237.194 251.746 259.496 274.062 265.981 262.828C272.464 251.593 238.17 231.778 244.653 220.543C251.135 209.305 285.432 229.12 291.915 217.882C298.398 206.644 267.934 198.477 267.934 185.5C267.934 172.527 298.401 164.359 291.915 153.121C285.432 141.887 251.135 161.699 244.653 150.464C238.17 139.226 271.595 111.589 261.79 103.099C252.788 95.3066 237.197 119.254 225.966 112.768Z" stroke="white" stroke-width="0.30159" stroke-miterlimit="10"/>
<path d="M223.589 116.884C212.997 110.765 220.696 82.0039 208.467 82.0039C196.237 82.0039 196.234 119.388 184.004 119.388C171.774 119.388 171.771 82.0039 159.538 82.0039C147.305 82.0039 155.005 110.765 144.412 116.884C133.819 123.003 112.78 101.95 106.662 112.549C100.547 123.149 132.902 141.841 126.783 152.441C120.665 163.04 88.3111 144.348 82.1963 154.951C76.0782 165.551 104.82 173.259 104.82 185.5C104.82 197.741 76.0782 205.446 82.1963 216.046C88.3111 226.645 120.665 207.953 126.783 218.553C132.902 229.153 100.547 247.845 106.662 258.448C112.78 269.047 133.819 247.995 144.412 254.117C155.005 260.236 147.305 288.996 159.535 288.996C171.764 288.996 171.768 251.612 183.997 251.612C196.227 251.612 196.23 288.996 208.463 288.996C220.696 288.996 212.997 260.236 223.589 254.117C234.182 247.998 255.221 269.051 261.339 258.451C267.454 247.851 235.1 229.159 241.218 218.56C247.336 207.96 279.69 226.652 285.805 216.049C291.923 205.449 263.181 197.741 263.181 185.5C263.181 173.259 291.923 165.554 285.805 154.955C279.69 144.355 247.336 163.047 241.218 152.447C235.1 141.848 266.634 115.773 257.385 107.762C248.895 100.413 234.185 123.003 223.589 116.884Z" stroke="white" stroke-width="0.30159" stroke-miterlimit="10"/>
<path d="M221.347 120.769C211.353 114.995 218.62 87.8623 207.08 87.8623C195.541 87.8623 195.541 123.13 184.001 123.13C172.461 123.13 172.461 87.8623 160.918 87.8623C149.375 87.8623 156.642 114.995 146.648 120.769C136.654 126.542 116.806 106.681 111.036 116.679C105.266 126.679 135.788 144.313 130.019 154.313C124.249 164.314 93.7265 146.68 87.9534 156.681C82.1835 166.681 109.298 173.953 109.295 185.5C109.295 197.048 82.1803 204.316 87.9501 214.316C93.72 224.317 124.242 206.683 130.012 216.681C135.782 226.681 105.26 244.315 111.03 254.319C116.8 264.319 136.651 244.458 146.645 250.232C156.639 256.005 149.372 283.138 160.912 283.138C172.451 283.138 172.451 247.871 183.991 247.871C195.531 247.871 195.531 283.138 207.074 283.138C218.617 283.138 211.35 256.005 221.344 250.232C231.338 244.458 251.186 264.319 256.956 254.322C262.726 244.321 232.204 226.688 237.974 216.687C243.743 206.687 274.266 224.32 280.039 214.32C285.809 204.319 258.694 197.048 258.697 185.5C258.697 173.953 285.812 166.684 280.042 156.684C274.272 146.683 243.75 164.317 237.98 154.32C232.21 144.319 261.958 119.72 253.23 112.165C245.221 105.229 231.341 126.546 221.347 120.769Z" stroke="white" stroke-width="0.30159" stroke-miterlimit="10"/>
<path d="M219.236 124.432C209.809 118.984 216.662 93.3887 205.776 93.3887C194.891 93.3887 194.891 126.66 184.005 126.66C173.12 126.66 173.116 93.3887 162.231 93.3887C151.345 93.3887 158.195 118.984 148.768 124.432C139.34 129.88 120.615 111.14 115.17 120.577C109.726 130.011 138.523 146.648 133.079 156.082C127.634 165.516 98.84 148.882 93.3956 158.316C87.9511 167.75 113.53 174.611 113.53 185.504C113.53 196.396 87.9511 203.255 93.3923 212.688C98.8368 222.122 127.631 205.485 133.072 214.919C138.516 224.353 109.719 240.99 115.164 250.424C120.608 259.858 139.333 241.12 148.761 246.568C158.189 252.016 151.335 277.612 162.221 277.612C173.107 277.612 173.106 244.341 183.992 244.341C194.878 244.341 194.881 277.612 205.767 277.612C216.652 277.612 209.802 252.016 219.23 246.568C228.657 241.12 247.383 259.861 252.827 250.424C258.272 240.99 229.474 224.353 234.919 214.919C240.363 205.485 269.157 222.119 274.602 212.685C280.046 203.251 254.467 196.39 254.467 185.497C254.467 174.604 280.046 167.746 274.605 158.312C269.161 148.878 240.366 165.516 234.925 156.082C229.481 146.648 257.546 123.442 249.313 116.314C241.756 109.772 228.664 129.88 219.233 124.432H219.236Z" stroke="white" stroke-width="0.30159" stroke-miterlimit="10"/>
<path d="M217.241 127.887C208.347 122.749 214.813 98.6021 204.542 98.6021C194.272 98.6021 194.272 129.991 184.001 129.991C173.731 129.991 173.731 98.6021 163.46 98.6021C153.19 98.6021 159.656 122.749 150.759 127.887C141.865 133.026 124.2 115.35 119.065 124.25C113.93 133.15 141.097 148.842 135.961 157.742C130.826 166.642 103.659 150.949 98.5237 159.849C93.3884 168.749 117.519 175.22 117.519 185.5C117.519 195.778 93.3884 202.248 98.5237 211.148C103.659 220.048 130.823 204.355 135.958 213.255C141.093 222.155 113.93 237.851 119.065 246.751C124.2 255.65 141.865 237.975 150.762 243.113C159.656 248.252 153.19 272.398 163.46 272.398C173.731 272.398 173.731 241.01 184.001 241.01C194.272 241.01 194.272 272.398 204.542 272.398C214.813 272.398 208.347 248.252 217.244 243.113C226.138 237.975 243.802 255.65 248.938 246.751C254.073 237.851 226.906 222.158 232.041 213.258C237.177 204.358 264.344 220.051 269.479 211.151C274.614 202.251 250.483 195.781 250.483 185.5C250.483 175.223 274.614 168.752 269.479 159.852C264.344 150.953 237.18 166.645 232.045 157.746C226.909 148.846 253.386 126.953 245.618 120.228C238.488 114.057 226.138 133.026 217.244 127.887H217.241Z" stroke="white" stroke-width="0.30159" stroke-miterlimit="10"/>
<path d="M215.357 131.15C206.968 126.301 213.066 103.522 203.378 103.522C193.69 103.522 193.69 133.133 184.002 133.133C174.314 133.133 174.311 103.522 164.623 103.522C154.934 103.522 161.033 126.305 152.64 131.15C144.251 135.999 127.585 119.319 122.74 127.718C117.894 136.113 143.522 150.92 138.679 159.315C133.834 167.713 108.206 152.906 103.36 161.305C98.5146 169.703 121.282 175.806 121.282 185.503C121.282 195.198 98.5146 201.304 103.36 209.699C108.206 218.094 133.834 203.29 138.676 211.685C143.522 220.084 117.894 234.887 122.74 243.286C127.585 251.684 144.251 235.008 152.64 239.857C161.03 244.706 154.931 267.484 164.619 267.484C174.307 267.484 174.307 237.874 183.995 237.874C193.684 237.874 193.687 267.484 203.375 267.484C213.063 267.484 206.964 244.702 215.357 239.857C223.747 235.008 240.412 251.687 245.258 243.289C250.103 234.894 224.476 220.087 229.318 211.692C234.164 203.293 259.791 218.1 264.637 209.702C269.483 201.304 246.716 195.201 246.716 185.503C246.716 175.809 269.483 169.703 264.637 161.308C259.791 152.913 234.164 167.717 229.321 159.322C224.476 150.923 249.456 130.271 242.127 123.927C235.4 118.105 223.75 135.999 215.357 131.153V131.15Z" stroke="white" stroke-width="0.30159" stroke-miterlimit="10"/>
<path d="M213.584 134.224C205.669 129.652 211.423 108.16 202.282 108.16C193.14 108.16 193.14 136.097 184.002 136.097C174.864 136.097 174.861 108.16 165.72 108.16C156.578 108.16 162.332 129.652 154.417 134.224C146.503 138.796 130.781 123.064 126.209 130.987C121.64 138.907 145.816 152.877 141.247 160.797C136.678 168.72 112.499 154.75 107.93 162.673C103.357 170.595 124.836 176.353 124.836 185.5C124.836 194.648 103.357 200.405 107.93 208.325C112.499 216.244 136.678 202.277 141.247 210.197C145.816 218.12 121.64 232.087 126.212 240.01C130.785 247.933 146.506 232.201 154.421 236.773C162.335 241.345 156.581 262.837 165.723 262.837C174.864 262.837 174.864 234.9 184.002 234.9C193.14 234.9 193.144 262.837 202.285 262.837C211.426 262.837 205.673 241.345 213.59 236.773C221.505 232.201 237.23 247.933 241.799 240.013C246.368 232.093 222.192 218.123 226.761 210.204C231.333 202.281 255.509 216.251 260.078 208.328C264.65 200.405 243.172 194.648 243.172 185.5C243.172 176.353 264.65 170.595 260.078 162.676C255.509 154.756 231.33 168.723 226.761 160.803C222.188 152.88 245.753 133.397 238.841 127.412C232.495 121.918 221.502 138.803 213.587 134.227L213.584 134.224Z" stroke="white" stroke-width="0.30159" stroke-miterlimit="10"/>
<path d="M285.239 84.1921C271.584 70.5281 280.556 48.8564 261.245 48.8564C241.934 48.8564 241.934 90.2523 222.626 90.2523C203.319 90.2523 203.315 48.8564 184.004 48.8564C164.693 48.8564 164.693 90.2523 145.382 90.2523C126.071 90.2523 126.071 48.8564 106.757 48.8564C87.4427 48.8564 96.4148 70.5281 82.7597 84.1921C69.1047 97.8561 47.4473 88.8781 47.4473 108.202C47.4473 127.526 88.816 127.526 88.816 146.846C88.816 166.167 47.4473 166.17 47.4473 185.494C47.4473 204.817 88.816 204.817 88.816 224.141C88.816 243.465 47.4473 243.465 47.4473 262.792C47.4473 282.119 69.1047 273.141 82.7597 286.805C96.4148 300.469 87.4427 322.14 106.754 322.14C126.065 322.14 126.065 280.744 145.373 280.744C164.68 280.744 164.684 322.14 183.995 322.14C203.306 322.14 203.306 280.744 222.617 280.744C241.928 280.744 241.928 322.14 261.242 322.14C280.556 322.14 271.584 300.469 285.239 286.805C298.894 273.141 320.552 282.119 320.552 262.795C320.552 243.471 279.183 243.471 279.183 224.151C279.183 204.83 320.552 204.827 320.552 185.503C320.552 166.18 279.183 166.18 279.183 146.856C279.183 127.532 320.933 127.115 320.549 107.795C320.265 93.5316 298.894 97.8561 285.239 84.1921Z" stroke="white" stroke-width="0.285548" stroke-miterlimit="10"/>
<path d="M279.508 89.9267C266.627 77.0344 275.089 56.5938 256.871 56.5938C238.653 56.5938 238.653 95.6483 220.436 95.6483C202.218 95.6483 202.218 56.5938 184.001 56.5938C165.783 56.5938 165.783 95.6483 147.565 95.6483C129.348 95.6483 129.348 56.5938 111.127 56.5938C92.9094 56.5938 101.371 77.0377 88.4868 89.93C75.603 102.819 55.1758 94.3522 55.1758 112.582C55.1758 130.811 94.2047 130.811 94.2047 149.041C94.2047 167.27 55.1758 167.27 55.1758 185.5C55.1758 203.73 94.2047 203.73 94.2047 221.959C94.2047 240.189 55.1758 240.189 55.1758 258.422C55.1758 276.654 75.6063 268.184 88.4901 281.077C101.371 293.969 92.9094 314.41 111.127 314.41C129.345 314.41 129.345 275.355 147.562 275.355C165.78 275.355 165.78 314.41 183.997 314.41C202.215 314.41 202.215 275.355 220.433 275.355C238.65 275.355 238.65 314.41 256.871 314.41C275.092 314.41 266.627 293.966 279.511 281.073C292.395 268.184 312.822 276.651 312.822 258.422C312.822 240.192 273.793 240.192 273.793 221.962C273.793 203.733 312.822 203.733 312.822 185.503C312.822 167.274 273.793 167.274 273.793 149.044C273.793 130.815 313.18 130.421 312.819 112.194C312.552 98.7386 292.392 102.819 279.508 89.9267Z" stroke="white" stroke-width="0.285548" stroke-miterlimit="10"/>
<path d="M274.103 95.3357C261.951 83.1761 269.934 63.8882 252.748 63.8882C235.562 63.8882 235.562 100.732 218.376 100.732C201.19 100.732 201.19 63.8882 184.004 63.8882C166.818 63.8882 166.818 100.732 149.629 100.732C132.44 100.732 132.44 63.8882 115.254 63.8882C98.0676 63.8882 106.05 83.1761 93.8956 95.3357C81.744 107.495 62.4688 99.5072 62.4688 116.704C62.4688 133.902 99.2879 133.902 99.2879 151.099C99.2879 168.296 62.4688 168.296 62.4688 185.494C62.4688 202.691 99.2879 202.691 99.2879 219.891C99.2879 237.092 62.4688 237.092 62.4688 254.289C62.4688 271.486 81.744 263.498 93.8956 275.661C106.047 287.821 98.0643 307.109 115.25 307.109C132.436 307.109 132.436 270.265 149.622 270.265C166.808 270.265 166.808 307.109 183.994 307.109C201.18 307.109 201.18 270.265 218.369 270.265C235.559 270.265 235.559 307.109 252.745 307.109C269.931 307.109 261.948 287.821 274.103 275.661C286.254 263.502 305.529 271.49 305.529 254.292C305.529 237.095 268.71 237.095 268.71 219.898C268.71 202.701 305.529 202.701 305.529 185.503C305.529 168.306 268.71 168.306 268.71 151.105C268.71 133.905 305.868 133.537 305.526 116.343C305.276 103.649 286.254 107.498 274.103 95.3357Z" stroke="white" stroke-width="0.285548" stroke-miterlimit="10"/>
<path d="M269.002 100.442C257.538 88.9691 265.071 70.7754 248.855 70.7754C232.639 70.7754 232.642 105.535 216.429 105.535C200.216 105.535 200.216 70.7754 184.003 70.7754C167.79 70.7754 167.79 105.535 151.574 105.535C135.358 105.535 135.358 70.7754 119.145 70.7754C102.932 70.7754 110.463 88.9724 98.9944 100.445C87.5295 111.917 69.3477 104.379 69.3477 120.605C69.3477 136.832 104.084 136.829 104.084 153.053C104.084 169.276 69.3477 169.276 69.3477 185.5C69.3477 201.723 104.084 201.723 104.084 217.95C104.084 234.177 69.3477 234.177 69.3477 250.401C69.3477 266.624 87.5327 259.089 98.9976 270.565C110.463 282.037 102.929 300.231 119.145 300.231C135.361 300.231 135.358 265.472 151.571 265.472C167.784 265.472 167.784 300.231 183.997 300.231C200.21 300.231 200.21 265.472 216.426 265.472C232.642 265.472 232.642 300.231 248.855 300.231C265.068 300.231 257.538 282.034 269.006 270.561C280.471 259.089 298.652 266.628 298.652 250.401C298.652 234.174 263.916 234.177 263.916 217.954C263.916 201.73 298.652 201.73 298.652 185.506C298.652 169.283 263.916 169.283 263.916 153.056C263.916 136.829 298.968 136.484 298.649 120.26C298.412 108.283 280.471 111.917 269.002 100.442Z" stroke="white" stroke-width="0.285548" stroke-miterlimit="10"/>
<path d="M264.191 105.255C253.376 94.4303 260.481 77.2656 245.185 77.2656C229.89 77.2656 229.89 110.055 214.595 110.055C199.3 110.055 199.3 77.2656 184.004 77.2656C168.709 77.2656 168.709 110.055 153.411 110.055C138.112 110.055 138.112 77.2656 122.817 77.2656C107.522 77.2656 114.626 94.4303 103.809 105.255C92.9913 116.076 75.8379 108.967 75.8379 124.272C75.8379 139.578 108.605 139.578 108.605 154.883C108.605 170.188 75.8379 170.188 75.8379 185.493C75.8379 200.799 108.605 200.799 108.605 216.107C108.605 231.416 75.8379 231.416 75.8379 246.721C75.8379 262.026 92.9913 254.918 103.809 265.742C114.623 276.566 107.519 293.731 122.814 293.731C138.109 293.731 138.109 260.942 153.404 260.942C168.699 260.942 168.699 293.731 183.995 293.731C199.29 293.731 199.29 260.942 214.588 260.942C229.887 260.942 229.887 293.731 245.182 293.731C260.477 293.731 253.373 276.566 264.191 265.742C275.008 254.921 292.161 262.03 292.161 246.724C292.161 231.419 259.394 231.419 259.394 216.114C259.394 200.809 292.161 200.809 292.161 185.503C292.161 170.198 259.394 170.198 259.394 154.889C259.394 139.581 292.464 139.255 292.158 123.95C291.933 112.65 275.008 116.079 264.191 105.255Z" stroke="white" stroke-width="0.285548" stroke-miterlimit="10"/>
<path d="M259.65 109.797C249.448 99.5851 256.151 83.394 241.719 83.394C227.286 83.394 227.289 114.327 212.859 114.327C198.43 114.327 198.43 83.394 184 83.394C169.571 83.394 169.571 114.327 155.138 114.327C140.705 114.327 140.705 83.394 126.275 83.394C111.846 83.394 118.546 99.5883 108.341 109.797C98.1355 120.006 81.9551 113.298 81.9551 127.74C81.9551 142.183 112.868 142.179 112.868 156.618C112.868 171.057 81.9551 171.057 81.9551 185.497C81.9551 199.936 112.868 199.936 112.868 214.378C112.868 228.82 81.9551 228.817 81.9551 243.259C81.9551 257.702 98.1387 250.993 108.341 261.206C118.543 271.418 111.839 287.609 126.272 287.609C140.705 287.609 140.702 256.676 155.131 256.676C169.561 256.676 169.561 287.609 183.991 287.609C198.42 287.609 198.42 256.676 212.853 256.676C227.286 256.676 227.283 287.609 241.715 287.609C256.148 287.609 249.444 271.415 259.65 261.206C269.855 250.997 286.036 257.705 286.036 243.263C286.036 228.82 255.123 228.824 255.123 214.384C255.123 199.945 286.036 199.945 286.036 185.506C286.036 171.067 255.123 171.067 255.123 156.625C255.123 142.183 286.322 141.873 286.036 127.437C285.824 116.779 269.855 120.009 259.65 109.801V109.797Z" stroke="white" stroke-width="0.285548" stroke-miterlimit="10"/>
<path d="M255.368 114.083C245.742 104.45 252.065 89.1743 238.452 89.1743C224.84 89.1743 224.84 118.359 211.227 118.359C197.614 118.359 197.614 89.1743 184.001 89.1743C170.388 89.1743 170.388 118.359 156.772 118.359C143.156 118.359 143.156 89.1743 129.544 89.1743C115.931 89.1743 122.254 104.45 112.625 114.083C102.998 123.715 87.7324 117.388 87.7324 131.01C87.7324 144.632 116.897 144.632 116.897 158.253C116.897 171.875 87.7324 171.875 87.7324 185.497C87.7324 199.118 116.897 199.118 116.897 212.743C116.897 226.368 87.7324 226.365 87.7324 239.99C87.7324 253.615 102.998 247.284 112.625 256.92C122.251 266.553 115.928 281.829 129.54 281.829C143.153 281.829 143.153 252.644 156.766 252.644C170.379 252.644 170.379 281.829 183.991 281.829C197.604 281.829 197.604 252.644 211.22 252.644C224.836 252.644 224.836 281.829 238.449 281.829C252.062 281.829 245.739 266.553 255.368 256.92C264.994 247.288 280.26 253.615 280.26 239.993C280.26 226.372 251.095 226.372 251.095 212.75C251.095 199.128 280.26 199.128 280.26 185.506C280.26 171.885 251.095 171.885 251.095 158.26C251.095 144.635 280.527 144.345 280.257 130.723C280.059 120.667 264.991 123.719 255.365 114.083H255.368Z" stroke="white" stroke-width="0.285548" stroke-miterlimit="10"/>
<path d="M251.329 118.124C242.25 109.035 248.215 94.6255 235.373 94.6255C222.532 94.6255 222.532 122.155 209.69 122.155C196.849 122.155 196.849 94.6255 184.004 94.6255C171.159 94.6255 171.159 122.155 158.318 122.155C145.476 122.155 145.473 94.6255 132.632 94.6255C119.79 94.6255 125.752 109.039 116.673 118.124C107.59 127.209 93.1895 121.24 93.1895 134.09C93.1895 146.94 120.701 146.94 120.701 159.79C120.701 172.64 93.1895 172.64 93.1895 185.493C93.1895 198.346 120.701 198.346 120.701 211.196C120.701 224.046 93.1895 224.05 93.1895 236.899C93.1895 249.749 107.593 243.784 116.676 252.869C125.755 261.958 119.79 276.368 132.632 276.368C145.473 276.368 145.473 248.838 158.315 248.838C171.156 248.838 171.156 276.368 184.001 276.368C196.846 276.368 196.846 248.838 209.687 248.838C222.529 248.838 222.532 276.368 235.373 276.368C248.215 276.368 242.253 261.955 251.332 252.869C260.415 243.784 274.815 249.753 274.815 236.903C274.815 224.053 247.304 224.053 247.304 211.203C247.304 198.353 274.815 198.353 274.815 185.5C274.815 172.647 247.304 172.647 247.304 159.797C247.304 146.947 275.069 146.67 274.815 133.82C274.627 124.334 260.415 127.209 251.332 118.121L251.329 118.124Z" stroke="white" stroke-width="0.285548" stroke-miterlimit="10"/>
<path d="M247.519 121.937C238.954 113.363 244.58 99.7676 232.465 99.7676C220.349 99.7676 220.349 125.741 208.233 125.741C196.117 125.741 196.117 99.7676 184.002 99.7676C171.886 99.7676 171.886 125.741 159.77 125.741C147.654 125.741 147.654 99.7676 135.535 99.7676C123.416 99.7676 129.046 113.363 120.478 121.937C111.909 130.508 98.3223 124.878 98.3223 137.002C98.3223 149.125 124.279 149.125 124.279 161.249C124.279 173.373 98.3223 173.373 98.3223 185.497C98.3223 197.62 124.279 197.62 124.279 209.744C124.279 221.868 98.3223 221.868 98.3223 233.995C98.3223 246.122 111.909 240.488 120.478 249.062C129.043 257.637 123.416 271.232 135.532 271.232C147.648 271.232 147.648 245.259 159.764 245.259C171.879 245.259 171.879 271.232 183.995 271.232C196.111 271.232 196.111 245.259 208.227 245.259C220.342 245.259 220.342 271.232 232.461 271.232C244.58 271.232 238.951 257.637 247.519 249.062C256.088 240.491 269.674 246.122 269.674 233.998C269.674 221.874 243.718 221.874 243.718 209.751C243.718 197.627 269.674 197.627 269.674 185.503C269.674 173.379 243.718 173.379 243.718 161.256C243.718 149.132 269.912 148.871 269.671 136.748C269.492 127.799 256.084 130.512 247.519 121.937Z" stroke="white" stroke-width="0.285548" stroke-miterlimit="10"/>
<path d="M243.922 125.536C235.842 117.447 241.15 104.623 229.721 104.623C218.292 104.623 218.292 129.125 206.862 129.125C195.433 129.125 195.433 104.623 184.001 104.623C172.569 104.623 172.572 129.125 161.139 129.125C149.707 129.125 149.707 104.623 138.278 104.623C126.849 104.623 132.157 117.45 124.073 125.539C115.989 133.625 103.174 128.314 103.174 139.75C103.174 151.187 127.659 151.187 127.659 162.624C127.659 174.06 103.174 174.06 103.174 185.5C103.174 196.94 127.659 196.937 127.659 208.377C127.659 219.816 103.174 219.816 103.174 231.253C103.174 242.69 115.993 237.378 124.076 245.467C132.157 253.556 126.849 266.38 138.278 266.38C149.707 266.38 149.707 241.879 161.136 241.879C172.565 241.879 172.565 266.38 183.998 266.38C195.43 266.38 195.427 241.879 206.859 241.879C218.292 241.879 218.292 266.38 229.721 266.38C241.15 266.38 235.842 253.553 243.926 245.464C252.009 237.378 264.825 242.69 264.825 231.253C264.825 219.816 240.34 219.816 240.34 208.38C240.34 196.943 264.825 196.943 264.825 185.503C264.825 174.063 240.34 174.067 240.34 162.627C240.34 151.187 265.049 150.943 264.825 139.506C264.659 131.062 252.009 133.625 243.926 125.536H243.922Z" stroke="white" stroke-width="0.285548" stroke-miterlimit="10"/>
<path d="M240.532 128.929C232.907 121.299 237.916 109.198 227.134 109.198C216.353 109.198 216.353 132.316 205.568 132.316C194.783 132.316 194.786 109.198 184.002 109.198C173.217 109.198 173.217 132.316 162.435 132.316C151.654 132.316 151.651 109.198 140.869 109.198C130.088 109.198 135.093 121.299 127.468 128.929C119.843 136.559 107.75 131.547 107.75 142.336C107.75 153.124 130.852 153.124 130.852 163.916C130.852 174.708 107.75 174.705 107.75 185.497C107.75 196.289 130.852 196.289 130.852 207.077C130.852 217.866 107.75 217.869 107.75 228.658C107.75 239.446 119.843 234.438 127.468 242.068C135.093 249.697 130.084 261.798 140.866 261.798C151.647 261.798 151.647 238.681 162.432 238.681C173.217 238.681 173.214 261.798 183.998 261.798C194.783 261.798 194.783 238.681 205.565 238.681C216.346 238.681 216.349 261.798 227.131 261.798C237.912 261.798 232.907 249.697 240.532 242.068C248.157 234.438 260.25 239.449 260.25 228.661C260.25 217.872 237.148 217.872 237.148 207.08C237.148 196.289 260.25 196.292 260.25 185.5C260.25 174.708 237.148 174.708 237.148 163.92C237.148 153.131 260.461 152.896 260.247 142.108C260.087 134.143 248.157 136.559 240.532 128.929Z" stroke="white" stroke-width="0.285548" stroke-miterlimit="10"/>
<path d="M237.332 132.133C230.14 124.937 234.866 113.52 224.693 113.52C214.52 113.52 214.52 135.328 204.347 135.328C194.174 135.328 194.174 113.52 184.001 113.52C173.828 113.52 173.828 135.328 163.655 135.328C153.482 135.328 153.482 113.52 143.309 113.52C133.136 113.52 137.861 124.937 130.666 132.133C123.474 139.33 112.064 134.602 112.064 144.781C112.064 154.961 133.859 154.961 133.859 165.141C133.859 175.32 112.064 175.32 112.064 185.5C112.064 195.68 133.859 195.68 133.859 205.859C133.859 216.039 112.064 216.039 112.064 226.219C112.064 236.398 123.474 231.67 130.666 238.87C137.858 246.067 133.133 257.484 143.306 257.484C153.479 257.484 153.479 235.675 163.652 235.675C173.825 235.675 173.825 257.484 183.998 257.484C194.171 257.484 194.171 235.675 204.344 235.675C214.516 235.675 214.516 257.484 224.689 257.484C234.862 257.484 230.137 246.067 237.332 238.87C244.524 231.673 255.934 236.401 255.934 226.222C255.934 216.042 234.14 216.042 234.14 205.862C234.14 195.683 255.934 195.683 255.934 185.503C255.934 175.324 234.14 175.324 234.14 165.144C234.14 154.964 256.133 154.746 255.931 144.566C255.781 137.054 244.524 139.33 237.332 132.133Z" stroke="white" stroke-width="0.285548" stroke-miterlimit="10"/>
<path d="M234.312 135.152C227.527 128.362 231.985 117.593 222.388 117.593C212.792 117.593 212.792 138.167 203.195 138.167C193.598 138.167 193.598 117.593 184.001 117.593C174.404 117.593 174.404 138.167 164.807 138.167C155.21 138.167 155.21 117.593 145.613 117.593C136.016 117.593 140.474 128.362 133.686 135.155C126.901 141.945 116.139 137.484 116.139 147.087C116.139 156.69 136.699 156.69 136.699 166.293C136.699 175.897 116.139 175.897 116.139 185.5C116.139 195.103 136.699 195.103 136.699 204.706C136.699 214.31 116.139 214.31 116.139 223.913C116.139 233.516 126.901 229.055 133.689 235.848C140.474 242.637 136.016 253.406 145.613 253.406C155.21 253.406 155.21 232.832 164.807 232.832C174.404 232.832 174.404 253.406 184.001 253.406C193.598 253.406 193.598 232.832 203.195 232.832C212.792 232.832 212.792 253.406 222.388 253.406C231.985 253.406 227.527 242.637 234.315 235.844C241.101 229.055 251.863 233.516 251.863 223.913C251.863 214.31 231.302 214.31 231.302 204.706C231.302 195.103 251.863 195.103 251.863 185.5C251.863 175.897 231.302 175.897 231.302 166.293C231.302 156.69 252.051 156.485 251.859 146.882C251.72 139.792 241.097 141.942 234.312 135.152Z" stroke="white" stroke-width="0.285548" stroke-miterlimit="10"/>
<path d="M231.464 138.005C225.063 131.6 229.268 121.439 220.214 121.439C211.161 121.439 211.161 140.848 202.107 140.848C193.054 140.848 193.054 121.439 184 121.439C174.947 121.439 174.947 140.848 165.893 140.848C156.84 140.848 156.84 121.439 147.783 121.439C138.727 121.439 142.934 131.6 136.533 138.005C130.132 144.41 119.979 140.203 119.979 149.262C119.979 158.322 139.374 158.322 139.374 167.381C139.374 176.441 119.979 176.441 119.979 185.5C119.979 194.56 139.374 194.56 139.374 203.619C139.374 212.678 119.979 212.678 119.979 221.741C119.979 230.804 130.132 226.593 136.533 232.999C142.934 239.404 138.73 249.564 147.783 249.564C156.837 249.564 156.837 230.156 165.89 230.156C174.944 230.156 174.944 249.564 183.997 249.564C193.051 249.564 193.051 230.156 202.104 230.156C211.158 230.156 211.158 249.564 220.214 249.564C229.271 249.564 225.063 239.404 231.464 232.999C237.866 226.593 248.019 230.801 248.019 221.741C248.019 212.682 228.623 212.682 228.623 203.622C228.623 194.563 248.019 194.563 248.019 185.503C248.019 176.444 228.623 176.444 228.623 167.385C228.623 158.325 248.198 158.13 248.016 149.07C247.882 142.382 237.866 144.41 231.461 138.005H231.464Z" stroke="white" stroke-width="0.285548" stroke-miterlimit="10"/>
<path d="M228.777 140.691C222.737 134.647 226.704 125.063 218.165 125.063C209.626 125.063 209.626 143.374 201.083 143.374C192.541 143.374 192.541 125.063 184.001 125.063C175.462 125.063 175.459 143.374 166.92 143.374C158.38 143.374 158.377 125.063 149.835 125.063C141.292 125.063 145.259 134.647 139.219 140.691C133.179 146.735 123.602 142.766 123.602 151.31C123.602 159.855 141.901 159.855 141.901 168.403C141.901 176.952 123.602 176.952 123.602 185.497C123.602 194.041 141.901 194.045 141.901 202.59C141.901 211.135 123.602 211.138 123.602 219.686C123.602 228.234 133.179 224.264 139.219 230.308C145.259 236.352 141.292 245.936 149.831 245.936C158.371 245.936 158.371 227.625 166.913 227.625C175.456 227.625 175.456 245.936 183.995 245.936C192.534 245.936 192.537 227.625 201.077 227.625C209.616 227.625 209.619 245.936 218.162 245.936C226.704 245.936 222.737 236.352 228.777 230.308C234.817 224.264 244.395 228.234 244.395 219.689C244.395 211.144 226.096 211.144 226.096 202.596C226.096 194.048 244.395 194.048 244.395 185.503C244.395 176.958 226.096 176.955 226.096 168.41C226.096 159.865 244.561 159.679 244.392 151.135C244.268 144.827 234.814 146.738 228.774 140.694L228.777 140.691Z" stroke="white" stroke-width="0.285548" stroke-miterlimit="10"/>
<path d="M226.241 143.228C220.543 137.526 224.285 128.483 216.228 128.483C208.17 128.483 208.17 145.755 200.113 145.755C192.055 145.755 192.055 128.483 183.997 128.483C175.94 128.483 175.94 145.755 167.882 145.755C159.824 145.755 159.824 128.483 151.767 128.483C143.709 128.483 147.451 137.526 141.753 143.228C136.055 148.93 127.018 145.185 127.018 153.248C127.018 161.311 144.278 161.311 144.278 169.374C144.278 177.437 127.018 177.437 127.018 185.5C127.018 193.563 144.278 193.563 144.278 201.626C144.278 209.689 127.018 209.689 127.018 217.752C127.018 225.815 136.055 222.07 141.753 227.772C147.451 233.474 143.709 242.517 151.767 242.517C159.824 242.517 159.824 225.245 167.882 225.245C175.94 225.245 175.94 242.517 183.997 242.517C192.055 242.517 192.055 225.245 200.113 225.245C208.17 225.245 208.17 242.517 216.228 242.517C224.285 242.517 220.543 233.474 226.241 227.772C231.94 222.07 240.977 225.815 240.977 217.755C240.977 209.695 223.716 209.692 223.716 201.629C223.716 193.566 240.977 193.566 240.977 185.503C240.977 177.44 223.716 177.44 223.716 169.377C223.716 161.314 241.136 161.142 240.977 153.079C240.86 147.126 231.943 148.933 226.245 143.231L226.241 143.228Z" stroke="white" stroke-width="0.285548" stroke-miterlimit="10"/>
</g>
<defs>
<clipPath id="clip0_2108_25827">
<rect width="368" height="371" fill="white"/>
</clipPath>
</defs>
</svg>
