<svg width="405" height="338" viewBox="0 0 405 338" fill="none" xmlns="http://www.w3.org/2000/svg">
<g clip-path="url(#clip0_2108_25826)">
<rect width="404.5" height="338" fill="#E52330"/>
<g clip-path="url(#clip1_2108_25826)">
<path d="M325.5 316.212C346.838 316.212 364.135 313.207 364.135 309.501C364.135 305.794 346.838 302.789 325.5 302.789C304.163 302.789 286.865 305.794 286.865 309.501C286.865 313.207 304.163 316.212 325.5 316.212Z" stroke="white" stroke-width="0.320841" stroke-miterlimit="10"/>
<path d="M363.293 317.538C364.063 313.913 347.768 307.375 326.896 302.936C306.025 298.496 288.481 297.837 287.711 301.462C286.941 305.088 303.236 311.626 324.107 316.065C344.979 320.505 362.522 321.164 363.293 317.538Z" stroke="white" stroke-width="0.320841" stroke-miterlimit="10"/>
<path d="M360.794 325.227C362.301 321.84 347.72 312.055 328.228 303.371C308.735 294.686 291.711 290.391 290.205 293.777C288.698 297.164 303.279 306.949 322.771 315.633C342.264 324.318 359.288 328.613 360.794 325.227Z" stroke="white" stroke-width="0.320841" stroke-miterlimit="10"/>
<path d="M356.756 332.227C358.933 329.228 346.704 316.623 329.442 304.073C312.179 291.523 296.42 283.78 294.243 286.779C292.066 289.778 304.295 302.382 321.557 314.933C338.82 327.483 354.579 335.226 356.756 332.227Z" stroke="white" stroke-width="0.320841" stroke-miterlimit="10"/>
<path d="M351.35 338.233C354.103 335.753 344.76 320.88 330.483 305.012C316.205 289.145 302.399 278.293 299.646 280.773C296.894 283.253 306.236 298.127 320.514 313.994C334.792 329.861 348.598 340.714 351.35 338.233Z" stroke="white" stroke-width="0.320841" stroke-miterlimit="10"/>
<path d="M344.817 342.982C348.025 341.129 341.976 324.636 331.308 306.145C320.639 287.654 309.39 274.167 306.182 276.02C302.974 277.874 309.022 294.366 319.691 312.857C330.359 331.348 341.609 344.835 344.817 342.982Z" stroke="white" stroke-width="0.320841" stroke-miterlimit="10"/>
<path d="M313.564 272.732C321.95 270.006 316.401 303.183 319.125 311.575C321.849 319.967 345.827 343.543 337.44 346.272C329.054 348.998 334.603 315.821 331.879 307.429C329.155 299.037 305.177 275.461 313.564 272.732Z" stroke="white" stroke-width="0.320841" stroke-miterlimit="10"/>
<path d="M321.46 271.052C330.231 270.13 317.91 301.428 318.831 310.204C319.752 318.98 338.308 347.031 329.538 347.953C320.767 348.874 333.088 317.576 332.167 308.8C331.246 300.024 312.69 271.973 321.46 271.052Z" stroke="white" stroke-width="0.320841" stroke-miterlimit="10"/>
<path d="M329.538 271.052C338.308 271.973 319.752 300.024 318.831 308.8C317.91 317.576 330.231 348.874 321.46 347.953C312.69 347.031 331.246 318.98 332.167 310.204C333.088 301.428 320.767 270.13 329.538 271.052Z" stroke="white" stroke-width="0.320841" stroke-miterlimit="10"/>
<path d="M331.877 311.575C338.472 291.266 340.961 273.875 337.438 272.729C333.915 271.584 325.714 287.119 319.12 307.427C312.525 327.735 310.036 345.127 313.559 346.272C317.081 347.418 325.283 331.883 331.877 311.575Z" stroke="white" stroke-width="0.320841" stroke-miterlimit="10"/>
<path d="M331.31 312.859C341.978 294.368 348.027 277.876 344.819 276.023C341.611 274.169 330.361 287.657 319.693 306.148C309.024 324.639 302.976 341.131 306.184 342.985C309.391 344.838 320.641 331.35 331.31 312.859Z" stroke="white" stroke-width="0.320841" stroke-miterlimit="10"/>
<path d="M330.485 313.991C344.762 298.124 354.105 283.25 351.352 280.77C348.599 278.29 334.794 289.142 320.516 305.009C306.238 320.877 296.896 335.75 299.648 338.231C302.401 340.711 316.207 329.858 330.485 313.991Z" stroke="white" stroke-width="0.320841" stroke-miterlimit="10"/>
<path d="M329.442 314.932C346.704 302.382 358.933 289.777 356.756 286.778C354.579 283.779 338.82 291.522 321.557 304.072C304.295 316.622 292.066 329.227 294.243 332.226C296.42 335.225 312.179 327.482 329.442 314.932Z" stroke="white" stroke-width="0.320841" stroke-miterlimit="10"/>
<path d="M360.799 293.775C364.385 301.835 330.83 299.783 322.776 303.372C314.721 306.961 293.793 333.289 290.207 325.226C286.62 317.166 320.176 319.218 328.23 315.629C336.284 312.041 357.213 285.712 360.799 293.775Z" stroke="white" stroke-width="0.320841" stroke-miterlimit="10"/>
<path d="M326.894 316.065C347.766 311.626 364.061 305.088 363.291 301.462C362.52 297.836 344.977 298.496 324.105 302.935C303.234 307.374 286.939 313.912 287.709 317.538C288.479 321.164 306.023 320.504 326.894 316.065Z" stroke="white" stroke-width="0.320841" stroke-miterlimit="10"/>
<path d="M325.5 316.212C346.838 316.212 364.135 313.207 364.135 309.501C364.135 305.794 346.838 302.789 325.5 302.789C304.163 302.789 286.865 305.794 286.865 309.501C286.865 313.207 304.163 316.212 325.5 316.212Z" stroke="white" stroke-width="0.320841" stroke-miterlimit="10"/>
<path d="M354.325 259.54C346.613 255.085 352.22 234.143 343.313 234.143C334.406 234.143 334.406 261.363 325.502 261.363C316.598 261.363 316.595 234.143 307.688 234.143C298.781 234.143 304.388 255.082 296.672 259.54C288.959 263.994 273.641 248.666 269.186 256.384C264.734 264.102 288.292 277.711 283.837 285.428C279.382 293.146 255.827 279.537 251.372 287.255C246.917 294.973 267.846 300.584 267.846 309.5C267.846 318.413 246.92 324.024 251.372 331.741C255.824 339.459 279.382 325.851 283.837 333.568C288.292 341.286 264.734 354.898 269.186 362.616C273.641 370.334 288.959 355.005 296.672 359.464C304.385 363.918 298.778 384.861 307.685 384.861C316.592 384.861 316.592 357.64 325.496 357.64C334.399 357.64 334.403 384.861 343.31 384.861C352.217 384.861 346.609 363.922 354.325 359.464C362.038 355.009 377.356 370.337 381.811 362.619C386.263 354.901 362.705 341.293 367.16 333.575C371.616 325.857 395.17 339.466 399.625 331.748C404.08 324.03 383.152 318.419 383.152 309.503C383.152 300.59 404.077 294.979 399.625 287.262C395.173 279.544 371.616 293.153 367.16 285.435C362.705 277.717 385.668 258.732 378.931 252.9C372.748 247.546 362.038 263.998 354.325 259.54Z" stroke="white" stroke-width="0.30159" stroke-miterlimit="10"/>
<path d="M352.694 262.366C345.418 258.162 350.709 238.409 342.307 238.409C333.904 238.409 333.904 264.089 325.501 264.089C317.099 264.089 317.099 238.409 308.696 238.409C300.293 238.409 305.582 258.162 298.305 262.366C291.028 266.57 276.576 252.109 272.375 259.39C268.173 266.671 290.397 279.512 286.196 286.793C281.994 294.074 259.771 281.234 255.57 288.519C251.368 295.8 271.109 301.095 271.109 309.503C271.109 317.911 251.368 323.203 255.566 330.485C259.768 337.766 281.991 324.926 286.193 332.207C290.394 339.489 268.17 352.329 272.372 359.61C276.573 366.892 291.025 352.43 298.302 356.634C305.578 360.838 300.287 380.591 308.69 380.591C317.092 380.591 317.092 354.911 325.495 354.911C333.897 354.911 333.897 380.591 342.3 380.591C350.703 380.591 345.414 360.838 352.691 356.634C359.968 352.43 374.42 366.892 378.621 359.61C382.823 352.329 360.599 339.489 364.8 332.207C369.002 324.926 391.225 337.766 395.427 330.481C399.628 323.2 379.887 317.905 379.887 309.497C379.887 301.089 399.628 295.797 395.43 288.516C391.228 281.234 369.005 294.074 364.804 286.793C360.602 279.512 382.263 261.601 375.907 256.098C370.075 251.047 359.971 266.567 352.694 262.363V262.366Z" stroke="white" stroke-width="0.30159" stroke-miterlimit="10"/>
<path d="M351.155 265.037C344.292 261.07 349.281 242.434 341.356 242.434C333.432 242.434 333.429 266.658 325.505 266.658C317.58 266.658 317.577 242.434 309.65 242.434C301.722 242.434 306.711 261.07 299.848 265.037C292.984 269.003 279.349 255.358 275.385 262.23C271.421 269.097 292.389 281.211 288.425 288.079C284.461 294.95 263.494 282.836 259.53 289.707C255.566 296.578 274.191 301.571 274.191 309.503C274.191 317.436 255.566 322.428 259.53 329.296C263.494 336.164 284.458 324.053 288.422 330.921C292.386 337.792 271.418 349.903 275.382 356.774C279.346 363.645 292.981 350 299.844 353.967C306.708 357.933 301.719 376.57 309.643 376.57C317.567 376.57 317.571 352.345 325.495 352.345C333.419 352.345 333.422 376.57 341.35 376.57C349.277 376.57 344.288 357.933 351.152 353.967C358.015 350 371.651 363.645 375.614 356.774C379.578 349.906 358.611 337.792 362.574 330.924C366.538 324.053 387.506 336.167 391.469 329.296C395.433 322.425 376.809 317.433 376.809 309.5C376.809 301.567 395.433 296.575 391.469 289.707C387.506 282.84 366.541 294.95 362.578 288.082C358.614 281.211 379.048 264.317 373.053 259.126C367.55 254.362 358.018 269.003 351.152 265.037H351.155Z" stroke="white" stroke-width="0.30159" stroke-miterlimit="10"/>
<path d="M349.703 267.55C343.227 263.809 347.936 246.227 340.458 246.227C332.979 246.227 332.979 269.081 325.501 269.081C318.023 269.081 318.023 246.227 310.544 246.227C303.066 246.227 307.775 263.809 301.295 267.55C294.819 271.292 281.958 258.419 278.219 264.899C274.48 271.38 294.26 282.807 290.52 289.287C286.781 295.767 267.002 284.34 263.262 290.821C259.523 297.301 277.093 302.013 277.093 309.496C277.093 316.98 259.523 321.689 263.262 328.169C267.002 334.649 286.781 323.222 290.52 329.703C294.26 336.183 274.48 347.61 278.219 354.09C281.958 360.571 294.823 347.701 301.299 351.443C307.775 355.184 303.066 372.766 310.544 372.766C318.023 372.766 318.023 349.912 325.501 349.912C332.979 349.912 332.979 372.766 340.458 372.766C347.936 372.766 343.227 355.184 349.706 351.443C356.183 347.701 369.044 360.574 372.783 354.093C376.522 347.613 356.742 336.186 360.481 329.706C364.221 323.226 384 334.652 387.739 328.172C391.479 321.692 373.909 316.98 373.909 309.496C373.909 302.013 391.479 297.304 387.739 290.824C384 284.344 364.221 295.771 360.481 289.29C356.742 282.81 376.021 266.87 370.365 261.972C365.174 257.478 356.179 271.289 349.703 267.547V267.55Z" stroke="white" stroke-width="0.30159" stroke-miterlimit="10"/>
<path d="M348.333 269.928C342.225 266.398 346.667 249.812 339.612 249.812C332.556 249.812 332.556 271.373 325.504 271.373C318.452 271.373 318.449 249.812 311.394 249.812C304.338 249.812 308.78 266.401 302.669 269.928C296.56 273.458 284.425 261.314 280.897 267.427C277.37 273.539 296.03 284.321 292.502 290.433C288.975 296.549 270.314 285.767 266.787 291.882C263.259 297.998 279.833 302.44 279.833 309.5C279.833 316.56 263.256 321.002 266.784 327.117C270.311 333.23 288.971 322.451 292.499 328.563C296.027 334.679 277.367 345.457 280.894 351.573C284.422 357.689 296.557 345.545 302.666 349.075C308.774 352.605 304.332 369.19 311.387 369.19C318.442 369.19 318.442 347.63 325.494 347.63C332.547 347.63 332.55 369.19 339.605 369.19C346.66 369.19 342.218 352.602 348.33 349.075C354.438 345.545 366.574 357.689 370.101 351.576C373.629 345.464 354.969 334.682 358.496 328.57C362.024 322.454 380.684 333.236 384.212 327.12C387.74 321.005 371.165 316.563 371.165 309.503C371.165 302.443 387.743 298.001 384.215 291.886C380.687 285.773 362.027 296.552 358.5 290.44C354.972 284.324 373.157 269.289 367.823 264.668C362.925 260.429 354.442 273.458 348.333 269.928Z" stroke="white" stroke-width="0.30159" stroke-miterlimit="10"/>
<path d="M347.039 272.168C341.276 268.837 345.467 253.189 338.809 253.189C332.151 253.189 332.154 273.529 325.499 273.529C318.844 273.529 318.844 253.189 312.186 253.189C305.527 253.189 309.719 268.837 303.955 272.168C298.192 275.496 286.743 264.043 283.418 269.81C280.088 275.577 297.694 285.747 294.365 291.515C291.036 297.282 273.433 287.112 270.104 292.879C266.775 298.646 282.415 302.84 282.412 309.5C282.412 316.159 266.775 320.354 270.101 326.121C273.43 331.888 291.033 321.718 294.358 327.485C297.688 333.252 280.082 343.422 283.411 349.193C286.74 354.96 298.186 343.507 303.952 346.835C309.716 350.166 305.524 365.814 312.179 365.814C318.834 365.814 318.834 345.474 325.489 345.474C332.144 345.474 332.144 365.814 338.803 365.814C345.461 365.814 341.269 350.166 347.033 346.835C352.796 343.507 364.245 354.96 367.571 349.193C370.9 343.425 353.294 333.256 356.623 327.488C359.952 321.721 377.555 331.891 380.884 326.124C384.213 320.357 368.573 316.163 368.576 309.503C368.576 302.844 384.213 298.649 380.887 292.882C377.558 287.115 359.955 297.285 356.63 291.518C353.3 285.751 370.46 271.562 365.426 267.205C360.805 263.206 352.803 275.499 347.039 272.168Z" stroke="white" stroke-width="0.30159" stroke-miterlimit="10"/>
<path d="M345.822 274.278C340.384 271.135 344.338 256.374 338.06 256.374C331.783 256.374 331.783 275.564 325.505 275.564C319.228 275.564 319.224 256.374 312.947 256.374C306.669 256.374 310.62 271.135 305.182 274.278C299.744 277.42 288.946 266.612 285.806 272.054C282.666 277.495 299.276 287.089 296.135 292.53C292.995 297.972 276.388 288.378 273.248 293.82C270.107 299.261 284.859 303.218 284.859 309.5C284.859 315.781 270.107 319.738 273.244 325.179C276.385 330.621 292.992 321.024 296.129 326.466C299.269 331.907 282.662 341.501 285.8 346.942C288.94 352.384 299.738 341.579 305.176 344.718C310.614 347.861 306.66 362.622 312.937 362.622C319.215 362.622 319.215 343.432 325.492 343.432C331.77 343.432 331.773 362.622 338.051 362.622C344.328 362.622 340.377 347.861 345.815 344.718C351.253 341.576 362.051 352.384 365.192 346.942C368.332 341.501 351.722 331.907 354.862 326.466C358.003 321.024 374.609 330.618 377.75 325.176C380.89 319.735 366.139 315.778 366.139 309.496C366.139 303.215 380.89 299.258 377.753 293.817C374.613 288.375 358.006 297.972 354.869 292.53C351.728 287.089 367.915 273.705 363.167 269.595C358.81 265.821 351.26 277.417 345.822 274.278Z" stroke="white" stroke-width="0.30159" stroke-miterlimit="10"/>
<path d="M344.67 276.274C339.542 273.311 343.271 259.383 337.348 259.383C331.425 259.383 331.425 277.486 325.503 277.486C319.58 277.486 319.58 259.383 313.654 259.383C307.728 259.383 311.46 273.311 306.328 276.274C301.199 279.238 291.01 269.042 288.049 274.177C285.087 279.309 300.754 288.362 297.792 293.495C294.831 298.627 279.165 289.577 276.2 294.709C273.238 299.841 287.154 303.573 287.154 309.503C287.154 315.43 273.235 319.162 276.197 324.294C279.158 329.426 294.824 320.376 297.786 325.509C300.747 330.641 285.081 339.694 288.042 344.826C291.004 349.958 301.193 339.765 306.322 342.729C311.451 345.692 307.721 359.62 313.644 359.62C319.567 359.62 319.567 341.517 325.49 341.517C331.412 341.517 331.412 359.62 337.339 359.62C343.265 359.62 339.532 345.692 344.664 342.729C349.793 339.765 359.982 349.961 362.943 344.826C365.905 339.694 350.239 330.641 353.2 325.509C356.161 320.376 371.828 329.426 374.792 324.294C377.754 319.162 363.838 315.43 363.838 309.5C363.838 303.573 377.757 299.841 374.796 294.709C371.834 289.577 356.168 298.627 353.206 293.495C350.245 288.362 365.514 275.734 361.033 271.855C356.923 268.296 349.799 279.235 344.667 276.271L344.67 276.274Z" stroke="white" stroke-width="0.30159" stroke-miterlimit="10"/>
<path d="M343.585 278.153C338.746 275.356 342.264 262.22 336.677 262.22C331.089 262.22 331.089 279.297 325.501 279.297C319.914 279.297 319.914 262.22 314.323 262.22C308.732 262.22 312.253 275.359 307.414 278.153C302.575 280.951 292.965 271.331 290.169 276.174C287.374 281.016 302.155 289.554 299.363 294.397C296.567 299.239 281.789 290.701 278.994 295.543C276.199 300.385 289.33 303.905 289.33 309.5C289.33 315.091 276.199 318.612 278.994 323.454C281.786 328.296 296.567 319.758 299.363 324.6C302.158 329.442 287.377 337.981 290.169 342.826C292.965 347.669 302.575 338.053 307.414 340.847C312.253 343.644 308.735 356.78 314.323 356.78C319.91 356.78 319.91 339.704 325.498 339.704C331.086 339.704 331.086 356.78 336.677 356.78C342.267 356.78 338.746 343.641 343.585 340.847C348.425 338.053 358.035 347.669 360.83 342.826C363.625 337.984 348.844 329.446 351.637 324.603C354.432 319.761 369.21 328.299 372.005 323.457C374.801 318.615 361.67 315.095 361.67 309.5C361.67 303.909 374.801 300.388 372.005 295.546C369.21 290.704 354.432 299.242 351.637 294.4C348.841 289.558 363.248 277.645 359.021 273.989C355.141 270.631 348.421 280.951 343.582 278.153H343.585Z" stroke="white" stroke-width="0.30159" stroke-miterlimit="10"/>
<path d="M342.561 279.928C337.995 277.29 341.314 264.896 336.042 264.896C330.77 264.896 330.77 281.009 325.498 281.009C320.227 281.009 320.227 264.896 314.955 264.896C309.683 264.896 313.002 277.29 308.436 279.928C303.87 282.566 294.804 273.493 292.168 278.059C289.532 282.628 303.477 290.684 300.841 295.25C298.205 299.819 284.26 291.762 281.624 296.331C278.988 300.9 291.374 304.221 291.374 309.497C291.374 314.772 278.988 318.094 281.624 322.663C284.26 327.231 298.205 319.175 300.841 323.744C303.477 328.312 289.532 336.369 292.168 340.938C294.804 345.506 303.87 336.434 308.436 339.072C313.002 341.709 309.683 354.103 314.955 354.103C320.227 354.103 320.227 337.991 325.498 337.991C330.77 337.991 330.77 354.103 336.042 354.103C341.314 354.103 337.995 341.709 342.561 339.072C347.127 336.434 356.193 345.506 358.829 340.941C361.465 336.372 347.52 328.316 350.156 323.75C352.792 319.181 366.737 327.238 369.373 322.669C372.009 318.1 359.623 314.779 359.623 309.503C359.623 304.228 372.009 300.906 369.373 296.337C366.737 291.769 352.792 299.825 350.156 295.256C347.52 290.688 361.11 279.45 357.124 275.998C353.466 272.829 347.123 282.566 342.558 279.928H342.561Z" stroke="white" stroke-width="0.30159" stroke-miterlimit="10"/>
<path d="M341.597 281.602C337.292 279.114 340.423 267.42 335.45 267.42C330.477 267.42 330.477 282.621 325.505 282.621C320.532 282.621 320.532 267.42 315.556 267.42C310.581 267.42 313.715 279.114 309.406 281.602C305.1 284.09 296.545 275.528 294.059 279.84C291.572 284.148 304.726 291.749 302.24 296.06C299.754 300.372 286.6 292.771 284.11 297.08C281.624 301.391 293.31 304.524 293.307 309.5C293.307 314.476 281.621 317.608 284.107 321.92C286.593 326.228 299.747 318.631 302.233 322.939C304.72 327.251 291.566 334.848 294.052 339.159C296.538 343.471 305.094 334.91 309.399 337.398C313.705 339.886 310.574 351.579 315.547 351.579C320.519 351.579 320.519 336.382 325.492 336.382C330.464 336.382 330.464 351.579 335.44 351.579C340.416 351.579 337.282 339.886 341.591 337.398C345.896 334.91 354.452 343.471 356.938 339.159C359.424 334.851 346.271 327.251 348.757 322.939C351.243 318.627 364.397 326.228 366.887 321.92C369.373 317.608 357.687 314.476 357.69 309.5C357.69 304.524 369.376 301.391 366.89 297.08C364.404 292.771 351.25 300.369 348.763 296.06C346.277 291.749 359.096 281.149 355.337 277.893C351.884 274.903 345.903 284.09 341.597 281.602Z" stroke="white" stroke-width="0.30159" stroke-miterlimit="10"/>
<path d="M340.687 283.181C336.622 280.833 339.577 269.804 334.888 269.804C330.198 269.804 330.195 284.142 325.505 284.142C320.816 284.142 320.813 269.804 316.12 269.804C311.427 269.804 314.382 280.833 310.318 283.181C306.253 285.529 298.186 277.453 295.839 281.52C293.493 285.584 305.905 292.755 303.558 296.822C301.212 300.89 288.803 293.719 286.457 297.786C284.111 301.854 295.136 304.807 295.133 309.503C295.133 314.199 284.111 317.152 286.454 321.22C288.8 325.287 301.209 318.116 303.555 322.18C305.902 326.248 293.493 333.415 295.836 337.482C298.182 341.55 306.253 333.474 310.314 335.822C314.379 338.169 311.424 349.199 316.114 349.199C320.803 349.199 320.806 334.861 325.496 334.861C330.185 334.861 330.188 349.199 334.881 349.199C339.574 349.199 336.619 338.169 340.684 335.822C344.748 333.474 352.816 341.55 355.162 337.482C357.508 333.415 345.096 326.248 347.443 322.18C349.789 318.113 362.198 325.284 364.544 321.216C366.89 317.149 355.865 314.196 355.868 309.5C355.868 304.804 366.89 301.85 364.547 297.783C362.201 293.716 349.792 300.886 347.446 296.822C345.1 292.755 357.196 282.755 353.645 279.684C350.388 276.864 344.745 285.529 340.684 283.181H340.687Z" stroke="white" stroke-width="0.30159" stroke-miterlimit="10"/>
<path d="M339.825 284.669C335.991 282.455 338.777 272.047 334.351 272.047C329.925 272.047 329.925 285.575 325.499 285.575C321.073 285.575 321.073 272.047 316.648 272.047C312.222 272.047 315.007 282.455 311.174 284.669C307.34 286.884 299.728 279.267 297.515 283.1C295.303 286.936 307.008 293.699 304.795 297.536C302.582 301.372 290.873 294.608 288.661 298.444C286.448 302.28 296.848 305.068 296.848 309.5C296.848 313.928 286.448 316.716 288.661 320.552C290.873 324.388 302.582 317.625 304.795 321.461C307.008 325.297 295.303 332.06 297.515 335.896C299.728 339.733 307.343 332.116 311.177 334.33C315.011 336.544 312.225 346.952 316.651 346.952C321.077 346.952 321.077 333.425 325.502 333.425C329.928 333.425 329.928 346.952 334.354 346.952C338.78 346.952 335.994 336.544 339.828 334.33C343.662 332.116 351.273 339.733 353.486 335.9C355.699 332.064 343.99 325.3 346.206 321.464C348.419 317.628 360.128 324.391 362.341 320.555C364.554 316.719 354.153 313.932 354.153 309.5C354.153 305.071 364.554 302.283 362.341 298.447C360.128 294.611 348.419 301.375 346.206 297.539C343.993 293.703 355.403 284.269 352.058 281.371C348.986 278.71 343.662 286.887 339.828 284.669H339.825Z" stroke="white" stroke-width="0.30159" stroke-miterlimit="10"/>
<path d="M339.013 286.076C335.398 283.986 338.027 274.171 333.852 274.171C329.677 274.171 329.677 286.933 325.502 286.933C321.326 286.933 321.326 274.171 317.151 274.171C312.976 274.171 315.605 283.989 311.987 286.076C308.371 288.167 301.189 280.977 299.099 284.598C297.01 288.216 308.055 294.599 305.969 298.216C303.88 301.834 292.838 295.455 290.749 299.073C288.66 302.691 298.471 305.322 298.471 309.5C298.471 313.678 288.66 316.309 290.749 319.927C292.838 323.545 303.88 317.166 305.969 320.784C308.059 324.402 297.013 330.784 299.099 334.402C301.189 338.02 308.371 330.833 311.987 332.924C315.602 335.014 312.973 344.829 317.148 344.829C321.323 344.829 321.323 332.067 325.498 332.067C329.674 332.067 329.674 344.829 333.849 344.829C338.024 344.829 335.395 335.011 339.013 332.924C342.629 330.833 349.811 338.023 351.901 334.402C353.99 330.784 342.945 324.402 345.031 320.784C347.12 317.166 358.165 323.545 360.251 319.927C362.34 316.309 352.529 313.678 352.529 309.5C352.529 305.322 362.34 302.691 360.251 299.073C358.162 295.455 347.12 301.834 345.031 298.216C342.941 294.599 353.707 285.695 350.55 282.963C347.65 280.453 342.629 288.167 339.013 286.076Z" stroke="white" stroke-width="0.30159" stroke-miterlimit="10"/>
<path d="M338.248 287.402C334.837 285.432 337.317 276.17 333.376 276.17C329.435 276.17 329.438 288.209 325.498 288.209C321.557 288.209 321.557 276.17 317.619 276.17C313.681 276.17 316.158 285.432 312.747 287.402C309.337 289.372 302.561 282.592 300.589 286.005C298.62 289.418 309.04 295.439 307.068 298.852C305.1 302.264 294.679 296.246 292.71 299.659C290.742 303.072 299.997 305.557 299.997 309.497C299.997 313.437 290.742 315.922 292.71 319.335C294.679 322.747 305.1 316.729 307.068 320.142C309.037 323.555 298.62 329.576 300.589 332.989C302.558 336.402 309.333 329.622 312.747 331.595C316.158 333.565 313.678 342.827 317.619 342.827C321.56 342.827 321.557 330.787 325.498 330.787C329.438 330.787 329.438 342.827 333.376 342.827C337.314 342.827 334.837 333.565 338.248 331.595C341.658 329.625 348.434 336.405 350.406 332.992C352.375 329.579 341.955 323.558 343.927 320.145C345.895 316.733 356.316 322.751 358.285 319.338C360.253 315.925 350.998 313.44 350.998 309.5C350.998 305.56 360.253 303.075 358.285 299.662C356.316 296.25 345.895 302.268 343.927 298.855C341.958 295.442 352.111 287.044 349.134 284.465C346.4 282.097 341.662 289.372 338.251 287.402H338.248Z" stroke="white" stroke-width="0.30159" stroke-miterlimit="10"/>
<path d="M337.527 288.652C334.308 286.793 336.648 278.056 332.932 278.056C329.215 278.056 329.215 289.414 325.499 289.414C321.783 289.414 321.783 278.056 318.066 278.056C314.35 278.056 316.69 286.793 313.471 288.652C310.253 290.512 303.861 284.116 302.003 287.337C300.145 290.557 309.976 296.236 308.118 299.457C306.259 302.678 296.428 296.998 294.57 300.219C292.712 303.44 301.443 305.781 301.443 309.5C301.443 313.219 292.712 315.56 294.57 318.781C296.428 322.001 306.256 316.322 308.114 319.543C309.973 322.763 300.145 328.443 302.003 331.663C303.861 334.884 310.253 328.488 313.471 330.348C316.69 332.207 314.35 340.944 318.066 340.944C321.783 340.944 321.783 329.586 325.499 329.586C329.215 329.586 329.215 340.944 332.932 340.944C336.648 340.944 334.308 332.207 337.527 330.348C340.745 328.488 347.137 334.884 348.995 331.663C350.853 328.443 341.022 322.763 342.88 319.543C344.738 316.322 354.57 322.001 356.428 318.781C358.286 315.56 349.555 313.219 349.555 309.5C349.555 305.781 358.286 303.44 356.428 300.219C354.57 296.998 344.738 302.678 342.883 299.457C341.025 296.236 350.606 288.313 347.794 285.881C345.214 283.647 340.745 290.512 337.527 288.652Z" stroke="white" stroke-width="0.30159" stroke-miterlimit="10"/>
<path d="M396.4 186.618C377.428 175.657 391.22 124.153 369.315 124.153C347.41 124.153 347.41 191.103 325.505 191.103C303.601 191.103 303.597 124.153 281.69 124.153C259.782 124.153 273.573 175.657 254.601 186.618C235.628 197.576 197.953 159.873 186.999 178.858C176.045 197.84 233.988 231.316 223.037 250.298C212.083 269.283 154.14 235.81 143.186 254.795C132.232 273.78 183.702 287.581 183.702 309.504C183.702 331.423 132.232 345.223 143.183 364.205C154.137 383.187 212.077 349.714 223.031 368.696C233.985 387.681 176.042 421.157 186.996 440.142C197.95 459.127 235.628 421.424 254.601 432.385C273.57 443.347 259.778 494.85 281.683 494.85C303.588 494.85 303.588 427.901 325.492 427.901C347.397 427.901 347.4 494.85 369.308 494.85C391.216 494.85 377.425 443.347 396.397 432.385C415.37 421.427 453.045 459.131 463.999 440.146C474.953 421.164 417.01 387.687 427.961 368.706C438.915 349.721 496.858 383.194 507.812 364.209C518.766 345.223 467.296 331.423 467.296 309.5C467.296 287.581 518.766 273.78 507.815 254.799C496.861 235.817 438.921 269.29 427.967 250.308C417.013 231.323 473.485 184.629 456.918 170.284C441.713 157.118 415.367 197.58 396.394 186.618H396.4Z" stroke="white" stroke-width="0.30159" stroke-miterlimit="10"/>
<path d="M392.383 193.574C374.488 183.235 387.499 134.646 366.834 134.646C346.169 134.646 346.169 197.804 325.504 197.804C304.839 197.804 304.836 134.646 284.168 134.646C263.5 134.646 276.511 183.235 258.612 193.574C240.713 203.913 205.17 168.343 194.837 186.254C184.505 204.161 239.168 235.742 228.835 253.649C218.503 271.559 163.84 239.978 153.504 257.889C143.172 275.799 191.726 288.819 191.726 309.5C191.726 330.179 143.169 343.198 153.501 361.105C163.834 379.012 218.496 347.434 228.829 365.342C239.161 383.252 184.502 414.833 194.834 432.744C205.167 450.654 240.713 415.084 258.612 425.426C276.507 435.765 263.497 484.355 284.162 484.355C304.826 484.355 304.826 421.196 325.491 421.196C346.156 421.196 346.159 484.355 366.827 484.355C387.495 484.355 374.485 435.765 392.383 425.426C410.282 415.087 445.826 450.657 456.158 432.747C466.49 414.84 411.828 383.259 422.16 365.351C432.493 347.441 487.155 379.022 497.491 361.112C507.823 343.201 459.269 330.182 459.269 309.5C459.269 288.822 507.827 275.803 497.494 257.895C487.162 239.988 432.499 271.566 422.167 253.659C411.834 235.748 465.107 191.698 449.48 178.165C435.135 165.745 410.282 203.917 392.383 193.574Z" stroke="white" stroke-width="0.30159" stroke-miterlimit="10"/>
<path d="M388.6 200.136C371.716 190.38 383.991 144.542 364.495 144.542C344.998 144.542 344.998 204.125 325.505 204.125C306.012 204.125 306.009 144.542 286.509 144.542C267.009 144.542 279.284 190.38 262.398 200.136C245.514 209.889 211.979 176.335 202.232 193.229C192.485 210.123 244.053 239.917 234.303 256.811C224.553 273.709 172.986 243.916 163.239 260.813C153.489 277.711 199.3 289.994 199.297 309.504C199.297 329.013 153.489 341.293 163.236 358.187C172.982 375.082 224.55 345.289 234.3 362.183C244.05 379.081 192.482 408.871 202.229 425.768C211.979 442.666 245.511 409.108 262.398 418.865C279.281 428.621 267.006 474.459 286.502 474.459C305.999 474.459 305.999 414.876 325.492 414.876C344.985 414.876 344.989 474.459 364.488 474.459C383.988 474.459 371.713 428.621 388.6 418.865C405.483 409.112 439.018 442.666 448.765 425.772C458.512 408.877 406.944 379.084 416.694 362.19C426.444 345.292 478.012 375.085 487.758 358.187C497.508 341.29 451.697 329.006 451.701 309.497C451.701 289.988 497.508 277.708 487.761 260.813C478.015 243.919 426.447 273.712 416.697 256.818C406.947 239.92 457.207 198.364 442.465 185.599C428.933 173.883 405.486 209.892 388.6 200.136Z" stroke="white" stroke-width="0.30159" stroke-miterlimit="10"/>
<path d="M385.028 206.326C369.102 197.124 380.681 153.881 362.287 153.881C343.894 153.881 343.894 210.094 325.504 210.094C307.114 210.094 307.111 153.881 288.714 153.881C270.317 153.881 281.9 197.127 265.97 206.33C250.04 215.532 218.405 183.873 209.211 199.813C200.015 215.751 248.663 243.857 239.47 259.797C230.273 275.737 181.625 247.631 172.428 263.571C163.231 279.512 206.445 291.098 206.445 309.507C206.445 327.912 163.228 339.499 172.425 355.436C181.621 371.373 230.27 343.266 239.467 359.207C248.663 375.147 200.015 403.253 209.211 419.194C218.408 435.134 250.046 403.478 265.976 412.681C281.903 421.883 270.324 465.126 288.717 465.126C307.111 465.126 307.111 408.913 325.501 408.913C343.891 408.913 343.894 465.126 362.291 465.126C380.687 465.126 369.105 421.88 385.035 412.677C400.965 403.475 432.6 435.134 441.793 419.194C450.99 403.256 402.341 375.15 411.535 359.21C420.731 343.27 469.38 371.376 478.577 355.436C487.773 339.495 444.559 327.909 444.559 309.5C444.559 291.095 487.777 279.508 478.58 263.571C469.383 247.634 420.735 275.741 411.538 259.8C402.341 243.86 449.757 204.656 435.844 192.61C423.078 181.558 400.958 215.529 385.028 206.323V206.326Z" stroke="white" stroke-width="0.30159" stroke-miterlimit="10"/>
<path d="M381.657 212.165C366.632 203.484 377.557 162.687 360.205 162.687C342.853 162.687 342.853 215.718 325.504 215.718C308.155 215.718 308.152 162.687 290.797 162.687C273.442 162.687 284.366 203.484 269.338 212.165C254.31 220.847 224.468 190.982 215.792 206.017C207.116 221.052 253.011 247.569 244.335 262.604C235.659 277.643 189.764 251.129 181.088 266.167C172.412 281.205 213.182 292.137 213.178 309.5C213.178 326.864 172.408 337.792 181.084 352.831C189.76 367.866 235.656 341.352 244.332 356.387C253.008 371.425 207.112 397.939 215.788 412.977C224.464 428.015 254.31 398.151 269.338 406.832C284.363 415.514 273.438 456.311 290.79 456.311C308.142 456.311 308.142 403.28 325.491 403.28C342.84 403.28 342.843 456.311 360.198 456.311C377.553 456.311 366.629 415.514 381.657 406.832C396.685 398.151 426.527 428.015 435.203 412.98C443.879 397.945 397.984 371.428 406.66 356.393C415.336 341.355 461.231 367.869 469.907 352.831C478.583 337.792 437.813 326.861 437.817 309.497C437.817 292.134 478.586 281.205 469.91 266.167C461.234 251.132 415.339 277.646 406.663 262.611C397.987 247.573 442.718 210.586 429.596 199.224C417.552 188.797 396.685 220.844 381.657 212.162V212.165Z" stroke="white" stroke-width="0.30159" stroke-miterlimit="10"/>
<path d="M378.478 217.675C364.302 209.485 374.609 170.997 358.24 170.997C341.871 170.997 341.871 221.026 325.501 221.026C309.132 221.026 309.132 170.997 292.76 170.997C276.387 170.997 286.694 209.485 272.518 217.675C258.342 225.865 230.186 197.69 222.001 211.875C213.817 226.06 257.115 251.073 248.931 265.258C240.746 279.446 197.448 254.43 189.263 268.619C181.079 282.807 219.538 293.12 219.538 309.5C219.538 325.88 181.075 336.193 189.26 350.378C197.445 364.563 240.743 339.547 248.924 353.732C257.109 367.921 213.814 392.933 221.998 407.122C230.183 421.31 258.339 393.135 272.518 401.325C286.694 409.515 276.387 448.003 292.757 448.003C309.126 448.003 309.126 397.974 325.495 397.974C341.864 397.974 341.867 448.003 358.236 448.003C374.606 448.003 364.302 409.515 378.481 401.325C392.657 393.135 420.813 421.31 428.998 407.125C437.183 392.94 393.884 367.927 402.069 353.742C410.253 339.554 453.552 364.57 461.736 350.381C469.921 336.193 431.462 325.88 431.462 309.5C431.462 293.12 469.924 282.807 461.74 268.622C453.555 254.437 410.256 279.45 402.075 265.268C393.891 251.08 436.089 216.19 423.71 205.47C412.349 195.632 392.66 225.868 378.485 217.675H378.478Z" stroke="white" stroke-width="0.30159" stroke-miterlimit="10"/>
<path d="M375.482 222.872C362.11 215.145 371.831 178.839 356.389 178.839C340.947 178.839 340.947 226.034 325.506 226.034C310.064 226.034 310.061 178.839 294.616 178.839C279.171 178.839 288.895 215.148 275.519 222.876C262.144 230.603 235.583 204.021 227.863 217.405C220.141 230.786 260.989 254.385 253.267 267.766C245.544 281.15 204.699 257.55 196.977 270.934C189.254 284.318 225.54 294.049 225.54 309.5C225.54 324.952 189.254 334.682 196.977 348.063C204.699 361.444 245.544 337.848 253.267 351.228C260.989 364.612 220.141 388.212 227.863 401.596C235.586 414.98 262.148 388.401 275.523 396.128C288.895 403.856 279.174 440.162 294.616 440.162C310.057 440.162 310.057 392.966 325.499 392.966C340.941 392.966 340.944 440.162 356.389 440.162C371.834 440.162 362.11 403.853 375.485 396.125C388.86 388.397 415.422 414.98 423.141 401.596C430.864 388.215 390.016 364.616 397.738 351.235C405.461 337.851 446.305 361.45 454.028 348.066C461.75 334.682 425.465 324.952 425.465 309.5C425.465 294.049 461.75 284.318 454.028 270.938C446.305 257.557 405.461 281.153 397.738 267.772C390.016 254.388 429.826 221.472 418.146 211.361C407.426 202.08 388.854 230.603 375.479 222.876L375.482 222.872Z" stroke="white" stroke-width="0.30159" stroke-miterlimit="10"/>
<path d="M372.649 227.777C360.032 220.489 369.206 186.234 354.637 186.234C340.067 186.234 340.067 230.76 325.501 230.76C310.935 230.76 310.931 186.234 296.362 186.234C281.792 186.234 290.963 220.489 278.346 227.777C265.729 235.065 240.671 209.99 233.388 222.615C226.105 235.241 264.639 257.502 257.356 270.127C250.069 282.752 211.535 260.491 204.252 273.116C196.966 285.741 231.198 294.921 231.198 309.501C231.198 324.08 196.966 333.256 204.252 345.881C211.535 358.507 250.069 336.242 257.356 348.868C264.642 361.493 226.105 383.757 233.391 396.382C240.677 409.008 265.736 383.933 278.352 391.224C290.969 398.512 281.796 432.767 296.365 432.767C310.935 432.767 310.935 388.241 325.501 388.241C340.067 388.241 340.07 432.767 354.64 432.767C369.209 432.767 360.039 398.512 372.656 391.224C385.273 383.936 410.331 409.011 417.614 396.386C424.897 383.76 386.363 361.499 393.646 348.874C400.932 336.249 439.467 358.51 446.75 345.885C454.036 333.26 419.804 324.08 419.804 309.501C419.804 294.921 454.036 285.745 446.75 273.12C439.467 260.494 400.932 282.759 393.646 270.133C386.36 257.508 423.918 226.451 412.898 216.913C402.787 208.157 385.266 235.068 372.646 227.777H372.649Z" stroke="white" stroke-width="0.30159" stroke-miterlimit="10"/>
<path d="M369.981 232.401C358.08 225.523 366.733 193.209 352.987 193.209C339.241 193.209 339.244 235.214 325.501 235.214C311.758 235.214 311.755 193.209 298.012 193.209C284.269 193.209 292.919 225.523 281.015 232.401C269.111 239.278 245.472 215.62 238.602 227.532C231.729 239.441 268.082 260.445 261.213 272.354C254.34 284.266 217.986 263.262 211.113 275.174C204.24 287.086 236.532 295.745 236.532 309.5C236.532 323.252 204.24 331.911 211.109 343.82C217.982 355.729 254.333 334.728 261.206 346.637C268.079 358.549 231.725 379.55 238.598 391.462C245.472 403.374 269.111 379.719 281.015 386.597C292.916 393.474 284.263 425.788 298.009 425.788C311.755 425.788 311.752 383.783 325.495 383.783C339.238 383.783 339.241 425.788 352.984 425.788C366.727 425.788 358.077 393.474 369.981 386.597C381.885 379.719 405.525 403.377 412.395 391.465C419.268 379.556 382.914 358.552 389.784 346.643C396.657 334.731 433.011 355.735 439.884 343.823C446.757 331.911 414.464 323.252 414.464 309.497C414.464 295.745 446.757 287.086 439.887 275.177C433.014 263.269 396.663 284.269 389.79 272.361C382.917 260.448 418.35 231.154 407.956 222.153C398.414 213.894 381.885 239.278 369.984 232.401H369.981Z" stroke="white" stroke-width="0.30159" stroke-miterlimit="10"/>
<path d="M367.466 236.768C356.239 230.281 364.401 199.794 351.436 199.794C338.471 199.794 338.471 239.422 325.505 239.422C312.537 239.422 312.537 199.794 299.572 199.794C286.607 199.794 294.769 230.281 283.538 236.768C272.311 243.254 250.009 220.938 243.523 232.173C237.04 243.407 271.334 263.223 264.852 274.458C258.369 285.696 224.072 265.88 217.589 277.118C211.107 288.356 241.57 296.523 241.57 309.5C241.57 322.474 211.104 330.641 217.589 341.879C224.072 353.114 258.369 333.302 264.852 344.536C271.334 355.774 237.04 375.587 243.523 386.824C250.006 398.062 272.311 375.746 283.538 382.233C294.765 388.72 286.604 419.207 299.569 419.207C312.534 419.207 312.534 379.579 325.499 379.579C338.464 379.579 338.467 419.207 351.433 419.207C364.398 419.207 356.236 388.72 367.466 382.233C378.694 375.746 400.996 398.062 407.481 386.828C413.964 375.593 379.67 355.778 386.153 344.543C392.635 333.305 426.932 353.12 433.415 341.882C439.898 330.644 409.434 322.477 409.434 309.5C409.434 296.527 439.901 288.359 433.415 277.121C426.932 265.887 392.635 285.699 386.153 274.464C379.67 263.226 413.095 235.589 403.29 227.099C394.288 219.307 378.697 243.254 367.466 236.768Z" stroke="white" stroke-width="0.30159" stroke-miterlimit="10"/>
<path d="M365.089 240.884C354.497 234.765 362.196 206.004 349.967 206.004C337.737 206.004 337.734 243.388 325.504 243.388C313.274 243.388 313.271 206.004 301.038 206.004C288.805 206.004 296.505 234.765 285.912 240.884C275.319 247.003 254.28 225.95 248.162 236.549C242.047 247.149 274.402 265.841 268.283 276.441C262.165 287.04 229.811 268.348 223.696 278.951C217.578 289.551 246.32 297.259 246.32 309.5C246.32 321.741 217.578 329.446 223.696 340.046C229.811 350.645 262.165 331.953 268.283 342.553C274.402 353.153 242.047 371.845 248.162 382.448C254.28 393.047 275.319 371.995 285.912 378.117C296.505 384.236 288.805 412.996 301.035 412.996C313.264 412.996 313.268 375.612 325.497 375.612C337.727 375.612 337.73 412.996 349.963 412.996C362.196 412.996 354.497 384.236 365.089 378.117C375.682 371.998 396.721 393.051 402.839 382.451C408.954 371.851 376.6 353.159 382.718 342.56C388.836 331.96 421.19 350.652 427.305 340.049C433.423 329.449 404.681 321.741 404.681 309.5C404.681 297.259 433.423 289.554 427.305 278.955C421.19 268.355 388.836 287.047 382.718 276.447C376.6 265.848 408.134 239.773 398.885 231.762C390.395 224.413 375.685 247.003 365.089 240.884Z" stroke="white" stroke-width="0.30159" stroke-miterlimit="10"/>
<path d="M362.847 244.769C352.853 238.995 360.12 211.862 348.58 211.862C337.041 211.862 337.041 247.13 325.501 247.13C313.961 247.13 313.961 211.862 302.418 211.862C290.875 211.862 298.142 238.995 288.148 244.769C278.154 250.542 258.306 230.681 252.536 240.679C246.766 250.679 277.288 268.313 271.519 278.313C265.749 288.314 235.227 270.68 229.453 280.681C223.684 290.681 250.798 297.953 250.795 309.5C250.795 321.048 223.68 328.316 229.45 338.316C235.22 348.317 265.742 330.683 271.512 340.681C277.282 350.681 246.76 368.315 252.53 378.319C258.3 388.319 278.151 368.458 288.145 374.232C298.139 380.005 290.872 407.138 302.412 407.138C313.951 407.138 313.951 371.871 325.491 371.871C337.031 371.871 337.031 407.138 348.574 407.138C360.117 407.138 352.85 380.005 362.844 374.232C372.838 368.458 392.686 388.319 398.456 378.322C404.226 368.321 373.704 350.688 379.474 340.687C385.243 330.687 415.766 348.32 421.539 338.32C427.309 328.319 400.194 321.048 400.197 309.5C400.197 297.953 427.312 290.684 421.542 280.684C415.772 270.683 385.25 288.317 379.48 278.32C373.71 268.319 403.458 243.72 394.73 236.165C386.721 229.229 372.841 250.546 362.847 244.769Z" stroke="white" stroke-width="0.30159" stroke-miterlimit="10"/>
<path d="M360.736 248.432C351.309 242.984 358.162 217.389 347.276 217.389C336.391 217.389 336.391 250.66 325.505 250.66C314.62 250.66 314.616 217.389 303.731 217.389C292.845 217.389 299.695 242.984 290.268 248.432C280.84 253.88 262.115 235.14 256.67 244.577C251.226 254.011 280.023 270.648 274.579 280.082C269.134 289.516 240.34 272.882 234.896 282.316C229.451 291.75 255.03 298.611 255.03 309.504C255.03 320.396 229.451 327.255 234.892 336.688C240.337 346.122 269.131 329.485 274.572 338.919C280.016 348.353 251.219 364.99 256.664 374.424C262.108 383.858 280.833 365.12 290.261 370.568C299.689 376.016 292.835 401.612 303.721 401.612C314.607 401.612 314.606 368.341 325.492 368.341C336.378 368.341 336.381 401.612 347.267 401.612C358.152 401.612 351.302 376.016 360.73 370.568C370.157 365.12 388.883 383.861 394.327 374.424C399.772 364.99 370.974 348.353 376.419 338.919C381.863 329.485 410.657 346.119 416.102 336.685C421.546 327.251 395.967 320.39 395.967 309.497C395.967 298.604 421.546 291.746 416.105 282.312C410.661 272.878 381.866 289.516 376.425 280.082C370.981 270.648 399.046 247.442 390.813 240.314C383.256 233.772 370.164 253.88 360.733 248.432H360.736Z" stroke="white" stroke-width="0.30159" stroke-miterlimit="10"/>
<path d="M358.741 251.887C349.847 246.749 356.313 222.602 346.042 222.602C335.772 222.602 335.772 253.991 325.501 253.991C315.231 253.991 315.231 222.602 304.96 222.602C294.69 222.602 301.156 246.749 292.259 251.887C283.365 257.026 265.7 239.35 260.565 248.25C255.43 257.15 282.597 272.842 277.461 281.742C272.326 290.642 245.159 274.949 240.024 283.849C234.888 292.749 259.019 299.22 259.019 309.5C259.019 319.778 234.888 326.248 240.024 335.148C245.159 344.048 272.323 328.355 277.458 337.255C282.593 346.155 255.43 361.851 260.565 370.751C265.7 379.65 283.365 361.975 292.262 367.113C301.156 372.252 294.69 396.398 304.96 396.398C315.231 396.398 315.231 365.01 325.501 365.01C335.772 365.01 335.772 396.398 346.042 396.398C356.313 396.398 349.847 372.252 358.744 367.113C367.638 361.975 385.302 379.65 390.438 370.751C395.573 361.851 368.406 346.158 373.541 337.258C378.677 328.358 405.844 344.051 410.979 335.151C416.114 326.251 391.983 319.781 391.983 309.5C391.983 299.223 416.114 292.752 410.979 283.852C405.844 274.953 378.68 290.645 373.545 281.746C368.409 272.846 394.886 250.953 387.118 244.228C379.988 238.057 367.638 257.026 358.744 251.887H358.741Z" stroke="white" stroke-width="0.30159" stroke-miterlimit="10"/>
<path d="M356.857 255.15C348.468 250.301 354.566 227.522 344.878 227.522C335.19 227.522 335.19 257.133 325.502 257.133C315.814 257.133 315.811 227.522 306.123 227.522C296.434 227.522 302.533 250.305 294.14 255.15C285.751 259.999 269.085 243.319 264.24 251.718C259.394 260.113 285.022 274.92 280.179 283.315C275.334 291.713 249.706 276.906 244.86 285.305C240.015 293.703 262.782 299.806 262.782 309.503C262.782 319.198 240.015 325.304 244.86 333.699C249.706 342.094 275.334 327.29 280.176 335.685C285.022 344.084 259.394 358.887 264.24 367.286C269.085 375.684 285.751 359.008 294.14 363.857C302.53 368.706 296.431 391.484 306.119 391.484C315.807 391.484 315.807 361.874 325.495 361.874C335.184 361.874 335.187 391.484 344.875 391.484C354.563 391.484 348.464 368.702 356.857 363.857C365.247 359.008 381.912 375.687 386.758 367.289C391.603 358.894 365.976 344.087 370.818 335.692C375.664 327.293 401.291 342.1 406.137 333.702C410.983 325.304 388.216 319.201 388.216 309.503C388.216 299.809 410.983 293.703 406.137 285.308C401.291 276.913 375.664 291.717 370.821 283.322C365.976 274.923 390.956 254.271 383.627 247.927C376.9 242.105 365.25 259.999 356.857 255.153V255.15Z" stroke="white" stroke-width="0.30159" stroke-miterlimit="10"/>
<path d="M355.084 258.224C347.169 253.652 352.923 232.16 343.782 232.16C334.64 232.16 334.64 260.097 325.502 260.097C316.364 260.097 316.361 232.16 307.22 232.16C298.078 232.16 303.832 253.652 295.917 258.224C288.003 262.796 272.281 247.064 267.709 254.987C263.14 262.907 287.316 276.877 282.747 284.797C278.178 292.72 253.999 278.75 249.43 286.673C244.857 294.595 266.336 300.353 266.336 309.5C266.336 318.648 244.857 324.405 249.43 332.325C253.999 340.244 278.178 326.277 282.747 334.197C287.316 342.12 263.14 356.087 267.712 364.01C272.285 371.933 288.006 356.201 295.921 360.773C303.835 365.345 298.081 386.837 307.223 386.837C316.364 386.837 316.364 358.9 325.502 358.9C334.64 358.9 334.644 386.837 343.785 386.837C352.926 386.837 347.173 365.345 355.09 360.773C363.005 356.201 378.73 371.933 383.299 364.013C387.868 356.093 363.692 342.123 368.261 334.204C372.833 326.281 397.009 340.251 401.578 332.328C406.15 324.405 384.672 318.648 384.672 309.5C384.672 300.353 406.15 294.595 401.578 286.676C397.009 278.756 372.83 292.723 368.261 284.803C363.688 276.88 387.253 257.397 380.341 251.412C373.995 245.918 363.002 262.803 355.087 258.227L355.084 258.224Z" stroke="white" stroke-width="0.30159" stroke-miterlimit="10"/>
<path d="M426.739 208.192C413.084 194.528 422.056 172.856 402.745 172.856C383.434 172.856 383.434 214.252 364.126 214.252C344.819 214.252 344.815 172.856 325.504 172.856C306.193 172.856 306.193 214.252 286.882 214.252C267.571 214.252 267.571 172.856 248.257 172.856C228.943 172.856 237.915 194.528 224.26 208.192C210.605 221.856 188.947 212.878 188.947 232.202C188.947 251.526 230.316 251.526 230.316 270.846C230.316 290.167 188.947 290.17 188.947 309.494C188.947 328.817 230.316 328.817 230.316 348.141C230.316 367.465 188.947 367.465 188.947 386.792C188.947 406.119 210.605 397.141 224.26 410.805C237.915 424.469 228.943 446.14 248.254 446.14C267.565 446.14 267.565 404.744 286.873 404.744C306.18 404.744 306.184 446.14 325.495 446.14C344.806 446.14 344.806 404.744 364.117 404.744C383.428 404.744 383.428 446.14 402.742 446.14C422.056 446.14 413.084 424.469 426.739 410.805C440.394 397.141 462.052 406.119 462.052 386.795C462.052 367.471 420.683 367.471 420.683 348.151C420.683 328.83 462.052 328.827 462.052 309.503C462.052 290.18 420.683 290.18 420.683 270.856C420.683 251.532 462.433 251.115 462.049 231.795C461.765 217.532 440.394 221.856 426.739 208.192Z" stroke="white" stroke-width="0.285548" stroke-miterlimit="10"/>
<path d="M421.008 213.927C408.127 201.034 416.589 180.594 398.371 180.594C380.153 180.594 380.153 219.648 361.936 219.648C343.718 219.648 343.718 180.594 325.501 180.594C307.283 180.594 307.283 219.648 289.065 219.648C270.848 219.648 270.848 180.594 252.627 180.594C234.409 180.594 242.871 201.038 229.987 213.93C217.103 226.819 196.676 218.352 196.676 236.582C196.676 254.811 235.705 254.811 235.705 273.041C235.705 291.27 196.676 291.27 196.676 309.5C196.676 327.73 235.705 327.73 235.705 345.959C235.705 364.189 196.676 364.189 196.676 382.422C196.676 400.654 217.106 392.184 229.99 405.077C242.871 417.969 234.409 438.41 252.627 438.41C270.845 438.41 270.845 399.355 289.062 399.355C307.28 399.355 307.28 438.41 325.497 438.41C343.715 438.41 343.715 399.355 361.933 399.355C380.15 399.355 380.15 438.41 398.371 438.41C416.592 438.41 408.127 417.966 421.011 405.073C433.895 392.184 454.322 400.651 454.322 382.422C454.322 364.192 415.293 364.192 415.293 345.962C415.293 327.733 454.322 327.733 454.322 309.503C454.322 291.274 415.293 291.274 415.293 273.044C415.293 254.815 454.68 254.421 454.319 236.194C454.052 222.739 433.892 226.819 421.008 213.927Z" stroke="white" stroke-width="0.285548" stroke-miterlimit="10"/>
<path d="M415.603 219.336C403.451 207.176 411.434 187.888 394.248 187.888C377.062 187.888 377.062 224.732 359.876 224.732C342.69 224.732 342.69 187.888 325.504 187.888C308.318 187.888 308.318 224.732 291.129 224.732C273.94 224.732 273.94 187.888 256.754 187.888C239.568 187.888 247.55 207.176 235.396 219.336C223.244 231.495 203.969 223.507 203.969 240.704C203.969 257.902 240.788 257.902 240.788 275.099C240.788 292.296 203.969 292.296 203.969 309.494C203.969 326.691 240.788 326.691 240.788 343.891C240.788 361.092 203.969 361.092 203.969 378.289C203.969 395.486 223.244 387.498 235.396 399.661C247.547 411.821 239.564 431.109 256.75 431.109C273.936 431.109 273.936 394.265 291.122 394.265C308.308 394.265 308.308 431.109 325.494 431.109C342.68 431.109 342.68 394.265 359.869 394.265C377.059 394.265 377.059 431.109 394.245 431.109C411.431 431.109 403.448 411.821 415.603 399.661C427.754 387.502 447.029 395.49 447.029 378.292C447.029 361.095 410.21 361.095 410.21 343.898C410.21 326.701 447.029 326.701 447.029 309.503C447.029 292.306 410.21 292.306 410.21 275.105C410.21 257.905 447.368 257.537 447.026 240.343C446.776 227.649 427.754 231.498 415.603 219.336Z" stroke="white" stroke-width="0.285548" stroke-miterlimit="10"/>
<path d="M410.502 224.442C399.038 212.969 406.571 194.775 390.355 194.775C374.139 194.775 374.142 229.535 357.929 229.535C341.716 229.535 341.716 194.775 325.503 194.775C309.29 194.775 309.29 229.535 293.074 229.535C276.858 229.535 276.858 194.775 260.645 194.775C244.432 194.775 251.963 212.972 240.494 224.445C229.029 235.917 210.848 228.379 210.848 244.605C210.848 260.832 245.584 260.829 245.584 277.053C245.584 293.276 210.848 293.276 210.848 309.5C210.848 325.723 245.584 325.723 245.584 341.95C245.584 358.177 210.848 358.177 210.848 374.401C210.848 390.624 229.033 383.089 240.498 394.565C251.963 406.037 244.429 424.231 260.645 424.231C276.861 424.231 276.858 389.472 293.071 389.472C309.284 389.472 309.284 424.231 325.497 424.231C341.71 424.231 341.71 389.472 357.926 389.472C374.142 389.472 374.142 424.231 390.355 424.231C406.568 424.231 399.038 406.034 410.506 394.561C421.971 383.089 440.152 390.628 440.152 374.401C440.152 358.174 405.416 358.177 405.416 341.954C405.416 325.73 440.152 325.73 440.152 309.506C440.152 293.283 405.416 293.283 405.416 277.056C405.416 260.829 440.468 260.484 440.149 244.26C439.912 232.283 421.971 235.917 410.502 224.442Z" stroke="white" stroke-width="0.285548" stroke-miterlimit="10"/>
<path d="M405.691 229.255C394.876 218.43 401.981 201.266 386.685 201.266C371.39 201.266 371.39 234.055 356.095 234.055C340.8 234.055 340.8 201.266 325.504 201.266C310.209 201.266 310.209 234.055 294.911 234.055C279.612 234.055 279.612 201.266 264.317 201.266C249.022 201.266 256.126 218.43 245.309 229.255C234.491 240.076 217.338 232.967 217.338 248.272C217.338 263.578 250.105 263.578 250.105 278.883C250.105 294.188 217.338 294.188 217.338 309.493C217.338 324.799 250.105 324.799 250.105 340.107C250.105 355.416 217.338 355.416 217.338 370.721C217.338 386.026 234.491 378.918 245.309 389.742C256.123 400.566 249.019 417.731 264.314 417.731C279.609 417.731 279.609 384.942 294.904 384.942C310.199 384.942 310.199 417.731 325.495 417.731C340.79 417.731 340.79 384.942 356.088 384.942C371.387 384.942 371.387 417.731 386.682 417.731C401.977 417.731 394.873 400.566 405.691 389.742C416.508 378.921 433.661 386.03 433.661 370.724C433.661 355.419 400.894 355.419 400.894 340.114C400.894 324.809 433.661 324.809 433.661 309.503C433.661 294.198 400.894 294.198 400.894 278.889C400.894 263.581 433.964 263.255 433.658 247.95C433.433 236.65 416.508 240.079 405.691 229.255Z" stroke="white" stroke-width="0.285548" stroke-miterlimit="10"/>
<path d="M401.15 233.797C390.948 223.585 397.651 207.394 383.219 207.394C368.786 207.394 368.789 238.327 354.359 238.327C339.93 238.327 339.93 207.394 325.5 207.394C311.071 207.394 311.071 238.327 296.638 238.327C282.205 238.327 282.205 207.394 267.775 207.394C253.346 207.394 260.046 223.588 249.841 233.797C239.635 244.006 223.455 237.298 223.455 251.74C223.455 266.183 254.368 266.179 254.368 280.618C254.368 295.057 223.455 295.057 223.455 309.497C223.455 323.936 254.368 323.936 254.368 338.378C254.368 352.82 223.455 352.817 223.455 367.259C223.455 381.702 239.639 374.993 249.841 385.206C260.043 395.418 253.339 411.609 267.772 411.609C282.205 411.609 282.202 380.676 296.631 380.676C311.061 380.676 311.061 411.609 325.491 411.609C339.92 411.609 339.92 380.676 354.353 380.676C368.786 380.676 368.783 411.609 383.215 411.609C397.648 411.609 390.944 395.415 401.15 385.206C411.355 374.997 427.536 381.705 427.536 367.263C427.536 352.82 396.623 352.824 396.623 338.384C396.623 323.945 427.536 323.945 427.536 309.506C427.536 295.067 396.623 295.067 396.623 280.625C396.623 266.183 427.822 265.873 427.536 251.437C427.324 240.779 411.355 244.009 401.15 233.801V233.797Z" stroke="white" stroke-width="0.285548" stroke-miterlimit="10"/>
<path d="M396.868 238.083C387.242 228.45 393.565 213.174 379.952 213.174C366.34 213.174 366.34 242.359 352.727 242.359C339.114 242.359 339.114 213.174 325.501 213.174C311.888 213.174 311.888 242.359 298.272 242.359C284.656 242.359 284.656 213.174 271.044 213.174C257.431 213.174 263.754 228.45 254.125 238.083C244.498 247.715 229.232 241.388 229.232 255.01C229.232 268.632 258.397 268.632 258.397 282.253C258.397 295.875 229.232 295.875 229.232 309.497C229.232 323.118 258.397 323.118 258.397 336.743C258.397 350.368 229.232 350.365 229.232 363.99C229.232 377.615 244.498 371.284 254.125 380.92C263.751 390.553 257.428 405.829 271.04 405.829C284.653 405.829 284.653 376.644 298.266 376.644C311.879 376.644 311.879 405.829 325.491 405.829C339.104 405.829 339.104 376.644 352.72 376.644C366.336 376.644 366.336 405.829 379.949 405.829C393.562 405.829 387.239 390.553 396.868 380.92C406.494 371.288 421.76 377.615 421.76 363.993C421.76 350.372 392.595 350.372 392.595 336.75C392.595 323.128 421.76 323.128 421.76 309.506C421.76 295.885 392.595 295.885 392.595 282.26C392.595 268.635 422.027 268.345 421.757 254.723C421.559 244.667 406.491 247.719 396.865 238.083H396.868Z" stroke="white" stroke-width="0.285548" stroke-miterlimit="10"/>
<path d="M392.829 242.124C383.75 233.035 389.715 218.625 376.873 218.625C364.032 218.625 364.032 246.155 351.19 246.155C338.349 246.155 338.349 218.625 325.504 218.625C312.659 218.625 312.659 246.155 299.818 246.155C286.976 246.155 286.973 218.625 274.132 218.625C261.29 218.625 267.252 233.039 258.173 242.124C249.09 251.209 234.689 245.24 234.689 258.09C234.689 270.94 262.201 270.94 262.201 283.79C262.201 296.64 234.689 296.64 234.689 309.493C234.689 322.346 262.201 322.346 262.201 335.196C262.201 348.046 234.689 348.05 234.689 360.899C234.689 373.749 249.093 367.784 258.176 376.869C267.255 385.958 261.29 400.368 274.132 400.368C286.973 400.368 286.973 372.838 299.815 372.838C312.656 372.838 312.656 400.368 325.501 400.368C338.346 400.368 338.346 372.838 351.187 372.838C364.029 372.838 364.032 400.368 376.873 400.368C389.715 400.368 383.753 385.955 392.832 376.869C401.915 367.784 416.315 373.753 416.315 360.903C416.315 348.053 388.804 348.053 388.804 335.203C388.804 322.353 416.315 322.353 416.315 309.5C416.315 296.647 388.804 296.647 388.804 283.797C388.804 270.947 416.569 270.67 416.315 257.82C416.127 248.334 401.915 251.209 392.832 242.121L392.829 242.124Z" stroke="white" stroke-width="0.285548" stroke-miterlimit="10"/>
<path d="M389.019 245.937C380.454 237.363 386.08 223.768 373.965 223.768C361.849 223.768 361.849 249.741 349.733 249.741C337.617 249.741 337.617 223.768 325.502 223.768C313.386 223.768 313.386 249.741 301.27 249.741C289.154 249.741 289.154 223.768 277.035 223.768C264.916 223.768 270.546 237.363 261.978 245.937C253.409 254.508 239.822 248.878 239.822 261.002C239.822 273.125 265.779 273.125 265.779 285.249C265.779 297.373 239.822 297.373 239.822 309.497C239.822 321.62 265.779 321.62 265.779 333.744C265.779 345.868 239.822 345.868 239.822 357.995C239.822 370.122 253.409 364.488 261.978 373.062C270.543 381.637 264.916 395.232 277.032 395.232C289.148 395.232 289.148 369.259 301.264 369.259C313.379 369.259 313.379 395.232 325.495 395.232C337.611 395.232 337.611 369.259 349.727 369.259C361.842 369.259 361.842 395.232 373.961 395.232C386.08 395.232 380.451 381.637 389.019 373.062C397.588 364.491 411.174 370.122 411.174 357.998C411.174 345.874 385.218 345.874 385.218 333.751C385.218 321.627 411.174 321.627 411.174 309.503C411.174 297.379 385.218 297.379 385.218 285.256C385.218 273.132 411.412 272.871 411.171 260.748C410.992 251.799 397.584 254.512 389.019 245.937Z" stroke="white" stroke-width="0.285548" stroke-miterlimit="10"/>
<path d="M385.422 249.536C377.342 241.447 382.65 228.623 371.221 228.623C359.792 228.623 359.792 253.125 348.362 253.125C336.933 253.125 336.933 228.623 325.501 228.623C314.069 228.623 314.072 253.125 302.639 253.125C291.207 253.125 291.207 228.623 279.778 228.623C268.349 228.623 273.657 241.45 265.573 249.539C257.489 257.625 244.674 252.314 244.674 263.75C244.674 275.187 269.159 275.187 269.159 286.624C269.159 298.06 244.674 298.06 244.674 309.5C244.674 320.94 269.159 320.937 269.159 332.377C269.159 343.816 244.674 343.816 244.674 355.253C244.674 366.69 257.493 361.378 265.576 369.467C273.657 377.556 268.349 390.38 279.778 390.38C291.207 390.38 291.207 365.879 302.636 365.879C314.065 365.879 314.065 390.38 325.498 390.38C336.93 390.38 336.927 365.879 348.359 365.879C359.792 365.879 359.792 390.38 371.221 390.38C382.65 390.38 377.342 377.553 385.426 369.464C393.509 361.378 406.325 366.69 406.325 355.253C406.325 343.816 381.84 343.816 381.84 332.38C381.84 320.943 406.325 320.943 406.325 309.503C406.325 298.063 381.84 298.067 381.84 286.627C381.84 275.187 406.549 274.943 406.325 263.506C406.159 255.062 393.509 257.625 385.426 249.536H385.422Z" stroke="white" stroke-width="0.285548" stroke-miterlimit="10"/>
<path d="M382.032 252.929C374.407 245.299 379.416 233.198 368.634 233.198C357.853 233.198 357.853 256.316 347.068 256.316C336.283 256.316 336.286 233.198 325.502 233.198C314.717 233.198 314.717 256.316 303.935 256.316C293.154 256.316 293.151 233.198 282.369 233.198C271.588 233.198 276.593 245.299 268.968 252.929C261.343 260.559 249.25 255.547 249.25 266.336C249.25 277.124 272.352 277.124 272.352 287.916C272.352 298.708 249.25 298.705 249.25 309.497C249.25 320.289 272.352 320.289 272.352 331.077C272.352 341.866 249.25 341.869 249.25 352.658C249.25 363.446 261.343 358.438 268.968 366.068C276.593 373.697 271.584 385.798 282.366 385.798C293.147 385.798 293.147 362.681 303.932 362.681C314.717 362.681 314.714 385.798 325.498 385.798C336.283 385.798 336.283 362.681 347.065 362.681C357.846 362.681 357.849 385.798 368.631 385.798C379.412 385.798 374.407 373.697 382.032 366.068C389.657 358.438 401.75 363.449 401.75 352.661C401.75 341.872 378.648 341.872 378.648 331.08C378.648 320.289 401.75 320.292 401.75 309.5C401.75 298.708 378.648 298.708 378.648 287.92C378.648 277.131 401.961 276.896 401.747 266.108C401.587 258.143 389.657 260.559 382.032 252.929Z" stroke="white" stroke-width="0.285548" stroke-miterlimit="10"/>
<path d="M378.832 256.133C371.64 248.937 376.366 237.52 366.193 237.52C356.02 237.52 356.02 259.328 345.847 259.328C335.674 259.328 335.674 237.52 325.501 237.52C315.328 237.52 315.328 259.328 305.155 259.328C294.982 259.328 294.982 237.52 284.809 237.52C274.636 237.52 279.361 248.937 272.166 256.133C264.974 263.33 253.564 258.602 253.564 268.781C253.564 278.961 275.359 278.961 275.359 289.141C275.359 299.32 253.564 299.32 253.564 309.5C253.564 319.68 275.359 319.68 275.359 329.859C275.359 340.039 253.564 340.039 253.564 350.219C253.564 360.398 264.974 355.67 272.166 362.87C279.358 370.067 274.633 381.484 284.806 381.484C294.979 381.484 294.979 359.675 305.152 359.675C315.325 359.675 315.325 381.484 325.498 381.484C335.671 381.484 335.671 359.675 345.844 359.675C356.016 359.675 356.016 381.484 366.189 381.484C376.362 381.484 371.637 370.067 378.832 362.87C386.024 355.673 397.434 360.401 397.434 350.222C397.434 340.042 375.64 340.042 375.64 329.862C375.64 319.683 397.434 319.683 397.434 309.503C397.434 299.324 375.64 299.324 375.64 289.144C375.64 278.964 397.633 278.746 397.431 268.566C397.281 261.054 386.024 263.33 378.832 256.133Z" stroke="white" stroke-width="0.285548" stroke-miterlimit="10"/>
<path d="M375.812 259.152C369.027 252.362 373.485 241.593 363.888 241.593C354.292 241.593 354.292 262.167 344.695 262.167C335.098 262.167 335.098 241.593 325.501 241.593C315.904 241.593 315.904 262.167 306.307 262.167C296.71 262.167 296.71 241.593 287.113 241.593C277.516 241.593 281.974 252.362 275.186 259.155C268.401 265.945 257.639 261.484 257.639 271.087C257.639 280.69 278.199 280.69 278.199 290.293C278.199 299.897 257.639 299.897 257.639 309.5C257.639 319.103 278.199 319.103 278.199 328.706C278.199 338.31 257.639 338.31 257.639 347.913C257.639 357.516 268.401 353.055 275.189 359.848C281.974 366.637 277.516 377.406 287.113 377.406C296.71 377.406 296.71 356.832 306.307 356.832C315.904 356.832 315.904 377.406 325.501 377.406C335.098 377.406 335.098 356.832 344.695 356.832C354.292 356.832 354.292 377.406 363.888 377.406C373.485 377.406 369.027 366.637 375.815 359.844C382.601 353.055 393.363 357.516 393.363 347.913C393.363 338.31 372.802 338.31 372.802 328.706C372.802 319.103 393.363 319.103 393.363 309.5C393.363 299.897 372.802 299.897 372.802 290.293C372.802 280.69 393.551 280.485 393.359 270.882C393.22 263.792 382.597 265.942 375.812 259.152Z" stroke="white" stroke-width="0.285548" stroke-miterlimit="10"/>
<path d="M372.964 262.005C366.563 255.6 370.768 245.439 361.714 245.439C352.661 245.439 352.661 264.848 343.607 264.848C334.554 264.848 334.554 245.439 325.5 245.439C316.447 245.439 316.447 264.848 307.393 264.848C298.34 264.848 298.34 245.439 289.283 245.439C280.227 245.439 284.434 255.6 278.033 262.005C271.632 268.41 261.479 264.203 261.479 273.262C261.479 282.322 280.874 282.322 280.874 291.381C280.874 300.441 261.479 300.441 261.479 309.5C261.479 318.56 280.874 318.56 280.874 327.619C280.874 336.678 261.479 336.678 261.479 345.741C261.479 354.804 271.632 350.593 278.033 356.999C284.434 363.404 280.23 373.564 289.283 373.564C298.337 373.564 298.337 354.156 307.39 354.156C316.444 354.156 316.444 373.564 325.497 373.564C334.551 373.564 334.551 354.156 343.604 354.156C352.658 354.156 352.658 373.564 361.714 373.564C370.771 373.564 366.563 363.404 372.964 356.999C379.366 350.593 389.519 354.801 389.519 345.741C389.519 336.682 370.123 336.682 370.123 327.622C370.123 318.563 389.519 318.563 389.519 309.503C389.519 300.444 370.123 300.444 370.123 291.385C370.123 282.325 389.698 282.13 389.516 273.07C389.382 266.382 379.366 268.41 372.961 262.005H372.964Z" stroke="white" stroke-width="0.285548" stroke-miterlimit="10"/>
<path d="M370.277 264.691C364.237 258.647 368.204 249.063 359.665 249.063C351.126 249.063 351.126 267.374 342.583 267.374C334.041 267.374 334.041 249.063 325.501 249.063C316.962 249.063 316.959 267.374 308.42 267.374C299.88 267.374 299.877 249.063 291.335 249.063C282.792 249.063 286.759 258.647 280.719 264.691C274.679 270.735 265.102 266.766 265.102 275.31C265.102 283.855 283.401 283.855 283.401 292.403C283.401 300.952 265.102 300.952 265.102 309.497C265.102 318.041 283.401 318.045 283.401 326.59C283.401 335.135 265.102 335.138 265.102 343.686C265.102 352.234 274.679 348.264 280.719 354.308C286.759 360.352 282.792 369.936 291.331 369.936C299.871 369.936 299.871 351.625 308.413 351.625C316.956 351.625 316.956 369.936 325.495 369.936C334.034 369.936 334.037 351.625 342.577 351.625C351.116 351.625 351.119 369.936 359.662 369.936C368.204 369.936 364.237 360.352 370.277 354.308C376.317 348.264 385.895 352.234 385.895 343.689C385.895 335.144 367.596 335.144 367.596 326.596C367.596 318.048 385.895 318.048 385.895 309.503C385.895 300.958 367.596 300.955 367.596 292.41C367.596 283.865 386.061 283.679 385.892 275.135C385.768 268.827 376.314 270.738 370.274 264.694L370.277 264.691Z" stroke="white" stroke-width="0.285548" stroke-miterlimit="10"/>
<path d="M367.741 267.228C362.043 261.526 365.785 252.483 357.728 252.483C349.67 252.483 349.67 269.755 341.613 269.755C333.555 269.755 333.555 252.483 325.497 252.483C317.44 252.483 317.44 269.755 309.382 269.755C301.324 269.755 301.324 252.483 293.267 252.483C285.209 252.483 288.951 261.526 283.253 267.228C277.555 272.93 268.518 269.185 268.518 277.248C268.518 285.311 285.778 285.311 285.778 293.374C285.778 301.437 268.518 301.437 268.518 309.5C268.518 317.563 285.778 317.563 285.778 325.626C285.778 333.689 268.518 333.689 268.518 341.752C268.518 349.815 277.555 346.07 283.253 351.772C288.951 357.474 285.209 366.517 293.267 366.517C301.324 366.517 301.324 349.245 309.382 349.245C317.44 349.245 317.44 366.517 325.497 366.517C333.555 366.517 333.555 349.245 341.613 349.245C349.67 349.245 349.67 366.517 357.728 366.517C365.785 366.517 362.043 357.474 367.741 351.772C373.44 346.07 382.477 349.815 382.477 341.755C382.477 333.695 365.216 333.692 365.216 325.629C365.216 317.566 382.477 317.566 382.477 309.503C382.477 301.44 365.216 301.44 365.216 293.377C365.216 285.314 382.636 285.142 382.477 277.079C382.36 271.126 373.443 272.933 367.745 267.231L367.741 267.228Z" stroke="white" stroke-width="0.285548" stroke-miterlimit="10"/>
</g>
</g>
<defs>
<clipPath id="clip0_2108_25826">
<rect width="404.5" height="338" fill="white"/>
</clipPath>
<clipPath id="clip1_2108_25826">
<rect width="368" height="371" fill="white" transform="translate(141.5 124)"/>
</clipPath>
</defs>
</svg>
