<svg width="717" height="129" viewBox="0 0 717 129" fill="none" xmlns="http://www.w3.org/2000/svg">
  <g opacity="0.15">
    <path d="M0 127.043V1.95725H24.2349V127.043H0Z" fill="#265ADE"/>
    <path d="M49.9441 127.043V1.95725H66.8729L74.179 26.1559V127.043H49.9441ZM136.548 127.043L62.2398 30.96L66.8729 1.95725L141.181 98.04L136.548 127.043ZM136.548 127.043L129.599 103.556V1.95725H154.012V127.043H136.548Z" fill="#265ADE"/>
    <path d="M219.511 127.043L170.15 1.95725H196.345L234.479 103.2H224.322L262.813 1.95725H288.651L238.756 127.043H219.511Z" fill="#265ADE"/>
    <path d="M357.944 129C348.796 129 340.243 127.339 332.283 124.018C324.443 120.697 317.552 116.13 311.612 110.317C305.791 104.386 301.218 97.5062 297.891 89.6772C294.565 81.7297 292.902 73.2483 292.902 64.2331C292.902 55.2179 294.505 46.8552 297.713 39.1448C301.039 31.3159 305.613 24.4952 311.434 18.6828C317.374 12.7517 324.264 8.18483 332.105 4.98207C339.946 1.66069 348.44 0 357.587 0C366.854 0 375.407 1.66069 383.248 4.98207C391.089 8.18483 397.92 12.7517 403.741 18.6828C409.681 24.4952 414.314 31.3159 417.64 39.1448C420.967 46.9738 422.63 55.3959 422.63 64.411C422.63 73.4262 420.967 81.8483 417.64 89.6772C414.314 97.5062 409.681 104.386 403.741 110.317C397.92 116.13 391.089 120.697 383.248 124.018C375.526 127.339 367.091 129 357.944 129ZM357.587 106.403C365.666 106.403 372.675 104.623 378.615 101.065C384.555 97.5062 389.188 92.5834 392.514 86.2965C395.959 80.0097 397.682 72.6552 397.682 64.2331C397.682 58.0648 396.732 52.4303 394.831 47.3297C392.93 42.229 390.198 37.84 386.634 34.1628C383.07 30.3669 378.852 27.4607 373.982 25.4441C369.111 23.4276 363.646 22.4193 357.587 22.4193C349.747 22.4193 342.797 24.1986 336.738 27.7572C330.798 31.1972 326.106 36.0607 322.661 42.3476C319.334 48.6345 317.671 55.9297 317.671 64.2331C317.671 70.52 318.622 76.2731 320.522 81.4924C322.542 86.7117 325.274 91.16 328.719 94.8372C332.283 98.5145 336.501 101.361 341.371 103.378C346.361 105.394 351.766 106.403 357.587 106.403Z" fill="#265ADE"/>
    <path d="M476.192 127.043L426.831 1.95725H453.026L491.161 103.2H481.003L519.494 1.95725H545.333L495.437 127.043H476.192Z" fill="#265ADE"/>
    <path d="M561.741 127.043V1.95725H585.976V127.043H561.741Z" fill="#265ADE"/>
    <path d="M669.778 128.822C660.63 128.822 652.136 127.221 644.295 124.018C636.455 120.697 629.564 116.13 623.624 110.317C617.803 104.386 613.289 97.5062 610.081 89.6772C606.992 81.8483 605.448 73.4262 605.448 64.411C605.448 55.3959 606.992 46.9738 610.081 39.1448C613.289 31.3159 617.803 24.4952 623.624 18.6828C629.564 12.8703 636.395 8.30345 644.117 4.98207C651.958 1.66069 660.511 0 669.778 0C679.757 0 688.548 1.66069 696.151 4.98207C703.754 8.18483 710.466 12.6331 716.287 18.3269L699.893 34.6965C696.448 30.9007 692.23 27.9352 687.241 25.8C682.251 23.6648 676.43 22.5972 669.778 22.5972C663.956 22.5972 658.61 23.6055 653.74 25.6221C648.988 27.52 644.83 30.3669 641.266 34.1628C637.702 37.84 634.97 42.2883 633.069 47.5076C631.168 52.6083 630.218 58.2428 630.218 64.411C630.218 70.6979 631.168 76.3917 633.069 81.4924C634.97 86.5931 637.702 91.0414 641.266 94.8372C644.83 98.5145 648.988 101.361 653.74 103.378C658.61 105.394 663.956 106.403 669.778 106.403C676.787 106.403 682.786 105.335 687.776 103.2C692.884 101.065 697.161 98.04 700.606 94.1255L717 110.495C711.179 116.308 704.407 120.815 696.685 124.018C688.964 127.221 679.994 128.822 669.778 128.822Z" fill="#265ADE"/>
  </g>
</svg>