<svg width="710" height="155" viewBox="0 0 710 155" fill="none" xmlns="http://www.w3.org/2000/svg">
  <path d="M0 152.019V2.98077H30.5622V61.7445L85.3194 2.98077H122.673L59.6387 71.3256L133.497 152.019H94.4456L30.5622 83.2486V152.019H0Z" fill="white"/>
  <path d="M149.851 152.019V2.98077H219.677C233.26 2.98077 244.155 6.24542 252.362 12.7747C260.568 19.1621 264.671 28.3173 264.671 40.2404C264.671 47.6213 262.761 53.9377 258.941 59.1896C255.262 64.2995 250.947 67.848 245.995 69.8352C254.201 71.6804 261.276 76.0806 267.218 83.0357C273.161 89.9908 276.132 98.8622 276.132 109.65C276.132 122.283 271.463 132.502 262.125 140.309C252.786 148.116 240.264 152.019 224.559 152.019H149.851ZM180.413 125.618H218.828C226.469 125.618 232.411 123.986 236.656 120.721C240.901 117.315 243.023 112.489 243.023 106.243C243.023 99.8558 240.901 95.0298 236.656 91.7651C232.411 88.3585 226.469 86.6552 218.828 86.6552H180.413V125.618ZM180.413 61.3187H214.796C221.163 61.3187 226.115 59.8993 229.652 57.0604C233.331 54.2216 235.171 50.2473 235.171 45.1374C235.171 39.7436 233.402 35.6273 229.865 32.7885C226.327 29.9496 221.304 28.5302 214.796 28.5302H180.413V61.3187Z" fill="white"/>
  <path d="M288.828 152.019L352.5 2.12912H381.788L445.459 152.019H412.987L398.343 117.527H335.521L320.876 152.019H288.828ZM345.071 92.1909H388.58L366.932 40.4533L345.071 92.1909Z" fill="white"/>
  <path d="M514.337 155C491.981 155 473.163 149.677 457.882 139.032V107.095C464.249 112.489 472.597 117.173 482.926 121.147C493.255 124.979 503.301 126.896 513.064 126.896C520.987 126.896 527.708 125.476 533.226 122.637C538.886 119.657 541.716 115.327 541.716 109.65C541.716 107.804 541.503 106.172 541.079 104.753C540.655 103.333 539.735 102.056 538.32 100.92C537.047 99.6429 535.915 98.5783 534.924 97.7266C533.934 96.875 532.165 95.9524 529.618 94.9588C527.071 93.9652 525.09 93.2555 523.676 92.8297C522.402 92.4038 519.926 91.6941 516.247 90.7006C512.71 89.565 510.163 88.7134 508.607 88.1456C503.371 86.4423 499.693 85.2358 497.57 84.5261C495.448 83.8164 492.123 82.6099 487.595 80.9066C483.209 79.2033 480.025 77.7129 478.045 76.4354C476.064 75.016 473.588 73.1708 470.616 70.8997C467.645 68.4867 465.452 66.0027 464.037 63.4478C462.763 60.8929 461.561 57.8411 460.429 54.2926C459.438 50.744 458.943 46.8407 458.943 42.5824C458.943 29.3819 463.966 19.0201 474.012 11.4973C484.058 3.83242 497.712 0 514.974 0C532.236 0 548.437 4.1163 563.576 12.3489V42.1566C548.578 32.7885 532.519 28.1044 515.398 28.1044C498.561 28.1044 490.142 33.0014 490.142 42.7953C490.142 44.3567 490.425 45.7761 490.991 47.0536C491.557 48.1891 492.477 49.3246 493.75 50.4602C495.165 51.4538 496.509 52.3054 497.783 53.0151C499.198 53.7248 501.108 54.5055 503.513 55.3571C506.06 56.2088 508.253 56.9185 510.092 57.4863C511.932 58.054 514.549 58.8347 517.945 59.8283C521.341 60.6799 524.1 61.4606 526.222 62.1703C531.741 64.0156 536.41 65.7898 540.23 67.4931C544.192 69.0545 548.366 71.1836 552.752 73.8805C557.28 76.5774 560.888 79.4872 563.576 82.6099C566.406 85.5907 568.741 89.3521 570.58 93.8942C572.419 98.4364 573.339 103.404 573.339 108.798C573.339 122.992 567.75 134.277 556.572 142.651C545.394 150.884 531.316 155 514.337 155Z" fill="white"/>
  <path d="M598.575 152.019V2.98077H707.665V30.4464H629.138V59.1896H692.384V86.2294H629.138V124.554H710V152.019H598.575Z" fill="white"/>
</svg>