<svg width="251" height="68" viewBox="0 0 251 68" fill="none" xmlns="http://www.w3.org/2000/svg">
  <path d="M0 66.6923V1.30769H13.4577V27.0879L37.5695 1.30769H54.0178L26.2613 31.2912L58.7841 66.6923H41.5881L13.4577 36.522V66.6923H0Z" fill="#E52330"/>
  <path d="M61.5929 1.30769H116.452V13.3571H95.7045V66.6923H82.2468V13.3571H61.5929V1.30769Z" fill="#E52330"/>
  <path d="M139.036 49.3187C142.899 53.3663 147.728 55.3901 153.522 55.3901C159.316 55.3901 164.114 53.3663 167.914 49.3187C171.777 45.2711 173.709 40.1648 173.709 34C173.709 27.8352 171.777 22.7289 167.914 18.6813C164.114 14.6337 159.316 12.6099 153.522 12.6099C147.728 12.6099 142.899 14.6337 139.036 18.6813C135.236 22.7289 133.335 27.8352 133.335 34C133.335 40.1648 135.236 45.2711 139.036 49.3187ZM177.727 58.1923C171.31 64.7308 163.241 68 153.522 68C143.803 68 135.703 64.7308 129.223 58.1923C122.806 51.5916 119.597 43.5275 119.597 34C119.597 24.4725 122.806 16.4396 129.223 9.9011C135.641 3.30037 143.74 0 153.522 0C163.304 0 171.403 3.30037 177.821 9.9011C184.238 16.4396 187.447 24.4725 187.447 34C187.447 43.5275 184.207 51.5916 177.727 58.1923Z" fill="#E52330"/>
  <path d="M199.599 66.6923V1.30769H228.197C235.237 1.30769 240.782 3.11355 244.832 6.72528C248.944 10.337 251 15.1007 251 21.0165C251 26.87 248.944 31.6337 244.832 35.3077C240.782 38.9817 235.237 40.8187 228.197 40.8187H213.057V66.6923H199.599ZM213.057 29.3297H227.262C230.502 29.3297 233.025 28.6447 234.832 27.2747C236.639 25.8425 237.542 23.8187 237.542 21.2033C237.542 18.5879 236.639 16.5952 234.832 15.2253C233.025 13.793 230.502 13.0769 227.262 13.0769H213.057V29.3297Z" fill="#E52330"/>
</svg>