<svg width="742" height="201" viewBox="0 0 742 201" fill="none" xmlns="http://www.w3.org/2000/svg">
  <path d="M0 197.135V3.86538H39.7582V80.0687L110.992 3.86538H159.585L77.5838 92.4931L173.666 197.135H122.864L39.7582 107.955V197.135H0Z" fill="white"/>
  <path d="M181.964 3.86538H344.034V39.4821H282.74V197.135H242.982V39.4821H181.964V3.86538Z" fill="white"/>
  <path d="M410.755 145.78C422.167 157.744 436.432 163.727 453.551 163.727C470.669 163.727 484.842 157.744 496.07 145.78C507.482 133.816 513.188 118.723 513.188 100.5C513.188 82.2775 507.482 67.1841 496.07 55.2198C484.842 43.2555 470.669 37.2733 453.551 37.2733C436.432 37.2733 422.167 43.2555 410.755 55.2198C399.527 67.1841 393.913 82.2775 393.913 100.5C393.913 118.723 399.527 133.816 410.755 145.78ZM525.06 172.01C506.101 191.337 482.265 201 453.551 201C424.836 201 400.908 191.337 381.765 172.01C362.806 152.499 353.327 128.662 353.327 100.5C353.327 72.3379 362.806 48.5934 381.765 29.2665C400.724 9.75549 424.652 0 453.551 0C482.449 0 506.378 9.75549 525.336 29.2665C544.295 48.5934 553.775 72.3379 553.775 100.5C553.775 128.662 544.203 152.499 525.06 172.01Z" fill="white"/>
  <path d="M589.676 197.135V3.86538H674.162C694.962 3.86538 711.344 9.2033 723.308 19.8791C735.456 30.5549 741.53 44.636 741.53 62.1223C741.53 79.4245 735.456 93.5055 723.308 104.365C711.344 115.225 694.962 120.655 674.162 120.655H629.434V197.135H589.676ZM629.434 86.6951H671.401C680.973 86.6951 688.427 84.6703 693.765 80.6209C699.103 76.3874 701.772 70.4052 701.772 62.6745C701.772 54.9437 699.103 49.0536 693.765 45.0041C688.427 40.7706 680.973 38.6539 671.401 38.6539H629.434V86.6951Z" fill="white"/>
</svg>