<svg width="205" height="79" viewBox="0 0 205 79" fill="none" xmlns="http://www.w3.org/2000/svg">
<g clip-path="url(#clip0_2108_25124)">
<path d="M201.694 31.313L201.46 31.1746C200.88 32.0727 200.306 32.8728 199.736 33.5851C199.166 34.2941 198.65 34.8984 198.178 35.3981C197.621 35.9855 197.088 36.5122 196.569 36.9781C195.582 37.9099 194.77 38.4872 194.132 38.7168C193.491 38.9463 193.002 39.0611 192.669 39.0611C191.855 39.0611 191.41 38.8113 191.342 38.315C191.315 38.1124 191.332 37.893 191.397 37.66C191.427 37.5453 191.485 37.4406 191.57 37.3528L204.997 9.62855C204.99 9.56103 204.912 9.52727 204.759 9.5239C204.151 9.54753 203.34 9.59142 202.325 9.65557C201.311 9.71971 200.269 9.89527 199.203 10.1755C198.134 10.4557 197.136 10.8811 196.203 11.4483C195.273 12.0154 194.563 12.7886 194.071 13.771C191.957 18.2983 190.09 22.2989 188.454 25.7898C187.402 28.0383 186.462 30.0605 185.63 31.8701C185.165 32.6061 184.7 33.2813 184.235 33.8856C183.685 34.598 183.183 35.2056 182.728 35.7087C182.189 36.2995 181.666 36.8295 181.16 37.2988C180.196 38.234 179.395 38.818 178.757 39.0476C178.116 39.2806 177.627 39.3954 177.288 39.3954C176.459 39.3954 176.001 39.1455 175.913 38.6459C175.876 38.4399 175.886 38.2205 175.94 37.9842C175.967 37.866 176.022 37.7647 176.103 37.6769L188.614 9.77035C188.603 9.70283 188.522 9.66907 188.366 9.66569C187.748 9.68933 186.927 9.73321 185.902 9.79736C184.877 9.86488 183.825 10.0404 182.752 10.324C181.68 10.6076 180.682 11.0364 179.759 11.6069C178.839 12.1775 178.15 12.9574 177.688 13.9465C175.723 18.5076 173.989 22.5319 172.471 26.0464C170.975 29.5068 169.726 32.4474 168.711 34.8816C167.706 37.2921 166.956 39.1827 166.454 40.5702C165.958 41.9477 165.741 42.7951 165.809 43.109C165.904 43.5682 166.176 43.9936 166.62 44.3784C167.065 44.7633 167.818 44.9557 168.881 44.9557C169.943 44.9557 171.243 44.7498 172.634 44.3379C174.026 43.926 175.485 43.2778 177.016 42.3899C178.55 41.4986 180.091 40.3474 181.646 38.9261C182.145 38.4703 182.633 37.9808 183.112 37.4575C182.643 38.5345 182.253 39.4595 181.948 40.2259C181.405 41.5965 181.157 42.4372 181.211 42.7512C181.286 43.2069 181.537 43.6289 181.961 44.0138C182.382 44.3987 183.119 44.5877 184.167 44.5877C185.264 44.5877 186.502 44.3852 187.891 43.9733C189.279 43.5648 190.742 42.92 192.286 42.0354C193.83 41.1509 195.398 40.003 196.983 38.5918C198.578 37.1705 200.102 35.4352 201.555 33.3691C201.759 33.0416 201.898 32.7546 201.966 32.5014C202.034 32.2482 202.061 32.0457 202.044 31.8971C202.013 31.627 201.894 31.4312 201.691 31.3097" fill="#E52330"/>
<path d="M8.52503 47.0658C11.824 51.0597 16.4535 52.8929 21.8874 53.3149C22.7732 53.3824 23.6726 53.4735 24.5585 53.4263C26.4999 53.3284 28.4888 53.3554 30.3589 52.957C33.2031 52.3527 35.8946 51.2994 38.2195 49.6417C40.1235 48.2879 41.6305 46.6269 42.6385 44.6654C42.7098 44.527 42.7743 44.3818 42.8422 44.2434C44.5086 41.6303 45.3639 39.2535 45.7577 37.9301L47.957 32.9403C48.2591 32.5318 48.5577 32.1638 48.8496 31.8363C48.9141 31.7688 48.9752 31.7013 49.0431 31.6304C49.1551 31.5156 49.2705 31.3974 49.3893 31.2793C49.5149 31.1577 49.6404 31.0396 49.766 30.9349C50.3498 30.4353 51.0286 29.9829 51.7956 29.5777C52.5593 29.1726 53.3942 28.97 54.3004 28.97C54.5652 28.97 54.8129 29.0106 55.0437 29.0882C55.2711 29.1659 55.4171 29.3448 55.4782 29.625C55.5359 29.9052 55.4612 30.2968 55.244 30.7931C54.1206 33.288 53.2381 35.29 52.6 36.8025C51.9619 38.315 51.48 39.5067 51.161 40.3811C50.8385 41.2555 50.6552 41.8936 50.6077 42.2988C50.5602 42.7039 50.567 43.0482 50.6247 43.3285C50.7299 43.8281 51.0354 44.2636 51.5411 44.6384C52.0468 45.0131 52.9937 45.2292 54.3921 45.2933C55.563 45.2933 56.8629 45.084 58.2884 44.662C59.7173 44.24 61.2175 43.5479 62.7991 42.5823C64.3774 41.6168 65.9861 40.3541 67.6255 38.7944C69.2648 37.2347 70.8532 35.3035 72.3907 32.9943C72.6384 32.65 72.7742 32.3495 72.798 32.0828C72.8217 31.8194 72.8183 31.6068 72.7844 31.4515C72.7505 31.2962 72.6995 31.178 72.6317 31.1003C72.5604 31.0227 72.4925 30.9518 72.428 30.891L72.1599 30.7492C71.5184 31.7485 70.9177 32.6196 70.3576 33.3691C69.7976 34.1185 69.2817 34.7566 68.8066 35.2867C68.2941 35.8808 66.3629 37.7748 65.9216 38.0685C65.477 38.3656 65.0731 38.5918 64.7066 38.7471C64.34 38.9024 64.004 39.0037 63.6917 39.051C63.3829 39.0982 63.1487 39.1219 62.9892 39.1219C62.5106 39.1219 62.1576 39.0375 61.937 38.8653C61.713 38.6931 61.5841 38.5142 61.5433 38.3285C61.523 38.234 61.523 38.1091 61.5433 37.9538C61.5637 37.7985 61.6587 37.5486 61.825 37.2043C61.9913 36.8599 62.2052 36.3636 62.4665 35.7087C62.7278 35.0537 63.1148 34.1827 63.6307 33.0888C63.9259 32.4643 64.1499 31.8971 64.3095 31.3806C64.4656 30.8674 64.4894 30.3441 64.3773 29.8141C64.2518 29.2232 63.9938 28.754 63.6035 28.4096C63.2132 28.0653 62.7618 27.8188 62.2493 27.6601C61.7368 27.5048 61.1971 27.4035 60.6303 27.3563C60.0601 27.309 59.5646 27.2854 59.137 27.2854C58.3394 27.2854 57.5384 27.3326 56.734 27.4272C55.9296 27.5217 55.2168 27.6162 54.5991 27.7074C54.0459 27.8019 53.5198 27.91 53.0039 28.0247C64.3027 18.8081 88.6922 6.38415 124.191 10.9115C180.05 18.035 194.474 1.33017 194.474 1.33017C194.474 1.33017 165.011 16.4921 145.06 0.327479C81.3781 -1.5665 58.2545 17.1808 51.1847 25.4691L53.7744 19.5846C54.3378 18.7541 56.7306 12.8865 56.7238 12.8865L58.2477 9.42261C58.2341 9.36184 58.1459 9.32808 57.9864 9.32808C57.3551 9.35846 56.5134 9.41585 55.468 9.49012C54.4192 9.56777 53.3535 9.74671 52.2674 10.0269C51.1813 10.3071 50.1665 10.7224 49.2162 11.2659C48.2659 11.8129 47.5972 12.5522 47.2103 13.4874L35.9692 39.0847C33.2235 45.3372 31.1022 49.4189 23.3808 50.7119C20.8183 50.9347 18.3338 50.4216 16.0666 49.2096C12.3467 47.2211 10.0014 44.4223 9.79101 40.4385C9.63828 37.5756 10.4936 35.0098 12.6047 32.785C14.3119 30.9855 16.3211 29.733 18.9346 29.1355C20.8216 28.7067 22.6137 28.575 24.4804 29.0713C25.1728 29.257 25.8991 29.3617 26.6187 29.4393C27.7353 29.5609 28.163 29.2773 28.3089 28.3016C28.3734 27.8728 28.3259 27.4204 28.2444 26.9917C27.7523 24.3415 25.0744 22.91 22.4033 22.6467C20.2243 22.4306 18.0928 22.6534 15.9817 23.3421C13.7688 24.0646 11.8444 25.1146 10.2458 26.6203C8.81692 27.9674 7.60525 29.4731 6.95359 31.259C6.34945 32.9167 5.60955 34.5709 5.33124 36.2792C5.00541 38.2711 5.20906 40.2697 5.96932 42.265C6.62437 43.98 7.34391 45.6343 8.52843 47.0691" fill="#E52330"/>
<path d="M165.051 46.8564C160.663 42.0894 162.998 36.8396 166.26 28.7776L170.234 18.9566C170.217 18.8621 170.136 18.8148 169.993 18.8148C169.521 18.8452 168.958 18.8857 168.3 18.933C167.641 18.9802 166.945 19.0748 166.209 19.2132C165.472 19.3516 164.739 19.5643 164.006 19.8445C163.273 20.1247 162.594 20.4995 161.966 20.9654L161.905 21.0126L161.844 21.0599C161.749 21.0599 161.668 21.0126 161.603 20.9181C161.454 20.6379 161.189 20.3746 160.809 20.1247C160.483 19.9053 160.042 19.7129 159.485 19.5407C158.929 19.3685 158.246 19.2841 157.435 19.2841C155.816 19.2841 154.245 19.5947 152.718 20.2193C151.194 20.8438 149.755 21.6912 148.41 22.7682C147.066 23.8452 145.848 25.0842 144.755 26.4852C143.662 27.8897 142.763 29.3684 142.057 30.9281C141.979 31.0969 141.914 31.2691 141.843 31.4413C141.551 31.9815 141.235 32.5014 140.893 32.9875C140.367 33.737 139.874 34.4055 139.416 34.9997C138.877 35.685 138.31 36.3265 137.706 36.9173C136.918 37.7917 136.222 38.342 135.625 38.5783C135.028 38.8113 134.583 38.9294 134.298 38.9294C133.823 38.9294 133.46 38.845 133.215 38.6728C132.968 38.5007 132.822 38.2914 132.774 38.0415C132.74 37.8558 132.75 37.6668 132.811 37.4811L132.9 37.2009L138.198 23.6392C138.575 22.6095 138.707 21.7993 138.598 21.2085C138.51 20.7426 138.32 20.3746 138.032 20.1078C137.743 19.8445 137.421 19.6487 137.064 19.5238C136.708 19.3989 136.358 19.3212 136.019 19.2908C135.679 19.2605 135.415 19.2436 135.225 19.2436C133.938 19.2436 132.655 19.4461 131.376 19.8513C130.096 20.2564 128.932 20.7257 127.89 21.2557C126.848 21.7858 125.959 22.3158 125.226 22.8458C124.493 23.3759 124.051 23.7506 123.902 23.9667C123.783 24.0916 123.698 24.1524 123.651 24.1524L123.841 23.6392C124.218 22.6095 124.35 21.7993 124.238 21.2085C124.15 20.7426 123.963 20.3746 123.675 20.1078C123.386 19.8445 123.064 19.6487 122.707 19.5238C122.351 19.3989 122.001 19.3212 121.665 19.2908C121.326 19.2605 121.061 19.2436 120.871 19.2436C119.585 19.2436 118.305 19.4529 117.026 19.8749C115.746 20.2969 114.575 20.7729 113.51 21.2996C112.444 21.8296 111.541 22.3597 110.808 22.8897C110.075 23.4198 109.606 23.7776 109.403 23.9667C109.284 24.0916 109.199 24.1524 109.152 24.1524C109.104 24.1524 109.077 24.1389 109.07 24.1051L109.043 23.9633C109.036 23.9329 109.053 23.9026 109.097 23.8688L111.062 19.1457C111.052 19.0849 110.927 19.0511 110.686 19.0511C110.119 19.0815 109.393 19.1389 108.503 19.2166C107.614 19.2942 106.694 19.4732 105.747 19.7534C104.8 20.0336 103.911 20.4387 103.083 20.9687C102.255 21.4988 101.668 22.2314 101.318 23.1666L97.4524 33.3387C99.74 32.5554 102.883 32.2178 105.198 34.8579L107.251 29.2502C107.465 28.6257 107.828 27.9505 108.33 27.2145C108.836 26.4819 109.41 25.7965 110.051 25.1551C110.693 24.517 111.388 23.9869 112.145 23.5649C112.899 23.1429 113.656 22.9336 114.419 22.9336C114.657 22.9336 114.867 22.9741 115.047 23.0518C115.227 23.1294 115.332 23.2476 115.363 23.4029L106.884 45.479C106.895 45.5398 106.973 45.5735 107.115 45.5735C107.682 45.5431 108.446 45.4858 109.406 45.4115C110.367 45.3338 111.334 45.1549 112.305 44.8747C113.275 44.5945 114.175 44.1826 115 43.6357C115.824 43.0921 116.411 42.3494 116.758 41.4142L121.536 29.2536C121.75 28.629 122.113 27.9538 122.616 27.2178C123.122 26.4852 123.705 25.7999 124.371 25.1584C125.036 24.5204 125.745 23.9903 126.499 23.5683C127.252 23.1463 128.009 22.937 128.773 22.937C129.01 22.937 129.221 22.9775 129.4 23.0552C129.58 23.1328 129.689 23.251 129.716 23.4063C129.56 24.0916 129.278 24.9964 128.871 26.1206C128.464 27.2415 127.999 28.4501 127.483 29.7465C126.964 31.0396 126.42 32.3832 125.847 33.7674C125.273 35.155 124.757 36.4581 124.299 37.6735C123.838 38.8889 123.471 39.9828 123.203 40.9483C122.931 41.9139 122.843 42.633 122.931 43.0989C123.02 43.5682 123.291 43.9969 123.746 44.3852C124.201 44.7768 125.005 44.9996 126.159 45.0638C126.397 45.0638 126.77 45.0334 127.283 44.9692C127.795 44.9085 128.423 44.7667 129.17 44.5472C129.913 44.3278 130.745 43.9935 131.658 43.5411C132.57 43.0887 133.551 42.4743 134.593 41.6944C135.588 40.9146 136.592 40.057 137.611 39.1219C138.456 38.3116 139.328 37.3764 140.224 36.3164C140.326 36.1982 140.418 36.0699 140.516 35.9484C140.268 37.4845 140.275 38.9632 140.543 40.3845C140.825 41.8801 141.439 43.0516 142.383 43.8923C143.33 44.7329 144.752 45.1549 146.656 45.1549C146.846 45.1549 147.233 45.1245 147.817 45.0604C148.4 44.9996 149.093 44.8105 149.89 44.4999C150.688 44.1893 154.33 42.8963 156.648 38.6222C157.602 47.5789 168.364 49.8983 167.997 57.9806C167.003 62.3121 158.966 66.4714 136.46 63.2135C114.473 60.0332 84.2801 55.7456 31.1973 55.5498C30.5898 55.5431 29.9857 55.5329 29.3815 55.5296C28.8453 55.5296 28.309 55.5363 27.7727 55.5431C27.6506 55.5431 27.5284 55.5431 27.4062 55.5431H27.4266C24.6536 55.5869 21.8773 55.7186 19.1044 55.7828C13.3684 55.9178 7.63591 56.0326 1.89998 56.1676C1.45536 56.1778 1.01414 56.2622 0.318359 56.3398C2.66025 57.0724 4.74758 57.6599 6.7874 58.3823C9.10553 59.2027 11.3999 60.0974 13.6705 61.0461C16.4027 62.1905 18.8498 63.8077 21.0729 65.7523C22.6376 67.123 23.9273 68.7435 24.8335 70.5936C25.5632 72.0858 26.1436 73.6759 26.0384 75.4146C25.9875 76.2654 25.9807 77.1195 26.0011 77.9703C26.0078 78.3011 26.1504 78.6286 26.2319 78.9561C26.5611 78.8616 26.9107 78.8109 27.2127 78.659C27.6268 78.4497 27.99 78.1357 28.3973 77.9129C29.6564 77.2208 30.9156 76.5253 32.1986 75.8704C33.6886 75.1108 35.1717 74.3309 36.7059 73.6759C38.5115 72.9062 40.368 72.258 42.2076 71.5625C43.0833 71.2317 43.9691 70.9211 44.8516 70.6071C46.1515 70.1446 47.4378 69.6314 48.7581 69.2398C50.3058 68.7806 51.884 68.4126 53.4554 68.0311C56.6289 67.258 59.7819 66.3701 62.9893 65.7692C66.7261 65.0703 70.5003 64.52 74.2813 64.1048C78.1878 63.676 82.1147 63.4127 86.0382 63.2169C92.3919 62.8995 98.7455 62.967 105.089 63.5714C107.825 63.8313 110.581 63.8752 113.313 64.1723C116.629 64.5302 119.928 65.0433 123.23 65.5092C125.83 65.8738 128.426 66.2655 131.023 66.647C131.199 66.674 131.369 66.7314 131.542 66.7651C133.881 67.2411 136.206 67.7914 138.561 68.1763C141.443 68.649 144.348 68.9629 147.24 69.3816C152.48 70.1446 157.693 70.2526 162.944 69.3208C165.778 68.8178 168.429 68.0143 170.798 66.4005C172.233 65.4214 178.268 59.9556 166.973 48.8348C166.348 48.1528 165.703 47.4945 165.038 46.8598M160.49 22.6534L154.876 37.1975C154.432 38.3825 153.953 39.3008 153.43 39.9558C152.911 40.6107 152.436 41.1104 151.998 41.4514C151.564 41.7957 151.163 42.005 150.796 42.0827C150.43 42.1603 150.152 42.2008 149.962 42.2008C149.436 42.2008 149.106 41.8261 148.964 41.08C148.821 40.3305 148.869 39.3109 149.099 38.0179C149.33 36.7249 149.697 35.3137 150.192 33.7843C150.691 32.2583 151.278 30.7053 151.957 29.1321C152.636 27.5588 153.366 26.1308 154.15 24.8546C154.934 23.5751 155.735 22.5319 156.56 21.7216C157.381 20.9114 158.151 20.5062 158.868 20.5062C159.153 20.5062 159.424 20.5535 159.679 20.648C159.882 20.7122 160.083 20.827 160.283 20.9991C160.48 21.1713 160.605 21.3806 160.653 21.6305C160.694 21.8499 160.639 22.1909 160.49 22.6602" fill="#E52330"/>
<path d="M77.8244 42.3798L98.7384 20.2193C98.7792 20.1889 98.7961 20.1416 98.7826 20.0775C98.7758 20.0471 98.7011 20.0302 98.5586 20.0302H84.9858C83.937 20.0302 82.6337 20.118 81.0691 20.2868C79.5044 20.459 78.028 20.7763 76.6432 21.2456C75.2551 21.7149 74.1147 22.3597 73.222 23.1868C72.3294 24.014 72.007 25.0808 72.2548 26.3907C72.3668 26.9849 72.7706 27.5453 73.4664 28.0754C74.1622 28.6054 75.1532 28.8688 76.4396 28.8688C77.0573 28.8688 77.6954 28.7742 78.3504 28.5885C79.0055 28.4029 79.5723 28.1362 80.0576 27.7952C80.5396 27.4508 80.9163 27.0389 81.1811 26.5562C81.4492 26.0734 81.5205 25.5197 81.4051 24.8951C81.3304 24.49 81.2082 24.1625 81.0419 23.9127C80.8756 23.6629 80.6923 23.4603 80.4989 23.305C80.302 23.1497 80.1323 23.0079 79.9898 22.883C79.8472 22.7581 79.759 22.6028 79.7216 22.4137C79.6639 22.1031 80.1527 21.7993 81.1912 21.5022C82.2298 21.2051 83.8216 21.0565 85.9633 21.0565C86.9136 21.0565 87.5856 21.0734 87.9725 21.1038C88.3595 21.1342 88.5597 21.1815 88.5699 21.2456L66.4883 44.6755L66.4985 44.7228C66.5154 44.8173 66.6206 44.8646 66.8107 44.8646H91.8044C92.1472 44.8646 92.4968 44.8578 92.8498 44.8409C93.8782 44.8004 94.9609 44.6992 96.1013 44.5371C97.632 44.3177 98.9998 43.9463 100.211 43.4129C100.941 43.0921 101.579 42.7073 102.126 42.2583C102.489 41.9612 102.811 41.6404 103.096 41.2859C103.775 40.4419 104.009 39.392 103.816 38.1394C103.806 38.0719 103.799 38.0078 103.789 37.9436C103.738 37.6837 103.639 37.4305 103.51 37.1806C103.51 37.1806 103.51 37.1773 103.514 37.1739C102.037 33.1699 94.2006 34.1253 94.075 38.8518C94.075 38.8923 94.0716 38.9328 94.0682 38.9733C94.0682 38.9733 94.0682 38.9733 94.0682 38.9767C94.0614 39.24 94.0852 39.5203 94.1395 39.814C94.9914 43.2643 88.9908 42.6127 77.8685 42.6127C77.7735 42.6127 77.7192 42.5824 77.709 42.5182C77.7022 42.4878 77.7395 42.4406 77.8244 42.3764" fill="#E52330"/>
<path d="M56.3213 54.0407L54.3086 53.9496L56.8473 47.8051L58.9279 47.8996L60.893 54.2466L58.8464 54.1555L58.6462 53.3284L56.5996 53.2372L56.3213 54.0407ZM58.3645 51.9914L57.7841 49.7193L57.034 51.9307L58.3645 51.9914Z" fill="#E52330"/>
<path d="M66.5913 51.7787L66.8119 48.2508L68.8585 48.379L68.6243 52.1096C68.5293 52.8996 68.8348 53.3047 69.5407 53.325C70.1754 53.3858 70.5182 53.0211 70.5691 52.2311L70.8033 48.5006L72.8499 48.6289L72.6293 52.1569C72.5546 54.061 71.4957 54.9354 69.4525 54.7868C67.3821 54.7024 66.4284 53.7031 66.5947 51.7821" fill="#E52330"/>
<path d="M78.5957 50.6748L78.7213 49.0509L84.4776 49.4898L84.352 51.1171L82.5124 50.9753L82.156 55.5836L80.0789 55.4249L80.4353 50.8166L78.5957 50.6748Z" fill="#E52330"/>
<path d="M93.3398 50.0637C95.3932 50.3541 96.3876 51.5424 96.3197 53.6322C96.021 55.722 94.8162 56.6943 92.7017 56.5593C90.6008 56.2858 89.6199 55.0873 89.7591 52.9604C90.0476 50.9415 91.2423 49.9759 93.3398 50.0637ZM93.1904 51.5863C92.4132 51.5559 91.9516 52.0927 91.7955 53.1933C91.7038 54.3682 92.0534 55.0063 92.8442 55.1042C93.6622 55.1818 94.1374 54.6282 94.2799 53.433C94.324 52.2987 93.9609 51.6842 93.1904 51.5863Z" fill="#E52330"/>
<path d="M111.604 58.4262L109.561 58.2473L110.107 52.0185L113.101 52.2784C114.845 52.4776 115.677 53.2541 115.605 54.6113C115.453 56.0765 114.516 56.7348 112.792 56.5829L111.77 56.4951L111.6 58.4262H111.604ZM111.902 55.04L112.754 55.1143C113.277 55.1582 113.569 54.9354 113.637 54.4425C113.65 54.0104 113.308 53.7639 112.605 53.7031L112.028 53.6525L111.906 55.04H111.902Z" fill="#E52330"/>
<path d="M122.399 59.7058L120.396 59.4863L123.326 53.5141L125.396 53.7403L126.95 60.2021L124.914 59.9792L124.765 59.142L122.728 58.9191L122.399 59.7024V59.7058ZM124.571 57.7882L124.137 55.4857L123.244 57.6464L124.568 57.7915L124.571 57.7882Z" fill="#E52330"/>
<path d="M135.119 59.1555L134.508 59.088L134.271 61.252L132.234 61.0326L132.913 54.8172L135.869 55.138C137.777 55.3 138.629 55.9854 138.428 57.194C138.316 58.0245 137.909 58.4938 137.21 58.6018C137.964 58.8415 138.266 59.4323 138.116 60.3742C138.109 60.4418 138.086 60.5295 138.052 60.6409C137.964 61.2453 138.011 61.5255 138.201 61.4782L138.177 61.6808L136.107 61.458C136.053 61.3162 136.059 60.9515 136.124 60.3675C136.3 59.5876 135.964 59.1892 135.119 59.1656M134.793 56.4985L134.661 57.7139L135.476 57.8017C136.131 57.8962 136.48 57.7375 136.524 57.3324C136.545 56.9239 136.287 56.6808 135.744 56.5998L134.793 56.4951V56.4985Z" fill="#E52330"/>
<path d="M145.791 62.5147L145.883 57.8456L144.047 57.8084L144.081 56.1407L149.796 56.2521L149.762 57.9198L147.93 57.8861L147.838 62.5552L145.791 62.5147Z" fill="#E52330"/>
<path d="M157.651 60.4215L157.671 60.8671C157.674 60.9583 157.691 61.0427 157.718 61.1204C157.746 61.2014 157.793 61.2723 157.858 61.333C157.922 61.3938 158.007 61.4411 158.116 61.4715C158.221 61.5018 158.357 61.5153 158.519 61.5086C158.76 61.4951 158.93 61.4242 159.035 61.2892C159.137 61.1541 159.185 61.0089 159.178 60.8435C159.171 60.7085 159.13 60.5971 159.056 60.5059C158.981 60.4147 158.889 60.3337 158.774 60.2662C158.662 60.1987 158.536 60.1413 158.397 60.0906C158.258 60.04 158.122 59.9894 157.987 59.9353C157.661 59.8206 157.365 59.7058 157.101 59.591C156.836 59.4762 156.602 59.3412 156.398 59.1859C156.205 59.0339 156.049 58.8584 155.937 58.6659C155.821 58.4735 155.757 58.2372 155.747 57.957C155.719 57.3628 155.926 56.907 156.368 56.5863C156.812 56.2656 157.433 56.0866 158.231 56.0461C158.672 56.0259 159.066 56.0562 159.409 56.1406C159.751 56.2251 160.033 56.3533 160.261 56.5255C160.488 56.6977 160.658 56.9036 160.77 57.1467C160.882 57.3898 160.936 57.6633 160.926 57.9603L159.042 58.0515C159.029 57.9637 159.018 57.8658 159.005 57.7645C158.991 57.6599 158.964 57.5653 158.92 57.4776C158.876 57.3898 158.808 57.3189 158.716 57.2649C158.625 57.2109 158.492 57.1805 158.323 57.1771C158.112 57.1771 157.949 57.2142 157.834 57.2986C157.718 57.3797 157.651 57.4911 157.634 57.6329C157.613 57.8253 157.664 57.9739 157.79 58.0785C157.915 58.1832 158.082 58.2845 158.289 58.3756C158.686 58.5343 159.046 58.6727 159.375 58.7807C159.701 58.8921 159.989 59.0204 160.24 59.1724C160.488 59.3243 160.685 59.51 160.827 59.7294C160.97 59.9489 161.051 60.2527 161.068 60.6376C161.099 61.2453 160.895 61.7247 160.461 62.0656C160.026 62.41 159.382 62.5991 158.53 62.643C158.065 62.6666 157.661 62.643 157.318 62.5721C156.975 62.5012 156.693 62.3965 156.469 62.2581C156.245 62.1197 156.079 61.9576 155.967 61.7719C155.855 61.5862 155.797 61.3904 155.787 61.1845L155.753 60.5127L157.651 60.4215Z" fill="#E52330"/>
</g>
<defs>
<clipPath id="clip0_2108_25124">
<rect width="205" height="79" fill="white"/>
</clipPath>
</defs>
</svg>
