<svg width="16" height="16" viewBox="0 0 16 16" fill="none" xmlns="http://www.w3.org/2000/svg">
  <path d="M7.26501 3.23508C7.33523 3.30539 7.37468 3.4007 7.37468 3.50008C7.37468 3.59945 7.33523 3.69476 7.26501 3.76508L3.40563 7.62508L13.5 7.62508C13.5995 7.62508 13.6948 7.66459 13.7652 7.73491C13.8355 7.80524 13.875 7.90062 13.875 8.00008C13.875 8.09953 13.8355 8.19492 13.7652 8.26524C13.6948 8.33557 13.5995 8.37508 13.5 8.37508L3.40563 8.37508L7.26501 12.2351C7.33125 12.3062 7.36731 12.4002 7.36559 12.4973C7.36388 12.5945 7.32452 12.6872 7.25582 12.7559C7.18711 12.8246 7.09442 12.864 6.99727 12.8657C6.90012 12.8674 6.80609 12.8313 6.73501 12.7651L2.23501 8.26508C2.16478 8.19476 2.12534 8.09945 2.12534 8.00008C2.12534 7.9007 2.16478 7.80539 2.23501 7.73508L6.73501 3.23508C6.80532 3.16485 6.90063 3.12541 7.00001 3.12541C7.09938 3.12541 7.19469 3.16485 7.26501 3.23508Z" fill="#818181"/>
</svg>