<svg width="23" height="23" viewBox="0 0 23 23" fill="none" xmlns="http://www.w3.org/2000/svg">
  <path d="M13.206 4.44174L19.5589 10.7947C19.6246 10.8602 19.6766 10.9381 19.7121 11.0238C19.7477 11.1095 19.7659 11.2013 19.7659 11.2941C19.7659 11.3869 19.7477 11.4787 19.7121 11.5644C19.6766 11.6501 19.6246 11.728 19.5589 11.7935L13.206 18.1464C13.0735 18.2789 12.8939 18.3533 12.7066 18.3533C12.5193 18.3533 12.3396 18.2789 12.2072 18.1464C12.0747 18.014 12.0003 17.8344 12.0003 17.647C12.0003 17.4597 12.0747 17.2801 12.2072 17.1476L17.3557 12L3.5301 12C3.34289 12 3.16335 11.9256 3.03097 11.7932C2.89859 11.6609 2.82422 11.4813 2.82422 11.2941C2.82422 11.1069 2.89859 10.9273 3.03097 10.795C3.16335 10.6626 3.34289 10.5882 3.5301 10.5882L17.3557 10.5882L12.2072 5.44057C12.0747 5.30811 12.0003 5.12847 12.0003 4.94116C12.0003 4.75384 12.0747 4.5742 12.2072 4.44174C12.3396 4.30929 12.5193 4.23488 12.7066 4.23488C12.8939 4.23488 13.0735 4.30929 13.206 4.44174Z" fill="#E4E4E4"/>
</svg>