<svg width="60" height="60" viewBox="0 0 60 60" fill="none" xmlns="http://www.w3.org/2000/svg">
  <path d="M39.7826 53.6C39.419 53.6 39.119 53.9 39.119 54.2636V56.1818C39.119 57.0273 38.4371 57.7091 37.5917 57.7091H4.15533C3.30987 57.7091 2.62805 57.0273 2.62805 56.1818V13.5091C2.62805 12.6636 3.30987 11.9818 4.15533 11.9818H10.6281V13.1273C10.6281 13.9182 11.2735 14.5545 12.0553 14.5545H29.6917C30.4826 14.5545 31.119 13.9091 31.119 13.1273V11.9818H37.5917C38.4371 11.9818 39.119 12.6636 39.119 13.5091V23.1818C39.119 23.5454 39.419 23.8454 39.7826 23.8454C40.1462 23.8454 40.4462 23.5454 40.4462 23.1818V13.5091C40.4462 11.9363 39.1644 10.6545 37.5917 10.6545H31.119V9.29089C31.119 8.49998 30.4735 7.86362 29.6917 7.86362H26.0917V6.17271C26.0917 3.29998 23.7553 0.954529 20.8735 0.954529C17.9917 0.954529 15.6553 3.29089 15.6553 6.17271V7.85453H12.0553C11.2644 7.85453 10.6281 8.49998 10.6281 9.2818V10.6454H4.15533C2.5826 10.6454 1.30078 11.9273 1.30078 13.5V56.1818C1.30078 57.7545 2.5826 59.0364 4.15533 59.0364H37.6008C39.1735 59.0364 40.4553 57.7545 40.4553 56.1818V54.2636C40.4522 54.087 40.3801 53.9186 40.2543 53.7946C40.1286 53.6705 39.9592 53.6007 39.7826 53.6ZM16.9917 6.17271C16.9917 4.02726 18.7371 2.29089 20.8735 2.29089C23.0099 2.29089 24.7553 4.03635 24.7553 6.17271V7.85453H16.9826V6.17271H16.9917ZM11.9553 9.29089C11.9553 9.23635 12.0008 9.19089 12.0553 9.19089H29.6826C29.7371 9.19089 29.7826 9.23635 29.7826 9.29089V13.1273C29.7826 13.1818 29.7371 13.2273 29.6826 13.2273H12.0462C11.9917 13.2273 11.9462 13.1818 11.9462 13.1273V9.29089H11.9553Z" fill="#E52330"/>
  <path d="M7.98217 26.1728H12.4913C13.5094 26.1728 14.3367 25.3455 14.3367 24.3364V19.8182C14.3367 18.8001 13.5094 17.9819 12.4913 17.9819H7.98217C6.96399 17.9819 6.13672 18.8091 6.13672 19.8182V24.3273C6.14581 25.3455 6.97308 26.1728 7.98217 26.1728ZM7.47308 19.8182C7.47308 19.5364 7.70035 19.3091 7.98217 19.3091H12.4913C12.7731 19.3091 13.0004 19.5364 13.0004 19.8182V24.3273C13.0004 24.6091 12.7731 24.8364 12.4913 24.8364H7.98217C7.84715 24.8364 7.71766 24.7828 7.62219 24.6873C7.52672 24.5918 7.47308 24.4623 7.47308 24.3273V19.8182ZM35.6004 20.4273C35.6004 20.0637 35.3004 19.7637 34.9367 19.7637H18.9185C18.5549 19.7637 18.2549 20.0637 18.2549 20.4273C18.2549 20.791 18.5549 21.091 18.9185 21.091H34.9367C35.3004 21.1001 35.6004 20.8001 35.6004 20.4273ZM30.9185 23.7182C30.9185 23.3546 30.6185 23.0546 30.2549 23.0546H18.9185C18.5549 23.0546 18.2549 23.3546 18.2549 23.7182C18.2549 24.0819 18.5549 24.3819 18.9185 24.3819H30.2549C30.6185 24.3819 30.9185 24.091 30.9185 23.7182ZM6.14581 35.4182C6.14581 36.4364 6.97308 37.2546 7.99126 37.2546H12.5004C13.5185 37.2546 14.3458 36.4273 14.3458 35.4182V30.9091C14.3458 29.891 13.5185 29.0728 12.5004 29.0728H7.98217C6.96399 29.0728 6.13672 29.9001 6.13672 30.9091V35.4182H6.14581ZM7.47308 30.9091C7.47308 30.6273 7.70035 30.4001 7.98217 30.4001H12.4913C12.7731 30.4001 13.0004 30.6273 13.0004 30.9091V35.4182C13.0004 35.7001 12.7731 35.9273 12.4913 35.9273H7.98217C7.84715 35.9273 7.71766 35.8737 7.62219 35.7782C7.52672 35.6827 7.47308 35.5533 7.47308 35.4182V30.9091ZM24.1458 31.5182C24.1458 31.1546 23.8458 30.8546 23.4822 30.8546H18.9094C18.5458 30.8546 18.2458 31.1546 18.2458 31.5182C18.2458 31.8819 18.5458 32.1819 18.9094 32.1819H23.4822C23.8549 32.1819 24.1458 31.891 24.1458 31.5182ZM22.1458 35.4728C22.5094 35.4728 22.8094 35.1728 22.8094 34.8091C22.8094 34.4455 22.5094 34.1455 22.1458 34.1455H18.9094C18.5458 34.1455 18.2458 34.4455 18.2458 34.8091C18.2458 35.1728 18.5458 35.4728 18.9094 35.4728H22.1458Z" fill="#E52330"/>
  <path d="M9.31808 23.1545C9.43266 23.2851 9.59372 23.3658 9.76693 23.3794C9.94015 23.393 10.1118 23.3384 10.2454 23.2272L11.7272 21.9636C12.009 21.7272 12.0363 21.309 11.7999 21.0272C11.5635 20.7454 11.1363 20.7181 10.8635 20.9545L9.89081 21.7909L9.6999 21.5727C9.64319 21.5064 9.57399 21.452 9.49624 21.4125C9.4185 21.373 9.33373 21.3491 9.24678 21.3424C9.07118 21.3288 8.89735 21.3854 8.76354 21.5C8.62972 21.6145 8.54688 21.7775 8.53325 21.9531C8.51961 22.1287 8.57628 22.3025 8.69081 22.4363L9.31808 23.1545ZM9.31808 34.2272C9.44535 34.3818 9.63626 34.4545 9.82717 34.4545C9.98172 34.4545 10.1363 34.4 10.2544 34.2909L11.7363 33.0272C12.0181 32.7909 12.0454 32.3727 11.809 32.0909C11.5726 31.809 11.1454 31.7818 10.8726 32.0181L9.8999 32.8545L9.70899 32.6363C9.47263 32.3545 9.05445 32.3272 8.77263 32.5636C8.49081 32.8 8.46354 33.2181 8.6999 33.5L9.31808 34.2272ZM45.1817 32.6181C41.6817 29.1181 35.9908 29.1181 32.4999 32.6181C28.9999 36.1181 28.9999 41.8091 32.4999 45.3C34.2454 47.0454 36.5363 47.9181 38.8363 47.9181C41.1363 47.9181 43.4363 47.0454 45.1817 45.2909C48.6817 41.8 48.6817 36.109 45.1817 32.6181ZM44.2454 44.3545C41.2726 47.3363 36.4272 47.3363 33.4454 44.3636C30.4635 41.3818 30.4635 36.5363 33.4454 33.5636C34.9363 32.0727 36.8908 31.3363 38.8454 31.3363C40.7999 31.3363 42.7635 32.0818 44.2454 33.5727C47.2181 36.5363 47.2181 41.3727 44.2454 44.3545Z" fill="#E52330"/>
  <path d="M57.1556 49.7818C56.1919 48.8182 53.2556 46.7091 50.3919 45.2182C53.0919 40.2363 52.3374 33.8727 48.1374 29.6727C43.0101 24.5454 34.6647 24.5454 29.5465 29.6636C24.4192 34.7909 24.4192 43.1363 29.5465 48.2636C32.1101 50.8273 35.4647 52.1 38.8283 52.1C40.9828 52.1 43.1465 51.5636 45.0919 50.5091C46.5828 53.3727 48.701 56.3091 49.6647 57.2727C50.6598 58.2639 52.0075 58.8196 53.412 58.8179C54.8165 58.8162 56.1629 58.2572 57.1556 57.2636C58.1467 56.2709 58.7034 54.9255 58.7034 53.5227C58.7034 52.1199 58.1467 50.7745 57.1556 49.7818ZM30.4919 47.3182C28.2556 45.0818 27.0283 42.1182 27.0283 38.9545C27.0283 35.7909 28.2556 32.8273 30.4919 30.5909C32.7919 28.2909 35.8192 27.1363 38.8465 27.1363C41.8738 27.1363 44.901 28.2909 47.2101 30.5909C51.8101 35.1909 51.8101 42.6909 47.201 47.2909C42.5919 51.9182 35.0919 51.9182 30.4919 47.3182ZM56.2192 56.3273C54.6738 57.8727 52.1556 57.8818 50.6101 56.3363C49.701 55.4273 47.6647 52.5909 46.2374 49.8182C46.9101 49.3636 47.5465 48.8454 48.1465 48.2545C48.7374 47.6636 49.2556 47.0273 49.7101 46.3545C52.4738 47.7818 55.3101 49.8182 56.2283 50.7273C57.7647 52.2636 57.7647 54.7818 56.2192 56.3273ZM6.14648 52.9091C6.14648 53.7454 6.8283 54.4363 7.66467 54.4363H22.0828C22.9192 54.4363 23.601 53.7545 23.601 52.9091V48.1182C23.601 47.2818 22.9192 46.5909 22.0828 46.5909H7.66467C6.8283 46.5909 6.14648 47.2727 6.14648 48.1182V52.9091ZM7.47376 48.1182C7.47376 48.0091 7.56467 47.9273 7.66467 47.9273H22.0828C22.1919 47.9273 22.2738 48.0182 22.2738 48.1182V52.9091C22.2738 53.0182 22.1828 53.1 22.0828 53.1H7.66467C7.55558 53.1 7.47376 53.0091 7.47376 52.9091V48.1182Z" fill="#E52330"/>
  <path d="M44.1549 35.2638C43.8095 34.8638 43.3186 34.6184 42.7822 34.582C42.2458 34.5365 41.7367 34.7184 41.3186 35.082L37.6731 38.482L37.5549 38.3365C37.2095 37.9275 36.7277 37.682 36.1913 37.6365C35.664 37.5911 35.1458 37.7547 34.7367 38.1002C34.3277 38.4456 34.0822 38.9275 34.0367 39.4547C33.9913 39.982 34.1549 40.5002 34.5004 40.9093L35.9367 42.6275C36.2822 43.0275 36.7822 43.282 37.3095 43.3275C37.3549 43.3275 37.4095 43.3365 37.4549 43.3365C37.5822 43.3365 37.7095 43.3275 37.8367 43.3002C38.1731 43.2365 38.4913 43.0729 38.7731 42.8365L43.9458 38.082C44.7913 37.3547 44.8822 36.0911 44.1549 35.2638ZM43.0731 37.082L37.9004 41.8365C37.8105 41.911 37.7048 41.9639 37.5913 41.9911C37.5277 42.0002 37.4731 42.0093 37.4095 42.0002C37.2344 41.9855 37.0717 41.9041 36.9549 41.7729L35.5186 40.0547C35.4004 39.9184 35.3458 39.7456 35.364 39.5729C35.3822 39.4002 35.464 39.2365 35.6004 39.1184C35.7186 39.0184 35.8731 38.9638 36.0277 38.9638H36.0822C36.264 38.982 36.4186 39.0638 36.5277 39.1911L37.0822 39.8729C37.2004 40.0184 37.3731 40.1002 37.5549 40.1184C37.7367 40.1275 37.9186 40.0638 38.0549 39.9365L42.2095 36.0638C42.3458 35.9456 42.5186 35.8911 42.6913 35.9002C42.8731 35.9093 43.0277 35.9911 43.1458 36.1275C43.3913 36.4093 43.364 36.8365 43.0731 37.082Z" fill="#E52330"/>
</svg>