<svg width="55" height="40" viewBox="0 0 55 40" fill="none" xmlns="http://www.w3.org/2000/svg">
  <g clip-path="url(#clip0_2108_25192)">
    <path d="M0.619141 23.8961H10.0405" stroke="#E52330" stroke-width="2" stroke-linecap="round" stroke-linejoin="round"/>
    <path d="M3.56055 18.3187H12.9819" stroke="#E52330" stroke-width="2" stroke-linecap="round" stroke-linejoin="round"/>
    <path d="M0.619141 12.7401H10.0405" stroke="#E52330" stroke-width="2" stroke-linecap="round" stroke-linejoin="round"/>
    <path d="M3.56055 7.16278H12.9819" stroke="#E52330" stroke-width="2" stroke-linecap="round" stroke-linejoin="round"/>
    <path d="M48.5165 34.0247C49.288 30.7248 47.2634 27.4183 43.9944 26.6394C40.7254 25.8606 37.4498 27.9043 36.6783 31.2042C35.9067 34.5041 37.9313 37.8106 41.2004 38.5894C44.4694 39.3683 47.7449 37.3246 48.5165 34.0247Z" stroke="#E52330" stroke-width="2" stroke-linecap="round" stroke-linejoin="round"/>
    <path d="M44.6983 32.6164C44.6983 33.7855 43.7596 34.7344 42.6001 34.7344C41.4407 34.7344 40.502 33.7868 40.502 32.6164C40.502 31.4459 41.4407 30.4984 42.6001 30.4984" stroke="#E52330" stroke-width="2" stroke-linecap="round" stroke-linejoin="round"/>
    <path d="M20.5323 32.6164C20.5323 33.7855 19.5936 34.7344 18.4341 34.7344C17.2746 34.7344 16.3359 33.7868 16.3359 32.6164C16.3359 31.4459 17.2746 30.4984 18.4341 30.4984" stroke="#E52330" stroke-width="2" stroke-linecap="round" stroke-linejoin="round"/>
    <path d="M24.3544 34.025C25.1259 30.7251 23.1013 27.4186 19.8323 26.6398C16.5633 25.8609 13.2877 27.9047 12.5162 31.2046C11.7446 34.5045 13.7692 37.8109 17.0382 38.5898C20.3073 39.3686 23.5828 37.3249 24.3544 34.025Z" stroke="#E52330" stroke-width="2" stroke-linecap="round" stroke-linejoin="round"/>
    <path d="M33.2239 31.8983H27.8125" stroke="#E52330" stroke-width="2" stroke-linecap="round" stroke-linejoin="round"/>
    <path d="M6.73828 27.1285V29.4867C6.73828 30.8187 7.80787 31.897 9.12602 31.897" stroke="#E52330" stroke-width="2" stroke-linecap="round" stroke-linejoin="round"/>
    <path d="M51.5953 31.8983H52.066C53.3432 31.8983 54.3784 30.8533 54.3784 29.5641V19.7081C54.3784 17.0816 52.2577 14.9569 49.6545 14.9782L48.175 14.9903L40.8175 3.14699C39.8946 1.66025 38.279 0.758057 36.5404 0.758057H9.10917C8.00123 0.758057 7.10352 1.66425 7.10352 2.78265V3.92907" stroke="#E52330" stroke-width="2" stroke-linecap="round" stroke-linejoin="round"/>
    <path d="M43.5075 14.9916H31.582V4.38281" stroke="#E52330" stroke-width="2" stroke-linecap="round" stroke-linejoin="round"/>
  </g>
  <defs>
    <clipPath id="clip0_2108_25192">
      <rect width="55" height="40" fill="white"/>
    </clipPath>
  </defs>
</svg>