<svg width="16" height="16" viewBox="0 0 16 16" fill="none" xmlns="http://www.w3.org/2000/svg">
  <path fill-rule="evenodd" clip-rule="evenodd" d="M8.35258 10.8534C8.25883 10.947 8.13175 10.9996 7.99925 10.9996C7.86675 10.9996 7.73966 10.947 7.64591 10.8534L2.64591 5.85335C2.55759 5.75857 2.50951 5.63321 2.5118 5.50367C2.51408 5.37414 2.56656 5.25055 2.65817 5.15894C2.74977 5.06733 2.87336 5.01486 3.0029 5.01257C3.13243 5.01029 3.2578 5.05837 3.35258 5.14669L7.99925 9.79335L12.6459 5.14669C12.6917 5.09756 12.7469 5.05816 12.8082 5.03083C12.8696 5.00351 12.9358 4.98881 13.0029 4.98763C13.07 4.98644 13.1367 4.99879 13.199 5.02394C13.2612 5.04909 13.3178 5.08652 13.3653 5.134C13.4128 5.18147 13.4502 5.23803 13.4753 5.30029C13.5005 5.36255 13.5128 5.42923 13.5116 5.49637C13.5105 5.5635 13.4958 5.62971 13.4684 5.69105C13.4411 5.75238 13.4017 5.80758 13.3526 5.85335L8.35258 10.8534Z" fill="#24272C"/>
</svg>