<svg width="24" height="24" viewBox="0 0 24 24" fill="none" xmlns="http://www.w3.org/2000/svg">
  <path d="M6.66656 22.7679H17.334C19.4132 22.7679 20.4478 21.7132 20.4478 19.6239V10.5034C20.4478 9.20763 20.3072 8.64509 19.5036 7.82146L13.959 2.18639C13.1956 1.40292 12.5728 1.23218 11.4378 1.23218H6.66656C4.59738 1.23218 3.55273 2.29692 3.55273 4.38621V19.6239C3.55273 21.7232 4.59738 22.7679 6.66656 22.7679ZM6.74692 21.1507C5.71231 21.1507 5.16991 20.5982 5.16991 19.5938V4.41633C5.16991 3.42192 5.71231 2.84935 6.75695 2.84935H11.2168V8.68529C11.2168 9.95091 11.8596 10.5737 13.1052 10.5737H18.8306V19.5938C18.8306 20.5982 18.2983 21.1507 17.2536 21.1507H6.74692ZM13.286 9.05695C12.8942 9.05695 12.7335 8.89623 12.7335 8.49445V3.16075L18.5192 9.05695H13.286ZM12.7737 12.4621C12.7737 12.0503 12.4121 11.7188 12.0003 11.7188C11.5884 11.7188 11.2368 12.0503 11.2368 12.4621V16.1083L11.2971 17.7456L10.4434 16.8616L9.53932 15.9375C9.39871 15.7868 9.18776 15.7065 9.00695 15.7065C8.59514 15.7065 8.29376 15.9978 8.29376 16.3996C8.29376 16.6306 8.38419 16.8014 8.54491 16.942L11.4378 19.6038C11.6487 19.7947 11.8094 19.865 12.0003 19.865C12.2011 19.865 12.3518 19.7947 12.5628 19.6038L15.4556 16.942C15.6163 16.8014 15.7067 16.6306 15.7067 16.3996C15.7067 15.9978 15.4054 15.7065 15.0036 15.7065C14.8027 15.7065 14.6118 15.7868 14.4712 15.9375L13.5572 16.8616L12.7034 17.7456L12.7737 16.1083V12.4621Z" fill="white"/>
</svg>