<svg width="24" height="24" viewBox="0 0 24 24" fill="none" xmlns="http://www.w3.org/2000/svg">
  <path d="M6.66656 22.7676H17.334C19.4132 22.7676 20.4478 21.7129 20.4478 19.6236V10.5031C20.4478 9.20739 20.3072 8.64485 19.5036 7.82122L13.959 2.18615C13.1956 1.40268 12.5728 1.23193 11.4378 1.23193H6.66656C4.59738 1.23193 3.55273 2.29668 3.55273 4.38596V19.6236C3.55273 21.723 4.59738 22.7676 6.66656 22.7676ZM6.74692 21.1504C5.71231 21.1504 5.16991 20.598 5.16991 19.5935V4.41609C5.16991 3.42168 5.71231 2.84911 6.75695 2.84911H11.2168V8.68505C11.2168 9.95066 11.8596 10.5734 13.1052 10.5734H18.8306V19.5935C18.8306 20.598 18.2983 21.1504 17.2536 21.1504H6.74692ZM13.286 9.0567C12.8942 9.0567 12.7335 8.89599 12.7335 8.4942V3.16051L18.5192 9.0567H13.286ZM12.7737 12.4618C12.7737 12.05 12.4121 11.7185 12.0003 11.7185C11.5884 11.7185 11.2368 12.05 11.2368 12.4618V16.108L11.2971 17.7453L10.4434 16.8614L9.53932 15.9373C9.39871 15.7866 9.18776 15.7062 9.00695 15.7062C8.59514 15.7062 8.29376 15.9975 8.29376 16.3993C8.29376 16.6304 8.38419 16.8011 8.54491 16.9418L11.4378 19.6036C11.6487 19.7944 11.8094 19.8647 12.0003 19.8647C12.2011 19.8647 12.3518 19.7944 12.5628 19.6036L15.4556 16.9418C15.6163 16.8011 15.7067 16.6304 15.7067 16.3993C15.7067 15.9975 15.4054 15.7062 15.0036 15.7062C14.8027 15.7062 14.6118 15.7866 14.4712 15.9373L13.5572 16.8614L12.7034 17.7453L12.7737 16.108V12.4618Z" fill="white"/>
</svg>