<svg width="60" height="60" viewBox="0 0 60 60" fill="none" xmlns="http://www.w3.org/2000/svg">
  <g clip-path="url(#clip0_2108_25693)">
    <path d="M44.9008 33.8352L45.7482 35.3093L39.6573 45.9322H27.4756L21.3848 35.3093L27.4756 24.6904H30.0894" stroke="#E52330" stroke-width="2" stroke-linecap="round" stroke-linejoin="round"/>
    <path d="M14.2077 35.3138H9.20298L4.46875 27.0542" stroke="#E52330" stroke-width="2" stroke-linecap="round" stroke-linejoin="round"/>
    <path d="M22.7457 16.4429L27.476 24.6904L21.3851 35.3133H17.916" stroke="#E52330" stroke-width="2" stroke-linecap="round" stroke-linejoin="round"/>
    <path d="M18.6555 14.0679H9.20298L4.46875 22.3194" stroke="#E52330" stroke-width="2" stroke-linecap="round" stroke-linejoin="round"/>
    <path d="M39.6562 45.9326L44.3825 54.1802" stroke="#E52330" stroke-width="2" stroke-linecap="round" stroke-linejoin="round"/>
    <path d="M1.72717 22.3112C3.03207 21.5541 4.699 22.0028 5.4509 23.3166C6.20281 24.6304 5.75724 26.3088 4.45234 27.0658C3.14744 27.8229 1.48051 27.3743 0.728607 26.0604C-0.0233011 24.7466 0.422274 23.0682 1.72717 22.3112Z" stroke="#E52330" stroke-width="2" stroke-linecap="round" stroke-linejoin="round"/>
    <path d="M20.0201 11.6886C21.325 10.9316 22.992 11.3802 23.7439 12.694C24.4958 14.0079 24.0502 15.6862 22.7453 16.4433C21.4404 17.2003 19.7735 16.7517 19.0216 15.4379C18.2697 14.124 18.7152 12.4457 20.0201 11.6886Z" stroke="#E52330" stroke-width="2" stroke-linecap="round" stroke-linejoin="round"/>
    <path d="M44.3834 54.1798C45.6883 53.4228 47.3552 53.8714 48.1072 55.1853C48.8591 56.4991 48.4135 58.1774 47.1086 58.9345C45.8037 59.6916 44.1368 59.2429 43.3849 57.9291C42.6329 56.6152 43.0785 54.9369 44.3834 54.1798Z" stroke="#E52330" stroke-width="2" stroke-linecap="round" stroke-linejoin="round"/>
    <path d="M9.199 14.0679L4.46875 5.82031" stroke="#E52330" stroke-width="2" stroke-linecap="round" stroke-linejoin="round"/>
    <path d="M4.46796 5.82024C3.16307 6.5773 1.49614 6.12867 0.744232 4.81483C-0.00767611 3.50099 0.437899 1.82264 1.7428 1.06558C3.04769 0.308523 4.71462 0.757151 5.46653 2.07099C6.21844 3.38483 5.77286 5.06318 4.46796 5.82024Z" stroke="#E52330" stroke-width="2" stroke-linecap="round" stroke-linejoin="round"/>
    <path d="M9.20291 35.3135L4.47266 43.557" stroke="#E52330" stroke-width="2" stroke-linecap="round" stroke-linejoin="round"/>
    <path d="M4.47187 43.5573C3.16697 42.8002 1.50005 43.2489 0.748138 44.5627C-0.00376988 45.8765 0.441805 47.5549 1.7467 48.3119C3.0516 49.069 4.71853 48.6204 5.47044 47.3065C6.22234 45.9927 5.77677 44.3143 4.47187 43.5573Z" stroke="#E52330" stroke-width="2" stroke-linecap="round" stroke-linejoin="round"/>
    <path d="M40.2256 31.6926C44.0663 31.6926 47.1798 28.5578 47.1798 24.6908C47.1798 20.8238 44.0663 17.689 40.2256 17.689C36.385 17.689 33.2715 20.8238 33.2715 24.6908C33.2715 28.5578 36.385 31.6926 40.2256 31.6926Z" stroke="#E52330" stroke-width="2" stroke-linecap="round" stroke-linejoin="round"/>
    <path d="M37.0586 24.8272L39.4496 27.2346L43.778 22.8765" stroke="#E52330" stroke-width="2" stroke-linecap="round" stroke-linejoin="round"/>
    <path d="M37.0586 11.54V12.7978" stroke="#E52330" stroke-width="2" stroke-linecap="round" stroke-linejoin="round"/>
    <path d="M37.0586 4.93066V6.18842" stroke="#E52330" stroke-width="2" stroke-linecap="round" stroke-linejoin="round"/>
    <path d="M34.4015 8.86426H33.1523" stroke="#E52330" stroke-width="2" stroke-linecap="round" stroke-linejoin="round"/>
    <path d="M40.966 8.86426H39.7168" stroke="#E52330" stroke-width="2" stroke-linecap="round" stroke-linejoin="round"/>
    <path d="M56.0625 23.4209V24.6787" stroke="#E52330" stroke-width="2" stroke-linecap="round" stroke-linejoin="round"/>
    <path d="M56.0625 16.8115V18.0693" stroke="#E52330" stroke-width="2" stroke-linecap="round" stroke-linejoin="round"/>
    <path d="M53.4055 20.7451H52.1562" stroke="#E52330" stroke-width="2" stroke-linecap="round" stroke-linejoin="round"/>
    <path d="M59.9699 20.7451H58.7207" stroke="#E52330" stroke-width="2" stroke-linecap="round" stroke-linejoin="round"/>
    <path d="M51.5312 8.86475V10.1225" stroke="#E52330" stroke-width="2" stroke-linecap="round" stroke-linejoin="round"/>
    <path d="M51.5312 2.25537V3.51313" stroke="#E52330" stroke-width="2" stroke-linecap="round" stroke-linejoin="round"/>
    <path d="M48.8742 6.18896H47.625" stroke="#E52330" stroke-width="2" stroke-linecap="round" stroke-linejoin="round"/>
    <path d="M55.4387 6.18896H54.1895" stroke="#E52330" stroke-width="2" stroke-linecap="round" stroke-linejoin="round"/>
  </g>
  <defs>
    <clipPath id="clip0_2108_25693">
      <rect width="61" height="60" fill="white" transform="translate(-0.333984)"/>
    </clipPath>
  </defs>
</svg>