<svg width="40" height="40" viewBox="0 0 40 40" fill="none" xmlns="http://www.w3.org/2000/svg">
<circle cx="20" cy="20" r="19.5" stroke="#B6B6B6"/>
<g clip-path="url(#clip0_2108_26211)">
<path d="M20 10.5C25.523 10.5 30 14.977 30 20.5C30 26.023 25.523 30.5 20 30.5C18.298 30.5025 16.6237 30.0687 15.137 29.24L14.832 29.062L11.8 29.954C11.635 30.0026 11.4603 30.0083 11.2925 29.9705C11.1247 29.9327 10.9693 29.8526 10.8411 29.738C10.7129 29.6233 10.6162 29.4778 10.56 29.3152C10.5038 29.1526 10.49 28.9784 10.52 28.809L10.546 28.7L11.438 25.668C10.495 24.1093 9.99759 22.3218 10 20.5C10 14.977 14.477 10.5 20 10.5ZM20 12.5C18.5676 12.4997 17.1615 12.8841 15.9283 13.6128C14.6952 14.3416 13.6804 15.388 12.9898 16.6429C12.2992 17.8978 11.9582 19.3151 12.0024 20.7468C12.0466 22.1785 12.4743 23.5721 13.241 24.782C13.439 25.094 13.524 25.478 13.457 25.859L13.418 26.022L12.977 27.523L14.478 27.082C14.911 26.954 15.361 27.032 15.718 27.259C16.7663 27.9228 17.9547 28.3336 19.1892 28.459C20.4236 28.5844 21.6703 28.421 22.8307 27.9816C23.9911 27.5422 25.0334 26.8389 25.8752 25.9273C26.717 25.0157 27.3352 23.9208 27.6809 22.7291C28.0266 21.5374 28.0904 20.2817 27.8673 19.0611C27.6441 17.8405 27.14 16.6886 26.395 15.6964C25.65 14.7042 24.6843 13.8988 23.5744 13.3441C22.4645 12.7893 21.2408 12.5004 20 12.5ZM17.102 15.684C17.2127 15.6361 17.334 15.6178 17.4539 15.6309C17.5739 15.6441 17.6883 15.6882 17.786 15.759C18.29 16.127 18.69 16.621 19.034 17.103L19.361 17.577L19.514 17.802C19.6023 17.9311 19.6456 18.0856 19.6373 18.2418C19.629 18.3979 19.5695 18.547 19.468 18.666L19.393 18.742L18.469 19.428C18.4245 19.4602 18.3932 19.5074 18.3809 19.5609C18.3686 19.6144 18.3761 19.6706 18.402 19.719C18.612 20.099 18.983 20.666 19.409 21.092C19.836 21.518 20.429 21.914 20.835 22.147C20.923 22.197 21.029 22.181 21.101 22.116L21.139 22.071L21.74 21.156C21.8503 21.009 22.0133 20.9105 22.1947 20.881C22.3761 20.8516 22.5618 20.8935 22.713 20.998L23.256 21.377C23.796 21.762 24.315 22.176 24.726 22.701C24.8024 22.7995 24.851 22.9167 24.8667 23.0403C24.8823 23.164 24.8645 23.2896 24.815 23.404C24.419 24.328 23.416 25.115 22.374 25.077L22.215 25.067L22.024 25.049C21.988 25.0447 21.952 25.0401 21.916 25.035L21.678 24.995C20.754 24.821 19.273 24.297 17.738 22.763C16.204 21.228 15.68 19.747 15.506 18.823L15.466 18.585L15.441 18.377L15.428 18.202C15.4264 18.177 15.4251 18.152 15.424 18.127C15.386 17.083 16.177 16.08 17.102 15.684Z" fill="#B6B6B6"/>
</g>
<defs>
<clipPath id="clip0_2108_26211">
<rect width="24" height="24" fill="white" transform="translate(8 8.5)"/>
</clipPath>
</defs>
</svg>
