<svg width="119" height="119" viewBox="0 0 119 119" fill="none" xmlns="http://www.w3.org/2000/svg">
  <g clip-path="url(#clip0_2108_25906)">
    <path d="M83.6808 0.505617C84.4087 0.927609 84.972 1.58398 85.2787 2.3675C85.5853 3.15103 85.6172 4.01538 85.3691 4.81937L71.9742 48.3436H96.689C97.4153 48.3433 98.1258 48.5557 98.7328 48.9546C99.3397 49.3535 99.8166 49.9214 100.105 50.5882C100.392 51.255 100.479 51.9915 100.353 52.7068C100.227 53.4222 99.8945 54.085 99.3962 54.6134L39.8962 117.832C39.3205 118.444 38.5544 118.844 37.7228 118.965C36.8912 119.086 36.0431 118.921 35.3167 118.499C34.5904 118.076 34.0286 117.42 33.723 116.637C33.4174 115.854 33.386 114.991 33.6339 114.188L47.0288 70.6561H22.314C21.5877 70.6564 20.8772 70.444 20.2702 70.0451C19.6632 69.6462 19.1863 69.0783 18.8984 68.4115C18.6105 67.7447 18.5242 67.0082 18.65 66.2929C18.7759 65.5776 19.1085 64.9148 19.6067 64.3863L79.1067 1.16755C79.6818 0.556186 80.4467 0.157309 81.2771 0.0357798C82.1076 -0.0857494 82.9547 0.0772165 83.6808 0.49818V0.505617ZM30.9192 63.2186H52.064C52.646 63.2185 53.2198 63.355 53.7394 63.6171C54.2591 63.8792 54.7099 64.2595 55.0557 64.7276C55.4015 65.1957 55.6327 65.7384 55.7305 66.3121C55.8284 66.8858 55.7902 67.4744 55.6191 68.0307L45.4446 101.075L88.0764 55.7811H66.939C66.357 55.7812 65.7831 55.6448 65.2635 55.3827C64.7439 55.1206 64.2931 54.7402 63.9473 54.2721C63.6014 53.804 63.3703 53.2613 63.2725 52.6876C63.1746 52.1139 63.2128 51.5253 63.3839 50.9691L73.5584 17.9242L30.9192 63.2186Z" fill="white"/>
  </g>
  <defs>
    <clipPath id="clip0_2108_25906">
      <rect width="119" height="119" fill="white"/>
    </clipPath>
  </defs>
</svg>