<svg width="58" height="60" viewBox="0 0 58 60" fill="none" xmlns="http://www.w3.org/2000/svg">
  <g clip-path="url(#clip0_2108_25332)">
    <path d="M47.8754 15.7266L42.4723 10.7734C41.9941 10.3359 41.2613 10.3359 40.7832 10.7734L27.4379 23.0063C26.9207 23.4797 26.627 24.1484 26.627 24.8484V56.2484C26.627 57.6297 27.7457 58.7484 29.127 58.7484H54.127C55.5082 58.7484 56.627 57.6297 56.627 56.2484V24.8484C56.627 24.1484 56.3332 23.4797 55.816 23.0063L50.377 18.0203" stroke="#E52330" stroke-width="2.5" stroke-miterlimit="10"/>
    <path d="M38.8145 33.75H33.1895C33.0169 33.75 32.877 33.8899 32.877 34.0625V39.6875C32.877 39.8601 33.0169 40 33.1895 40H38.8145C38.987 40 39.127 39.8601 39.127 39.6875V34.0625C39.127 33.8899 38.987 33.75 38.8145 33.75Z" stroke="#E52330" stroke-width="2.5" stroke-miterlimit="10"/>
    <path d="M50.0645 42.5H44.4395C44.2669 42.5 44.127 42.6399 44.127 42.8125V48.4375C44.127 48.6101 44.2669 48.75 44.4395 48.75H50.0645C50.237 48.75 50.377 48.6101 50.377 48.4375V42.8125C50.377 42.6399 50.237 42.5 50.0645 42.5Z" stroke="#E52330" stroke-width="2.5" stroke-miterlimit="10"/>
    <path d="M36.627 50L46.627 32.5" stroke="#E52330" stroke-width="2.5" stroke-miterlimit="10"/>
    <path d="M33.7176 13.7453C33.1785 12.6094 32.877 11.3391 32.877 10C32.877 5.16719 36.7941 1.25 41.627 1.25C46.4598 1.25 50.377 5.16719 50.377 10C50.377 14.8328 46.4598 18.75 41.627 18.75" stroke="#E52330" stroke-width="2.5" stroke-miterlimit="10"/>
    <path d="M41.627 16.25V21.25" stroke="#E52330" stroke-width="2.5" stroke-miterlimit="10"/>
    <path d="M28.6393 14.5719L23.0033 17.6578C22.3893 17.9938 21.944 18.5735 21.7768 19.2531L14.2877 49.7406C13.958 51.0813 14.7783 52.4344 16.119 52.7641L22.9377 54.4391" stroke="#E52330" stroke-width="2.5" stroke-miterlimit="10" stroke-linecap="round"/>
    <path d="M27.569 9.95154L21.7487 10.6562C21.0534 10.7406 20.4253 11.1125 20.0159 11.6828L1.719 37.2172C0.914313 38.3406 1.17056 39.9015 2.29244 40.7062L11.0065 46.9547" stroke="#E52330" stroke-width="2.5" stroke-miterlimit="10" stroke-linecap="round"/>
  </g>
  <defs>
    <clipPath id="clip0_2108_25332">
      <rect width="57.8766" height="60" fill="white"/>
    </clipPath>
  </defs>
</svg>