<svg width="40" height="40" viewBox="0 0 40 40" fill="none" xmlns="http://www.w3.org/2000/svg">
<circle cx="20" cy="20" r="19.5" stroke="#B6B6B6"/>
<g clip-path="url(#clip0_2108_26221)">
<path d="M20.0026 12C15.5859 12 12.1778 15.5851 12.0054 20C11.9123 22.3866 13.046 24.5488 13.1652 26.8016C13.1876 27.2242 13.144 27.9898 14.1852 27.9279C15.7484 27.8352 16.4901 26.6691 16.6491 26.8016C17.5305 27.5363 18.7082 28 20.0027 28C24.4195 28 28 24.4182 28 20C28 15.5818 24.4195 12 20.0026 12ZM20.0699 23.9724C19.2599 23.9724 18.5162 23.7149 17.8783 23.3138C17.7799 23.2519 16.9412 24.3417 16.6821 24.0172C16.1394 23.3375 15.9573 21.1694 16.0512 20.0269C16.2449 17.6716 17.8618 16.0019 20.0567 16.0019C22.2515 16.0019 24.044 17.8016 24.044 19.9971C24.044 22.1926 22.2647 23.9725 20.0699 23.9725V23.9724Z" fill="#B6B6B6"/>
</g>
<defs>
<clipPath id="clip0_2108_26221">
<rect width="16" height="16" fill="white" transform="translate(12 12)"/>
</clipPath>
</defs>
</svg>
