<svg width="60" height="45" viewBox="0 0 60 45" fill="none" xmlns="http://www.w3.org/2000/svg">
  <g clip-path="url(#clip0_2108_25678)">
    <path d="M49.9952 35.7501L48.6415 38.077C48.3475 38.5783 47.7219 38.7815 47.1853 38.5478L46.5187 38.2565C46.1837 38.1109 45.7974 38.1312 45.4829 38.3107L44.1668 39.0626C43.8489 39.2455 43.6404 39.5639 43.5993 39.9229L43.5207 40.641C43.4592 41.2168 42.9669 41.6537 42.379 41.6537H39.6682C39.0836 41.6537 38.5914 41.2168 38.5264 40.641L38.4478 39.9229C38.4068 39.5639 38.1982 39.2421 37.8803 39.0626L36.5642 38.3107C36.2463 38.1278 35.86 38.1075 35.5285 38.2565L34.8619 38.5478C34.3252 38.7815 33.6962 38.5783 33.4056 38.077L32.0519 35.7501C31.758 35.2488 31.8947 34.6087 32.3664 34.2632L32.9544 33.8365C33.2484 33.6231 33.4227 33.281 33.4227 32.9186V31.4113C33.4227 31.0489 33.2484 30.7068 32.951 30.4935L32.3664 30.0701C31.8947 29.728 31.758 29.0878 32.0485 28.5832L33.4056 26.2563C33.6996 25.755 34.3252 25.5518 34.8619 25.7855L35.5319 26.0768C35.8669 26.2224 36.2497 26.2021 36.5677 26.0192L37.8803 25.2673C38.1982 25.0844 38.4068 24.766 38.4478 24.4036L38.5264 23.6855C38.5879 23.1097 39.0802 22.6694 39.6682 22.6694H42.379C42.9635 22.6694 43.4558 23.1064 43.5207 23.6822L43.5993 24.4002C43.6404 24.7592 43.8489 25.081 44.1668 25.2605L45.4829 26.0124C45.8008 26.1953 46.1871 26.2156 46.5221 26.0666L47.1887 25.7753C47.7254 25.5416 48.3543 25.7449 48.6449 26.2461L50.002 28.573C50.296 29.0743 50.1593 29.7144 49.6875 30.0599L49.0996 30.4867C48.8056 30.7001 48.6312 31.0422 48.6312 31.4046V32.9118C48.6312 33.2742 48.8056 33.6163 49.103 33.8297L49.6909 34.2531C50.1627 34.5951 50.2994 35.2353 50.0089 35.74L49.9952 35.7501Z" stroke="#E52330" stroke-width="2" stroke-linecap="round" stroke-linejoin="round"/>
    <path d="M42.4167 36.0247C41.9826 36.1805 41.5143 36.2618 41.0254 36.2618C38.7454 36.2618 36.8926 34.4294 36.8926 32.1668C36.8926 31.5911 37.0122 31.0457 37.2276 30.5479" stroke="#E52330" stroke-width="2" stroke-linecap="round" stroke-linejoin="round"/>
    <path d="M39.0566 28.5697C39.6412 28.2547 40.3112 28.0786 41.0222 28.0786C43.3023 28.0786 45.1551 29.911 45.1551 32.1735C45.1551 32.983 44.9158 33.7383 44.5056 34.3751" stroke="#E52330" stroke-width="2" stroke-linecap="round" stroke-linejoin="round"/>
    <path d="M43.8338 24.9895L59.3978 9.56839L50.3356 0.592773L21.6175 29.0505H21.6106L9.66329 17.2027L0.597656 26.1851L17.1325 42.5715C19.6075 45.0238 23.6173 45.0238 26.0922 42.5715L29.5961 39.0998" stroke="#E52330" stroke-width="2" stroke-linecap="round" stroke-linejoin="round"/>
    <path d="M45.1543 11.1706L50.3127 6.05957L51.9262 7.65825" stroke="#E52330" stroke-width="2" stroke-linecap="round" stroke-linejoin="round"/>
    <path d="M41.3555 14.9367L42.4152 13.8867" stroke="#E52330" stroke-width="2" stroke-linecap="round" stroke-linejoin="round"/>
    <path d="M6.12305 26.0087L9.79442 22.3677L11.4079 23.9697" stroke="#E52330" stroke-width="2" stroke-linecap="round" stroke-linejoin="round"/>
  </g>
  <defs>
    <clipPath id="clip0_2108_25678">
      <rect width="60" height="45" fill="white"/>
    </clipPath>
  </defs>
</svg>