<svg width="59" height="60" viewBox="0 0 59 60" fill="none" xmlns="http://www.w3.org/2000/svg">
  <g clip-path="url(#clip0_2108_25166)">
    <path d="M29.4983 50.1665C27.5376 50.1665 25.7718 49.0761 24.8929 47.3171C24.2287 45.988 22.8924 45.1602 21.4089 45.1602C20.9914 45.1602 20.5777 45.2279 20.18 45.3592C19.6312 45.5423 19.0744 45.6338 18.5216 45.6338C16.887 45.6338 15.332 44.8259 14.3576 43.4729C13.3832 42.1238 13.1326 40.4365 13.6616 38.8446C14.2741 37.0101 13.4349 34.9805 11.7128 34.1209C9.95893 33.2414 8.86523 31.4785 8.86523 29.5125C8.86523 27.5466 9.95495 25.7837 11.7128 24.9042C13.4349 24.0446 14.2741 22.015 13.6656 20.1884C13.1326 18.5886 13.3872 16.9053 14.3616 15.5522C15.3359 14.1992 16.891 13.3913 18.5256 13.3913C19.0784 13.3913 19.6352 13.4828 20.1761 13.6619C20.5817 13.7972 20.9953 13.8649 21.4129 13.8649C22.8964 13.8649 24.2327 13.0411 24.8968 11.7119C25.7758 9.95693 27.5376 8.86255 29.5023 8.86255C31.467 8.86255 33.2288 9.95295 34.1078 11.7119C34.7719 13.0411 36.1082 13.8649 37.5917 13.8649C38.0093 13.8649 38.4229 13.7972 38.8206 13.6659C39.3694 13.4828 39.9262 13.3913 40.479 13.3913C42.1136 13.3913 43.6687 14.1992 44.6431 15.5522C45.6174 16.9013 45.868 18.5886 45.339 20.1804C44.7266 22.015 45.5657 24.0446 47.2878 24.9042C49.0417 25.7837 50.1354 27.5466 50.1354 29.5125C50.1354 31.4785 49.0457 33.2414 47.2878 34.1209C45.5657 34.9805 44.7266 37.0101 45.3351 38.8367V38.8486C45.868 40.4325 45.6135 42.1198 44.6391 43.4689C43.6647 44.822 42.1097 45.6298 40.4751 45.6298C39.9223 45.6298 39.3655 45.5383 38.8246 45.3592C38.4189 45.2239 38.0053 45.1562 37.5877 45.1562C36.1043 45.1562 34.768 45.98 34.1038 47.3092C33.2249 49.0642 31.463 50.1586 29.4983 50.1586V50.1665Z" stroke="#E52330" stroke-width="2" stroke-linecap="round" stroke-linejoin="round"/>
    <path d="M17.5358 45.538L13.0059 54.4562L18.4306 54.8502C18.7209 54.7985 19.0113 54.9457 19.1425 55.2124L22.6582 59.367L26.0745 52.6416" stroke="#E52330" stroke-width="2" stroke-linecap="round" stroke-linejoin="round"/>
    <path d="M42.9406 48.4398L45.995 54.4569L40.5703 54.8509C40.276 54.7992 39.9856 54.9464 39.8544 55.2131L36.3426 59.3677L31.4707 49.777" stroke="#E52330" stroke-width="2" stroke-linecap="round" stroke-linejoin="round"/>
    <path d="M31.0933 20.0408L33.1177 24.2034C33.3006 24.5775 33.6546 24.8322 34.0642 24.8919L38.6458 25.5326C40.1094 25.7355 40.694 27.5383 39.6321 28.565L36.3033 31.7765C36.005 32.0631 35.8698 32.4809 35.9414 32.8908L36.7487 37.4474C37.0073 38.9039 35.4761 40.0182 34.1716 39.3218L30.0871 37.145C29.7212 36.95 29.2838 36.95 28.9179 37.145L24.8334 39.3218C23.5289 40.0182 21.9977 38.9039 22.2563 37.4474L23.0636 32.8908C23.1352 32.4809 23 32.067 22.7017 31.7765L19.3729 28.565C18.311 27.5383 18.8956 25.7355 20.3592 25.5326L24.9408 24.8919C25.3504 24.8362 25.7044 24.5775 25.8873 24.2034L27.9117 20.0408C28.5599 18.7116 30.453 18.7116 31.0973 20.0408H31.0933Z" stroke="#E52330" stroke-width="2" stroke-linecap="round" stroke-linejoin="round"/>
    <path d="M29.498 3.57309V0.636169" stroke="#E52330" stroke-width="2" stroke-linecap="round" stroke-linejoin="round"/>
    <path d="M38.416 7.98635L39.4222 5.54688" stroke="#E52330" stroke-width="2" stroke-linecap="round" stroke-linejoin="round"/>
    <path d="M47.832 11.1747L49.9081 9.09741" stroke="#E52330" stroke-width="2" stroke-linecap="round" stroke-linejoin="round"/>
    <path d="M51.0176 20.5981L53.4555 19.5912" stroke="#E52330" stroke-width="2" stroke-linecap="round" stroke-linejoin="round"/>
    <path d="M55.4297 29.5201H58.3648" stroke="#E52330" stroke-width="2" stroke-linecap="round" stroke-linejoin="round"/>
    <path d="M51.0176 38.4375L53.4555 39.4443" stroke="#E52330" stroke-width="2" stroke-linecap="round" stroke-linejoin="round"/>
    <path d="M47.832 47.8613L49.9081 49.9387" stroke="#E52330" stroke-width="2" stroke-linecap="round" stroke-linejoin="round"/>
    <path d="M11.1678 47.8613L9.0918 49.9387" stroke="#E52330" stroke-width="2" stroke-linecap="round" stroke-linejoin="round"/>
    <path d="M7.98287 38.4375L5.54492 39.4443" stroke="#E52330" stroke-width="2" stroke-linecap="round" stroke-linejoin="round"/>
    <path d="M3.5718 29.5201H0.636719" stroke="#E52330" stroke-width="2" stroke-linecap="round" stroke-linejoin="round"/>
    <path d="M7.98287 20.5981L5.54492 19.5912" stroke="#E52330" stroke-width="2" stroke-linecap="round" stroke-linejoin="round"/>
    <path d="M11.1678 11.1747L9.0918 9.09741" stroke="#E52330" stroke-width="2" stroke-linecap="round" stroke-linejoin="round"/>
    <path d="M20.5863 7.98635L19.5801 5.54688" stroke="#E52330" stroke-width="2" stroke-linecap="round" stroke-linejoin="round"/>
  </g>
  <defs>
    <clipPath id="clip0_2108_25166">
      <rect width="59" height="60" fill="white"/>
    </clipPath>
  </defs>
</svg>