<svg width="105" height="105" viewBox="0 0 105 105" fill="none" xmlns="http://www.w3.org/2000/svg">
  <path d="M103.521 87.9385L85.4743 14.2744C84.8181 11.8135 82.3572 9.84473 79.7322 9.84473H25.2634C22.6384 9.84473 20.1775 11.6494 19.5212 14.2744L1.47434 87.9385C0.98215 89.7432 1.47434 91.5479 2.45871 92.8604C3.60715 94.3369 5.24778 95.1572 7.05246 95.1572H97.9431C99.7478 95.1572 101.388 94.3369 102.537 92.8604C103.685 91.3838 104.013 89.5791 103.521 87.9385ZM52.4978 76.7822C50.529 76.7822 48.8884 78.4229 48.8884 80.3916V87.6104H22.4743L39.0447 17.2275H48.8884V17.3916V25.4307C48.8884 27.3994 50.529 29.04 52.4978 29.04C54.4665 29.04 56.1072 27.3994 56.1072 25.4307V17.3916V17.2275H65.9509L82.5212 87.6104H56.1072V80.3916C56.1072 78.4229 54.4665 76.7822 52.4978 76.7822ZM26.4118 17.2275H31.3337L14.7634 87.7744H9.02121L26.4118 17.2275ZM90.2322 87.7744L73.6618 17.2275H78.5837L95.9743 87.6104H90.2322V87.7744Z" fill="white"/>
  <path d="M52.4961 50.2022C54.4648 50.2022 56.1055 48.5615 56.1055 46.5928V38.5537C56.1055 36.585 54.4648 34.9443 52.4961 34.9443C50.5273 34.9443 48.8867 36.585 48.8867 38.5537V46.5928C48.8867 48.5615 50.5273 50.2022 52.4961 50.2022Z" fill="white"/>
  <path d="M56.1055 59.5537C56.1055 57.585 54.4648 55.9443 52.4961 55.9443C50.5273 55.9443 48.8867 57.585 48.8867 59.5537V67.5928C48.8867 69.5615 50.5273 71.2022 52.4961 71.2022C54.4648 71.2022 56.1055 69.5615 56.1055 67.5928V59.5537Z" fill="white"/>
</svg>