<svg width="60" height="60" viewBox="0 0 60 60" fill="none" xmlns="http://www.w3.org/2000/svg">
  <path d="M7.5 17.5L16.25 22.5M16.25 22.5L30 30M16.25 22.5L7.5 25M16.25 22.5L15 13.75M52.5 42.5L43.75 37.5M43.75 37.5L30 30M43.75 37.5L45 46.25M43.75 37.5L52.5 35M30 30L16.25 37.5M30 30V12.5M30 30V46.25M30 30L43.75 22.5M16.25 37.5L7.5 42.5M16.25 37.5L7.5 35M16.25 37.5L15 46.25M30 12.5V5M30 12.5L23.75 10M30 12.5L36.25 10M30 46.25V55M30 46.25L36.25 50M30 46.25L23.75 50M43.75 22.5L52.5 17.5M43.75 22.5L52.5 25M43.75 22.5L45 13.75" stroke="#E52330" stroke-width="2" stroke-linecap="round" stroke-linejoin="round"/>
</svg>