<svg width="60" height="60" viewBox="0 0 60 60" fill="none" xmlns="http://www.w3.org/2000/svg">
  <g clip-path="url(#clip0_2108_25809)">
    <path fill-rule="evenodd" clip-rule="evenodd" d="M34.2057 1.0083C47.8962 1.0083 58.9953 12.1074 58.9953 25.798C58.9953 39.4885 47.8962 50.5876 34.2057 50.5876C20.5152 50.5876 9.41602 39.4885 9.41602 25.798C9.41602 12.1074 20.514 1.0083 34.2057 1.0083ZM34.2057 7.0436C23.8486 7.0436 15.4513 15.4397 15.4513 25.798C15.4513 36.1562 23.8474 44.5523 34.2057 44.5523C44.5639 44.5523 52.96 36.1562 52.96 25.798C52.96 15.4397 44.5627 7.0436 34.2057 7.0436Z" fill="#E52330"/>
    <path d="M34.206 32.4808C37.8966 32.4808 40.8885 29.4889 40.8885 25.7983C40.8885 22.1076 37.8966 19.1157 34.206 19.1157C30.5153 19.1157 27.5234 22.1076 27.5234 25.7983C27.5234 29.4889 30.5153 32.4808 34.206 32.4808Z" fill="#E52330"/>
    <path fill-rule="evenodd" clip-rule="evenodd" d="M53.9059 1.0083L54.5447 5.45973L58.9962 6.09736L53.7258 11.3677L49.2756 10.7289L48.6367 6.27748L53.9059 1.0083Z" fill="#E52330"/>
    <path fill-rule="evenodd" clip-rule="evenodd" d="M15.6674 58.996C15.6674 58.996 30.327 52.9859 30.327 35.0781C25.0025 34.7563 19.8955 32.8446 15.6674 29.5928C11.4393 32.8458 6.33223 34.7563 1.00781 35.0781C1.00781 52.9847 15.6674 58.996 15.6674 58.996Z" fill="#E52330"/>
    <path fill-rule="evenodd" clip-rule="evenodd" d="M15.6687 57.8938C17.8866 56.837 28.8621 50.8714 29.3052 36.0077C24.3842 35.537 19.6698 33.7526 15.6687 30.8478C11.6676 33.7526 6.95318 35.537 2.03223 36.0077C2.47413 50.8702 13.4508 56.837 15.6687 57.8938ZM10.217 44.184C9.82553 43.7902 9.82673 43.1537 10.2206 42.7623C10.6145 42.3708 11.2509 42.372 11.6424 42.7659L14.0848 45.2107L19.6926 39.6029C20.0865 39.2091 20.7253 39.2091 21.1192 39.6029C21.5131 39.9968 21.5131 40.6356 21.1192 41.0295L14.8005 47.3482L14.7981 47.3458C14.4247 47.7325 13.7726 47.7433 13.3739 47.3434L10.2158 44.184H10.217ZM9.20711 32.1759C8.67875 30.0985 8.40856 27.9418 8.40856 25.7983C8.40856 11.5507 19.9592 0 34.2069 0C39.4749 0 44.57 1.58748 48.8965 4.59192L53.193 0.295401C53.7658 -0.277389 54.8069 0.0120082 54.9102 0.922227L55.4337 4.57031L59.1371 5.10227C59.9668 5.22115 60.2778 6.24184 59.7074 6.81103L55.4109 11.1088C58.4154 15.4353 60.0028 20.5316 60.0028 25.7983C60.0028 40.046 48.4522 51.5967 34.2045 51.5967C31.7296 51.5967 29.2631 51.2448 26.8903 50.5448C22.3897 57.3246 16.0854 59.9111 16.0566 59.9231C15.8164 60.024 15.5366 60.0324 15.276 59.9231C15.2328 59.9051 -0.00195312 53.6585 -0.00195312 35.0807H0.000448508C0.000448508 34.5511 0.412329 34.108 0.947893 34.0756C3.79383 33.9063 6.59773 33.2542 9.20471 32.1771L9.20711 32.1759ZM27.9759 48.7568C28.6051 47.6184 29.1779 46.3791 29.6654 45.0354C42.0614 47.939 53.9687 38.569 53.9687 25.7995C53.9687 20.7057 52.0414 16.0609 48.8749 12.5569L49.6326 11.7992L53.5244 12.3576C53.6277 12.378 53.7346 12.3828 53.8391 12.3708C56.5541 16.3347 57.9867 20.9939 57.9867 25.7995C57.9867 38.9341 47.3402 49.5805 34.2057 49.5805C32.1007 49.5805 30.0077 49.3067 27.9759 48.7568ZM30.279 43.1105C30.9407 40.7353 31.3358 38.0671 31.3358 35.0795C31.3358 34.5259 30.9071 34.0852 30.3247 34.0708C27.7813 33.9111 25.2932 33.3755 22.9372 32.4941C20.753 31.6763 18.6791 30.5608 16.7783 29.169L16.7759 29.1534C16.5621 28.0367 16.4612 26.9355 16.4612 25.7995C16.4612 15.9985 24.4058 8.05388 34.2069 8.05388C38.7448 8.05388 42.884 9.75663 46.0217 12.5581L38.8853 19.6946C37.5896 18.6991 35.9673 18.1083 34.2069 18.1083C29.9596 18.1083 26.5157 21.5523 26.5157 25.7995C26.5157 30.0468 29.9596 33.4908 34.2069 33.4908C38.4542 33.4908 41.8981 30.0468 41.8981 25.7995C41.8981 24.0391 41.3061 22.4168 40.3119 21.1212L47.4483 13.9847C50.2498 17.1224 51.9526 21.2617 51.9526 25.7995C51.9526 35.6006 44.008 43.5452 34.2069 43.5452C32.8776 43.5452 31.5759 43.4059 30.2802 43.1117L30.279 43.1105ZM14.7129 29.055C13.5565 29.9135 12.3364 30.6701 11.0648 31.3197C10.6337 29.5053 10.4247 27.6632 10.4247 25.7995C10.4247 12.665 21.0724 2.01857 34.2057 2.01857C39.0114 2.01857 43.6705 3.45115 47.6356 6.16739C47.626 6.25025 47.6272 6.33551 47.6392 6.42197L48.206 10.3739L47.4483 11.1316C43.9443 7.96622 39.2996 6.03771 34.2057 6.03771C21.997 6.03771 12.7219 16.9831 14.7129 29.0562V29.055ZM38.8673 22.5633C39.5049 23.4808 39.8796 24.5963 39.8796 25.7995C39.8796 28.9337 37.3398 31.4734 34.2057 31.4734C31.0716 31.4734 28.5318 28.9337 28.5318 25.7995C28.5318 22.6654 31.0716 20.1257 34.2057 20.1257C35.4089 20.1257 36.5233 20.5003 37.4419 21.138L33.4936 25.0863C33.0998 25.4801 33.0998 26.119 33.4936 26.5128C33.8875 26.9067 34.5263 26.9067 34.9202 26.5128L38.8685 22.5645L38.8673 22.5633ZM53.5473 5.60181L53.1942 3.14494L49.7034 6.63571L50.1634 9.83949L53.3671 10.2994L56.8579 6.80863L54.419 6.45919C53.9795 6.40516 53.6121 6.06172 53.5473 5.60181Z" fill="white"/>
  </g>
  <defs>
    <clipPath id="clip0_2108_25809">
      <rect width="60.0048" height="60" fill="white"/>
    </clipPath>
  </defs>
</svg>