<svg width="40" height="40" viewBox="0 0 40 40" fill="none" xmlns="http://www.w3.org/2000/svg">
<circle cx="20" cy="20" r="19.5" stroke="#B6B6B6"/>
<path d="M20.1776 15.7028C18.6718 16.3221 15.6641 17.6028 11.1545 19.5448C10.4236 19.8316 10.04 20.1132 10.0039 20.3897C9.94592 20.8542 10.5357 21.0377 11.3382 21.2881L11.6767 21.3932C12.4656 21.6474 13.5292 21.9437 14.0804 21.9552C14.5831 21.9679 15.1427 21.764 15.7589 21.3435C19.9732 18.5324 22.1481 17.1116 22.2835 17.081C22.3802 17.058 22.5155 17.0313 22.6045 17.1116C22.6934 17.1918 22.6857 17.3409 22.676 17.3811C22.618 17.6276 20.3033 19.7532 19.1063 20.8542C18.733 21.1982 18.4681 21.441 18.414 21.4964C18.2948 21.6169 18.1736 21.7354 18.0504 21.852C17.3156 22.5516 16.7664 23.0753 18.0794 23.9316C18.7118 24.3445 19.2184 24.6828 19.7231 25.0231C20.2723 25.3939 20.8215 25.7628 21.5332 26.2254C21.7137 26.3426 21.8877 26.4618 22.0553 26.5828C22.6954 27.0339 23.2736 27.4392 23.9833 27.3742C24.3971 27.3359 24.8245 26.9536 25.0411 25.8068C25.5535 23.0982 26.561 17.232 26.7931 14.814C26.8076 14.613 26.7992 14.411 26.7679 14.2119C26.7492 14.0513 26.6706 13.9034 26.5475 13.7971C26.3713 13.6775 26.1617 13.6153 25.948 13.6193C25.3679 13.6289 24.4725 13.9366 20.1776 15.7028Z" fill="#B6B6B6"/>
</svg>
