<svg width="40" height="40" viewBox="0 0 40 40" fill="none" xmlns="http://www.w3.org/2000/svg">
<circle cx="20" cy="20" r="19.5" stroke="#3D9DFF"/>
<path d="M20.1776 15.7027C18.6718 16.322 15.6641 17.6027 11.1545 19.5447C10.4236 19.8315 10.04 20.1131 10.0039 20.3896C9.94592 20.8541 10.5357 21.0376 11.3382 21.288L11.6767 21.3931C12.4656 21.6473 13.5292 21.9436 14.0804 21.9551C14.5831 21.9678 15.1427 21.7639 15.7589 21.3434C19.9732 18.5323 22.1481 17.1115 22.2835 17.0809C22.3802 17.0579 22.5155 17.0312 22.6045 17.1115C22.6934 17.1917 22.6857 17.3408 22.676 17.381C22.618 17.6276 20.3033 19.7531 19.1063 20.8541C18.733 21.1982 18.4681 21.4409 18.414 21.4963C18.2948 21.6168 18.1736 21.7354 18.0504 21.8519C17.3156 22.5515 16.7664 23.0752 18.0794 23.9315C18.7118 24.3444 19.2184 24.6827 19.7231 25.023C20.2723 25.3938 20.8215 25.7627 21.5332 26.2253C21.7137 26.3425 21.8877 26.4617 22.0553 26.5827C22.6954 27.0338 23.2736 27.4391 23.9833 27.3741C24.3971 27.3358 24.8245 26.9535 25.0411 25.8067C25.5535 23.0981 26.561 17.2319 26.7931 14.8139C26.8076 14.6129 26.7992 14.4109 26.7679 14.2118C26.7492 14.0512 26.6706 13.9034 26.5475 13.797C26.3713 13.6774 26.1617 13.6153 25.948 13.6192C25.3679 13.6288 24.4725 13.9365 20.1776 15.7027Z" fill="#3D9DFF"/>
</svg>
