<svg width="60" height="59" viewBox="0 0 60 59" fill="none" xmlns="http://www.w3.org/2000/svg">
  <g clip-path="url(#clip0_2108_25786)">
    <path d="M29.6037 22.2803H7.1791C6.85871 22.2803 6.59766 22.0225 6.59766 21.7009C6.59766 21.3793 6.85634 21.1216 7.1791 21.1216H29.6037C29.9241 21.1216 30.1852 21.3793 30.1852 21.7009C30.1852 22.0225 29.9265 22.2803 29.6037 22.2803Z" fill="#E52330" stroke="#E52330"/>
    <path d="M29.6037 28.4146H7.1791C6.85871 28.4146 6.59766 28.1568 6.59766 27.8352C6.59766 27.5136 6.85634 27.2559 7.1791 27.2559H29.6037C29.9241 27.2559 30.1852 27.5136 30.1852 27.8352C30.1852 28.1568 29.9265 28.4146 29.6037 28.4146Z" fill="#E52330" stroke="#E52330"/>
    <path d="M29.6037 34.5464H7.1791C6.85871 34.5464 6.59766 34.2887 6.59766 33.9671C6.59766 33.6455 6.85634 33.3877 7.1791 33.3877H29.6037C29.9241 33.3877 30.1852 33.6455 30.1852 33.9671C30.1852 34.2887 29.9265 34.5464 29.6037 34.5464Z" fill="#E52330" stroke="#E52330"/>
    <path d="M29.6037 40.6802H7.1791C6.85871 40.6802 6.59766 40.4224 6.59766 40.1008C6.59766 39.7792 6.85634 39.5215 7.1791 39.5215H29.6037C29.9241 39.5215 30.1852 39.7792 30.1852 40.1008C30.1852 40.4224 29.9265 40.6802 29.6037 40.6802Z" fill="#E52330" stroke="#E52330"/>
    <path d="M18.4211 49.669H7.1791C6.85871 49.669 6.59766 49.4112 6.59766 49.0896C6.59766 48.768 6.85634 48.5103 7.1791 48.5103H18.4211C18.7415 48.5103 19.0025 48.768 19.0025 49.0896C19.0025 49.4112 18.7438 49.669 18.4211 49.669Z" fill="#E52330" stroke="#E52330"/>
    <path d="M29.6042 49.669H25.0072C24.6868 49.669 24.4258 49.4112 24.4258 49.0896C24.4258 48.768 24.6845 48.5103 25.0072 48.5103H29.6042C29.9246 48.5103 30.1856 48.768 30.1856 49.0896C30.1856 49.4112 29.9269 49.669 29.6042 49.669Z" fill="#E52330" stroke="#E52330"/>
    <path d="M46.2471 59H0.581441C0.261055 59 0 58.7422 0 58.4206V11.5966C0 11.4429 0.061704 11.2963 0.170873 11.1875L11.2278 0.170261C11.3369 0.061483 11.4841 0 11.6383 0H46.2471C46.5675 0 46.8286 0.257756 46.8286 0.579359V16.4136C46.8286 16.7328 46.5699 16.9929 46.2471 16.9929C45.9244 16.9929 45.6657 16.7352 45.6657 16.4136V1.15635H11.878L1.16051 11.8355V57.8413H45.6657V48.8317C45.6657 48.5124 45.9244 48.2523 46.2471 48.2523C46.5699 48.2523 46.8286 48.5101 46.8286 48.8317V58.4183C46.8286 58.7375 46.5699 58.9976 46.2471 58.9976V59Z" fill="#E52330" stroke="#E52330"/>
    <path d="M51.4659 51.5772C51.3567 51.5772 51.2499 51.5464 51.155 51.4873L46.2472 48.3753L41.3298 51.4873C41.1495 51.6008 40.9216 51.6079 40.7389 51.5062C40.5538 51.4046 40.4375 51.2106 40.4375 51.0002V39.8268C40.4375 39.5076 40.6962 39.2475 41.0189 39.2475C41.3417 39.2475 41.6004 39.5052 41.6004 39.8268V49.9455L45.9386 47.2001C46.1309 47.0795 46.3729 47.0795 46.5628 47.2001L50.8892 49.9432V39.8245C50.8892 39.5052 51.1479 39.2451 51.4706 39.2451C51.7934 39.2451 52.0521 39.5029 52.0521 39.8245V50.9978C52.0521 51.2083 51.9358 51.4046 51.7507 51.5062C51.6629 51.5535 51.5679 51.5772 51.4706 51.5772H51.4659Z" fill="#E52330" stroke="#E52330"/>
    <path d="M11.638 12.1734H0.891988C0.571602 12.1734 0.310547 11.9157 0.310547 11.5941C0.310547 11.2725 0.569229 11.0147 0.891988 11.0147H11.0589V0.888929C11.0589 0.569691 11.3176 0.30957 11.6403 0.30957C11.9631 0.30957 12.2218 0.567326 12.2218 0.888929V11.5964C12.2218 11.9157 11.9631 12.1758 11.6403 12.1758L11.638 12.1734Z" fill="#E52330" stroke="#E52330"/>
    <path d="M38.8217 12.1736H18.6635C18.3431 12.1736 18.082 11.9158 18.082 11.5942V6.28541C18.082 5.96618 18.3407 5.70605 18.6635 5.70605H38.8217C39.1421 5.70605 39.4031 5.96381 39.4031 6.28541V11.5942C39.4031 11.9135 39.1444 12.1736 38.8217 12.1736ZM19.2425 11.0172H38.2402V6.86477H19.2425V11.0172Z" fill="#E52330" stroke="#E52330"/>
    <path d="M49.9398 41.6899C49.2396 41.6899 48.5395 41.314 47.8608 40.9498C47.2889 40.6424 46.6979 40.3255 46.247 40.3255C45.7961 40.3255 45.2028 40.6424 44.6332 40.9498C43.7717 41.4109 42.8747 41.8862 41.9966 41.6025C41.0757 41.3045 40.6082 40.3326 40.1976 39.4742C39.9271 38.909 39.6471 38.3249 39.3101 38.0814C38.9659 37.8307 38.3157 37.7456 37.6868 37.6604C36.7019 37.528 35.6814 37.3932 35.1213 36.6223C34.5636 35.8609 34.7463 34.8582 34.922 33.8911C35.0359 33.2644 35.1545 32.6165 35.0193 32.2027C34.8935 31.8196 34.4307 31.3797 33.9822 30.9564C33.2844 30.2967 32.4941 29.5471 32.4941 28.5657C32.4941 27.5843 33.2844 26.8371 33.9822 26.1773C34.4307 25.7517 34.8958 25.3142 35.0193 24.9311C35.1545 24.5173 35.0359 23.8693 34.922 23.2427C34.7463 22.2732 34.5636 21.2705 35.1213 20.5091C35.6838 19.7405 36.7019 19.6034 37.6891 19.4709C38.318 19.3858 38.9683 19.3007 39.3124 19.05C39.6494 18.8065 39.9271 18.2224 40.2 17.6572C40.6106 16.7988 41.0781 15.8245 41.9989 15.5266C42.8818 15.2428 43.7741 15.7181 44.6356 16.1792C45.2075 16.4867 45.7985 16.8035 46.2494 16.8035C46.7003 16.8035 47.2936 16.4867 47.8632 16.1792C48.7247 15.7158 49.6194 15.2381 50.4998 15.5266C51.4206 15.8245 51.8882 16.7964 52.2987 17.6548C52.5693 18.22 52.8493 18.8041 53.1863 19.0477C53.5305 19.2983 54.1807 19.3858 54.8096 19.4686C55.7945 19.601 56.815 19.7382 57.3751 20.5067C57.9328 21.2681 57.7501 22.2708 57.5744 23.238C57.4605 23.8646 57.3419 24.5149 57.4771 24.9264C57.6029 25.3095 58.0657 25.7469 58.5142 26.1726C59.212 26.8324 60.0022 27.582 60.0022 28.5633C60.0022 29.5447 59.212 30.292 58.5142 30.9541C58.0657 31.3774 57.6005 31.8172 57.4771 32.2003C57.3419 32.6141 57.4605 33.2621 57.5744 33.8887C57.7501 34.8582 57.9328 35.8609 57.3751 36.6223C56.8126 37.3909 55.7945 37.528 54.8072 37.6604C54.1783 37.7456 53.5281 37.8307 53.184 38.0814C52.8493 38.3249 52.5693 38.909 52.2964 39.4742C51.8858 40.3326 51.4183 41.3069 50.4975 41.6048C50.3124 41.6639 50.1272 41.6923 49.9398 41.6923V41.6899ZM46.2446 39.1691C46.9875 39.1691 47.7113 39.557 48.409 39.9306C49.0545 40.2782 49.7285 40.6376 50.1367 40.5029C50.5829 40.3586 50.9199 39.6539 51.2474 38.9752C51.5797 38.28 51.9238 37.5635 52.4981 37.1473C53.0795 36.7264 53.8769 36.6176 54.6506 36.5159C55.3934 36.4166 56.1624 36.3126 56.4329 35.9437C56.6963 35.5819 56.5611 34.8275 56.4282 34.0992C56.2881 33.3306 56.1434 32.5361 56.3688 31.8456C56.5848 31.1835 57.1567 30.6419 57.7121 30.1193C58.265 29.5944 58.8394 29.0528 58.8394 28.5681C58.8394 28.0833 58.265 27.5418 57.7121 27.0168C57.1591 26.4942 56.5872 25.9503 56.3712 25.2905C56.1458 24.6 56.2905 23.8055 56.4305 23.037C56.5634 22.3086 56.7011 21.5519 56.4353 21.1925C56.1647 20.8236 55.3958 20.7195 54.653 20.6202C53.8817 20.5162 53.0819 20.4097 52.5005 19.9888C51.9261 19.5726 51.582 18.8538 51.2498 18.1585C50.9223 17.4775 50.5876 16.7752 50.1391 16.6309C49.7285 16.4938 49.0569 16.8556 48.4114 17.2032C47.7137 17.5768 46.9898 17.9646 46.247 17.9646C45.5042 17.9646 44.7804 17.5768 44.0826 17.2032C43.4371 16.8579 42.7655 16.4938 42.3549 16.6309C41.9087 16.7752 41.5717 17.4798 41.2442 18.1585C40.912 18.8538 40.5679 19.5703 39.9935 19.9865C39.4121 20.4074 38.6147 20.5162 37.841 20.6178C37.0982 20.7172 36.3293 20.8212 36.0587 21.1901C35.7953 21.5519 35.9306 22.3063 36.0635 23.0346C36.2035 23.8031 36.3483 24.5977 36.1228 25.2882C35.9068 25.9503 35.3349 26.4918 34.7796 27.0144C34.2242 27.5394 33.6523 28.0809 33.6523 28.5657C33.6523 29.0505 34.2266 29.592 34.7796 30.117C35.3349 30.6396 35.9068 31.1835 36.1228 31.8432C36.3483 32.5337 36.2035 33.3283 36.0635 34.0944C35.9306 34.8228 35.7929 35.5795 36.0587 35.9389C36.3293 36.3078 37.0982 36.4119 37.841 36.5112C38.6123 36.6152 39.4097 36.7217 39.9912 37.1426C40.5655 37.5588 40.9096 38.2776 41.2442 38.9729C41.5717 39.6539 41.9064 40.3562 42.3549 40.5005C42.7655 40.6329 43.4347 40.2758 44.0826 39.9282C44.7804 39.5546 45.5042 39.1668 46.247 39.1668L46.2446 39.1691Z" fill="#E52330" stroke="#E52330"/>
    <path d="M46.2464 35.296C42.5228 35.296 39.4922 32.2762 39.4922 28.566C39.4922 24.8557 42.5228 21.8359 46.2464 21.8359C49.97 21.8359 53.0006 24.8533 53.0006 28.566C53.0006 32.2786 49.97 35.296 46.2464 35.296ZM46.2464 22.9947C43.1636 22.9947 40.6527 25.4942 40.6527 28.566C40.6527 31.6377 43.1612 34.1373 46.2464 34.1373C49.3316 34.1373 51.8401 31.6377 51.8401 28.566C51.8401 25.4942 49.3316 22.9947 46.2464 22.9947Z" fill="#E52330" stroke="#E52330"/>
  </g>
  <defs>
    <clipPath id="clip0_2108_25786">
      <rect width="60" height="59" fill="white"/>
    </clipPath>
  </defs>
</svg>